<ttFont>
<head>
    <!-- Most of this table will be recalculated by the compiler -->
    <tableVersion value="1.0"/>
    <fontRevision value="2.004"/>
    <checkSumAdjustment value="0x1a8d5e1a"/>
    <magicNumber value="0x5f0f3cf5"/>
    <flags value="00000000 00000011"/>
    <unitsPerEm value="1000"/>
    <created value="Thu Oct  8 10:00:00 2009"/>
    <modified value="Thu Oct  8 10:00:00 2009"/>
    <xMin value="-428"/>
    <yMin value="-286"/>
    <xMax value="1367"/>
    <yMax value="1125"/>
    <macStyle value="00000000 00000000"/>
    <lowestRecPPEM value="3"/>
    <fontDirectionHint value="2"/>
    <indexToLocFormat value="0"/>
    <glyphDataFormat value="0"/>
  </head>
          <CharString index="0">
            669 193 callgsubr
            -53 -18 0 37 -6 hvcurveto
            -118 628 rlineto
            13 -3 -1 3 -10 hhcurveto
            -10 -3 -3 -13 -7 hvcurveto
            -312 -600 rlineto
            -54 -28 -42 -11 -35 -66 callgsubr
            2 18 40 0 19 hhcurveto
            25 40 0 -2 24 hvcurveto
            4 26 -46 2 -2 32 2 12 rlinecurve
            2 9 2 5 3 6 78 149 rcurveline
            262 hlineto
            32 -170 3 -12 0 -2 -1 -4 rlinecurve
            -27 -5 -43 0 -19 -66 callgsubr
            2 29 52 0 31 hhcurveto
            26 50 0 -2 24 hvcurveto
            -179 267 rmoveto
            -244 hlineto
            179 344 rlineto
            return
          </CharString>
          <CharString index="1">
            467 214 rmoveto
            128 21 -76 100 -109 hhcurveto
            -109 -110 -100 -128 -21 hvcurveto
            -126 -21 77 -96 109 hhcurveto
            109 109 96 126 21 hvcurveto
            -63 8 rmoveto
            -6 -39 -12 -60 -35 -48 rrcurveto
            -46 -36 -46 -19 -38 hhcurveto
            -47 -36 28 39 -16 hvcurveto
            -18 45 7 56 7 44 7 42 11 52 33 45 rrcurveto
            33 26 44 32 51 hhcurveto
            45 34 -25 -35 18 hvcurveto
            23 -47 -11 -66 -5 -31 rrcurveto
            return
          </CharString>
          <CharString index="2">
            730 340 rmoveto
            205 34 -121 154 -166 hhcurveto
            -170 -170 -156 -203 -34 hvcurveto
            -203 -34 120 -153 167 hhcurveto
            171 169 156 200 34 hvcurveto
            -74 13 rmoveto
            -241 -40 -146 -110 -110 hhcurveto
            -114 -105 114 237 40 hvcurveto
            236 39 152 92 101 hhcurveto
            106 116 -95 -233 -39 hvcurveto
            return
          </CharString>
          <CharString index="3">
            -20 -105 callgsubr
            hintmask 00011000
            return
          </CharString>
          <CharString index="4">
            9 52 -12 40 -8 18 -32 64 -43 12 -46 12 -6 3 -2 0 -54 14 -52 14 -21 7 -21 27 -23 31 -4 32 5 32 rrcurveto
            65 11 64 71 85 hhcurveto
            106 53 -75 192 callgsubr
            -18 1 -1 7 9 1 3 17 2 vhcurveto
            34 203 197 callgsubr
            -6 -2 -4 -9 -6 hvcurveto
            -41 -66 rlineto
            55 -29 -53 25 -63 hhcurveto
            -102 -96 -81 -102 -17 hvcurveto
            -5 -31 0 -44 27 -42 29 -46 34 -8 76 -21 29 -8 48 -13 9 -4 53 -24 20 -60 -9 -56 rrcurveto
            -72 -12 -64 -77 -87 hhcurveto
            -107 -90 60 140 16 hvcurveto
            16 2 -1 1 -7 hhcurveto
            -8 -1 -1 -20 -4 hvcurveto
            -33 -202 rlineto
            -18 -3 0 -1 6 hhcurveto
            7 3 5 31 20 hvcurveto
            1 3 0 2 26 38 return
          </CharString>
          <CharString index="5">
            rmoveto
            19 3 -12 20 -32 hhcurveto
            hintmask 000010010000100000000000
            -40 -38 -19 -26 -32 hvcurveto
            27 -26 -34 10 -32 hhcurveto
            -79 -78 -62 -83 -14 hvcurveto
            hintmask 000000000001010000000000
            -10 -57 27 -36 9 -10 -36 -35 -7 -41 -1 -5 -4 -26 4 -38 30 -21 rrcurveto
            hintmask 101000000010000010100000
            -54 -13 -48 -40 -8 -50 rrcurveto
            -72 -12 86 -53 114 hhcurveto
            110 107 51 75 13 hvcurveto
            136 23 -148 0 -77 hhcurveto
            207 callgsubr
            -23 -41 0 1 -5 hvcurveto
            -30 5 -17 28 6 35 rrcurveto
            hintmask 000100100000001001000000
            2 9 3 22 23 22 rrcurveto
            -15 17 30 -17 40 hhcurveto
            79 78 62 83 14 hvcurveto
            4 26 -1 40 -25 31 rrcurveto
            30 33 43 10 23 hhcurveto
            4 6 0 -3 4 hvcurveto
            -4 -1 -10 -4 -2 -16 rrcurveto
            hintmask 000001000000000000000000
            -13 -2 7 -9 13 hhcurveto
            hintmask 110100110001000011000000
            15 10 10 13 2 hvcurveto
            -179 -114 rmoveto
            -20 -3 -18 -108 -88 hhcurveto
            -88 18 108 20 3 hvcurveto
            20 3 18 108 88 hhcurveto
            88 -18 -108 -20 -3 hvcurveto
            45 -372 rmoveto
            -55 -9 -78 -53 -100 hhcurveto
            -100 -60 53 55 9 hvcurveto
            5 31 22 29 24 16 rrcurveto
            hintmask 001000000000000100100000
            17 28 10 0 68 hhcurveto
            82 114 0 -93 -15 hvcurveto
            return
          </CharString>
          <CharString index="6">
            rmoveto
            17 5 -11 15 -17 hhcurveto
            -7 -6 -5 -8 -11 hvcurveto
            -156 -122 rlineto
            -11 130 callsubr
            0 5 -11 1 -2 vhcurveto
            185 105 16 9 3 1 4 11 rlinecurve
            endchar
          </CharString>
          <CharString index="7">
            751 657 rmoveto
            54 callsubr
            -23 -42 91 callsubr
            -43 0 2 -23 -40 callgsubr
            80 -8 -47 -25 -4 hvcurveto
            -60 -356 rlineto
            -134 -22 -101 -85 -95 hhcurveto
            -51 -42 27 42 -21 hvcurveto
            -24 48 7 62 5 35 65 388 rcurveline
            -36 callsubr
            return
          </CharString>
          <CharString index="8">
            -101 callgsubr
            137 hlineto
            return
          </CharString>
          <CharString index="9">
            rmoveto
            -12 callgsubr
            17 51 callgsubr
            3 hvcurveto
            return
          </CharString>
          <CharString index="10">
            rmoveto
            3 20 -7 18 -15 11 rrcurveto
            13 -17 -22 4 -28 hhcurveto
            -44 -44 -27 -39 -7 hvcurveto
            -16 -3 11 -9 13 hhcurveto
            14 12 9 16 4 hvcurveto
            15 2 -10 10 -14 hhcurveto
            -6 -1 rlineto
            19 15 27 12 28 hhcurveto
            19 14 -4 -11 return
          </CharString>
          <CharString index="11">
            rmoveto
            3 20 -7 18 -15 11 rrcurveto
            13 -17 -22 4 -28 hhcurveto
            -44 -44 -27 -39 -7 hvcurveto
            -16 -3 10 -9 13 hhcurveto
            14 13 -68 callsubr
            -1 3 -3 3 hhcurveto
            68 callsubr
            94 callgsubr
            42 21 rlinecurve
            18 9 14 16 3 18 rrcurveto
            endchar
          </CharString>
          <CharString index="12">
            rmoveto
            -68 callgsubr
            -3 14 -15 19 hhcurveto
            21 18 17 20 3 hvcurveto
            156 hmoveto
            -68 callgsubr
            -3 14 -15 19 hhcurveto
            21 18 17 20 3 hvcurveto
            return
          </CharString>
          <CharString index="13">
            -20 165 callgsubr
            hintmask 11010010
            -103 callgsubr
            hintmask 00001100
            return
          </CharString>
          <CharString index="14">
            rmoveto
            -10 144 callgsubr
            142 callgsubr
            -19 hvcurveto
            14 -18 -14 12 -22 hhcurveto
            -36 -29 -29 -46 -50 46 callsubr
            40 19 callsubr
            18 hvcurveto
            -14 18 100 callsubr
          </CharString>
          <CharString index="15">
            rmoveto
            21 3 -14 -85 callgsubr
            132 hmoveto
            21 3 -14 -85 callgsubr
            return
          </CharString>
          <CharString index="16">
            -20 -94 callgsubr
            hintmask 00110000
            return
          </CharString>
          <CharString index="17">
            725 340 rmoveto
            15 92 -15 91 -49 70 -10 16 -13 14 -13 12 34 9 28 35 7 38 rrcurveto
            26 4 -13 23 -24 hhcurveto
            -28 -17 -21 -21 172 callsubr
            10 -21 28 hhcurveto
            5 4 0 1 4 hvcurveto
            -13 -17 -18 -14 -21 -4 rrcurveto
            31 -41 -51 18 -56 hhcurveto
            -84 -85 -41 -64 -66 hvcurveto
            -72 -70 -45 -91 -15 -92 -16 -92 15 -90 49 -69 rrcurveto
            -64 44 72 -40 84 hhcurveto
            84 86 40 64 66 hvcurveto
            71 69 46 90 16 92 rrcurveto
            -79 15 rmoveto
            -14 -88 -30 -88 -59 -74 rrcurveto
            -58 -48 -66 -44 -69 hhcurveto
            -69 -52 44 58 -27 hvcurveto
            -36 74 1 88 14 88 14 82 29 82 58 67 rrcurveto
            55 47 67 40 67 hhcurveto
            67 53 -40 -55 30 hvcurveto
            36 -67 1 -82 -14 -82 rrcurveto
            return
          </CharString>
          <CharString index="18">
            155 8 -62 -133 -8 hvcurveto
            18 hlineto
            13 221 rlineto
            -506 139 callsubr
            69 11 0 -45 -7 hvcurveto
            -45 callgsubr
            return
          </CharString>
          <CharString index="19">
            10 -16 hhcurveto
            -13 -17 -11 -15 -2 hvcurveto
            -1 -4 -1 -6 8 -14 67 -133 rcurveline
            3 1 12 6 3 vvcurveto
            return
          </CharString>
          <CharString index="20">
            rlineto
            -38 -7 -5 -5 -64 -66 callgsubr
            return
          </CharString>
          <CharString index="21">
            -80 callsubr
            24 return
          </CharString>
          <CharString index="22">
            17 callgsubr
            193 callsubr
            117 hlineto
            57 28 -23 -13 12 hvcurveto
            33 -39 -4 -27 -12 -68 -11 -67 -5 -34 24 -34 rrcurveto
            -41 31 50 -4 22 hhcurveto
            74 25 83 17 3 hvcurveto
            -121 420 rmoveto
            -129 -21 -111 -25 -75 hhcurveto
            -114 hlineto
            45 268 rlineto
            34 6 3 5 40 hhcurveto
            73 hlineto
            83 92 -29 -124 -21 hvcurveto
            return
          </CharString>
          <CharString index="23">
            -86 callsubr
            44 0 return
          </CharString>
          <CharString index="24">
            56 90 13 hvcurveto
            -16 hlineto
            -103 -15 49 -71 76 hhcurveto
            76 73 71 103 19 hvcurveto
            return
          </CharString>
          <CharString index="25">
            15 -19 hhcurveto
            -21 -18 -17 -19 -3 hvcurveto
            -22 return
          </CharString>
          <CharString index="26">
            726 242 rmoveto
            92 callgsubr
            -25 -54 0 -27 hhcurveto
            -143 2 -5 -26 rlineto
            30 hlineto
            86 1 -11 -36 -6 hvcurveto
            -11 -66 rlineto
            -110 -19 -131 -9 -31 hhcurveto
            -103 -157 71 261 43 hvcurveto
            261 44 177 70 97 hhcurveto
            113 66 -98 -139 -4 hvcurveto
            -12 -1 -2 9 11 1 2 18 3 vhcurveto
            39 237 rlineto
            hintmask 0000000100000000
            -15 callgsubr
            return
          </CharString>
          <CharString index="27">
            -87 callsubr
            2 return
          </CharString>
          <CharString index="28">
            -20 -84 callgsubr
            hintmask 00110000
            return
          </CharString>
          <CharString index="29">
            -117 49 callgsubr
            56 7 -6 -48 -8 hvcurveto
            -46 -278 -86 callsubr
            43 0 25 hhcurveto
            24 41 65 callgsubr
            return
          </CharString>
          <CharString index="30">
            49 callgsubr
            59 8 -6 -48 -8 hvcurveto
            return
          </CharString>
          <CharString index="31">
            46 callgsubr
            cntrmask 11100000
            685 193 callgsubr
            -48 -14 6 46 -22 hvcurveto
            -166 341 202 173 42 35 42 28 57 2 rlinecurve
            4 26 -65 -2 rlineto
            -27 -47 0 2 -26 hvcurveto
            -4 -26 25 -2 1 -18 -1 -7 rlinecurve
            -1 -7 -6 -11 -5 -6 -387 -333 rcurveline
            56 339 16 callsubr
            -2 -29 -53 0 -31 hhcurveto
            -31 -53 0 2 -29 hvcurveto
            -4 -26 rlineto
            69 11 0 -45 -8 hvcurveto
            -90 -541 -64 callsubr
            29 177 150 127 140 -290 5 -10 4 -13 -1 -10 rlinecurve
            -26 -5 -28 0 -13 191 callgsubr
            46 0 33 hhcurveto
            24 41 65 callgsubr
            return
          </CharString>
          <CharString index="32">
            151 callsubr
            -7 8 vhcurveto
            -116 122 rlineto
            8 -9 -4 5 -8 hhcurveto
            -17 -15 -15 -17 -11 3 -1 12 -9 hvcurveto
            151 -105 rlineto
            1 2 9 11 0 vvcurveto
            endchar
          </CharString>
          <CharString index="33">
            660 234 rmoveto
            10 2 0 4 -9 hhcurveto
            -8 0 -3 -9 -3 hvcurveto
            -140 -31 -114 -86 -108 hhcurveto
            -102 -151 72 260 43 hvcurveto
            261 44 177 70 97 hhcurveto
            113 66 -98 -139 -4 hvcurveto
            -12 -1 -2 9 11 1 2 18 3 vhcurveto
            39 237 rlineto
            -15 callgsubr
            -58 -84 rlineto
            62 -38 -54 36 -77 hhcurveto
            -171 -181 -151 -206 -34 hvcurveto
            return
          </CharString>
          <CharString index="34">
            751 657 rmoveto
            54 callsubr
            -23 -42 91 callsubr
            -42 0 2 -23 -40 callgsubr
            80 -8 -47 -25 -4 hvcurveto
            -78 -463 -244 549 rlineto
            11 -5 -1 1 -19 hhcurveto
            -127 hlineto
            -79 callgsubr
            19 hlineto
            40 17 -5 -1 3 hvcurveto
            return
          </CharString>
          <CharString index="35">
            80 callgsubr
            -3 4 39 7 hvcurveto
            return
          </CharString>
          <CharString index="36">
            34 -26 -45 1 -17 hhcurveto
            -111 -50 -58 -58 -10 hvcurveto
            -15 -90 99 -21 28 -6 61 -13 21 -4 18 -18 11 -12 18 -22 -6 -36 rrcurveto
            -42 -7 -33 -54 -92 hhcurveto
            -87 -20 66 88 -3 hvcurveto
            14 -1 1 1 -8 hhcurveto
            -8 -2 -1 -20 -3 hvcurveto
            -24 -144 rlineto
            -18 -3 1 -1 6 201 callgsubr
            8 6 hvcurveto
            35 43 rlineto
            -27 15 31 -26 56 hhcurveto
            99 62 54 78 13 hvcurveto
            return
          </CharString>
          <CharString index="37">
            -57 -64 hhcurveto
            -64 -48 -83 callsubr
            return
          </CharString>
          <CharString index="38">
            -20 hstemhm
            119 936 -932 936 hintmask 0010100010000000
            1055 657 rmoveto
            4 26 -70 -2 rlineto
            -25 -44 58 callgsubr
            44 -1 15 -25 -4 -24 rlinecurve
            -1 -7 -2 -4 -5 -11 -238 -494 rcurveline
            -76 520 -1 10 -1 4 1 4 rlinecurve
            28 5 44 0 19 73 callsubr
            -50 0 -31 hhcurveto
            -25 -45 0 2 -23 -40 callgsubr
            46 11 -3 -18 7 hvcurveto
            121 callgsubr
            hintmask 0100000000000000
            -4 -3 -6 -2 -3 vhcurveto
            -225 -467 rlineto
            hintmask 0010100010000000
            -76 519 -2 callgsubr
            hintmask 1001100100000000
            -79 callgsubr
            60 3 -6 -32 4 hvcurveto
            92 -618 rlineto
            -15 3 -1 -2 9 hhcurveto
            8 4 2 14 6 hvcurveto
            260 542 80 -542 rlineto
            -14 2 2 -2 8 hhcurveto
            9 1 2 15 7 hvcurveto
            286 592 13 27 21 35 59 2 rlinecurve
            hintmask 0000011000000000
            return
          </CharString>
          <CharString index="39">
            9 16 4 hvcurveto
            15 2 -10 10 -14 hhcurveto
            -6 -1 rlineto
            19 15 169 callgsubr
            -3 -20 -3 -49 callsubr
            return
          </CharString>
          <CharString index="40">
            -17 callgsubr
            26 44 0 -2 24 hvcurveto
            return
          </CharString>
          <CharString index="41">
            15 2 -11 12 -14 hhcurveto
            -12 -5 -5 -12 -12 hvcurveto
            -137 -144 rlineto
            -8 -9 return
          </CharString>
          <CharString index="42">
            -118 -77 callsubr
            -46 -278 38 callgsubr
            27 165 rlineto
            return
          </CharString>
          <CharString index="43">
            -72 callgsubr
            84 callsubr
            return
          </CharString>
          <CharString index="44">
            -20 158 callsubr
            hintmask 0010100010000000
            -31 callgsubr
            rlineto
            hintmask 0101000100000000
            -59 callgsubr
            hintmask 1000000000000000
            41 callsubr
            rlineto
            hintmask 0100000000000000
            112 8 rlineto
            hintmask 1000000000000000
            2 callsubr
            hintmask 0000011000000000
            return
          </CharString>
          <CharString index="45">
            -52 callsubr
            -30 callsubr
            return
          </CharString>
          <CharString index="46">
            -20 hstemhm
            43 36 261 36 hintmask 0100100010000000
            -52 callgsubr
            hintmask 0001000010000000
            12 callgsubr
            hintmask 1010100100000000
            -71 callsubr
            hintmask 0000011000000000
            return
          </CharString>
          <CharString index="47">
            404 118 rmoveto
            4 0 3 -7 -7 -1 -1 -13 -6 vhcurveto
            -81 -40 -60 -20 -43 hhcurveto
            -64 -67 59 148 24 hvcurveto
            152 26 83 55 59 hhcurveto
            39 55 -19 -55 12 hvcurveto
            -19 -28 0 -35 -5 104 callgsubr
            7 29 3 35 6 hvcurveto
            71 12 -59 54 -77 hhcurveto
            105 callgsubr
            -133 -22 79 -91 102 hhcurveto
            124 50 115 11 2 hvcurveto
            return
          </CharString>
          <CharString index="48">
            565 261 rmoveto
            -18 hlineto
            -131 -31 -24 -102 -191 hhcurveto
            -174 hlineto
            500 635 rlineto
            19 3 -1 1 -21 hhcurveto
            -425 hlineto
            -47 -221 rlineto
            18 hlineto
            114 25 44 81 162 hhcurveto
            165 hlineto
            -492 -625 -8 -11 -1 -1 -1 -7 rlinecurve
            -13 -2 2 0 20 hhcurveto
            439 hlineto
            return
          </CharString>
          <CharString index="49">
            -9 -56 rlineto
            -69 -12 -34 -46 -42 hhcurveto
            -29 -37 20 91 15 hvcurveto
            47 283 rlineto
            140 hlineto
            5 26 rlineto
            -140 hlineto
            31 185 rlineto
            -18 hlineto
            -20 -103 -50 -90 -85 -2 -3 -16 rcurveline
            87 hlineto
            -46 -281 rlineto
            -19 -4 -18 -112 116 hhcurveto
            return
          </CharString>
          <CharString index="50">
            -80 8 47 25 4 hvcurveto
            90 539 6 -6 0 -2 5 -10 rlinecurve
            270 -607 rlineto
            -12 5 3 0 5 hhcurveto
            10 1 3 19 3 hvcurveto
            94 563 rlineto
            25 4 8 47 80 hhcurveto
            return
          </CharString>
          <CharString index="51">
            71 callgsubr
            -16 callgsubr
            return
          </CharString>
          <CharString index="52">
            4 26 rlineto
            return
          </CharString>
          <CharString index="53">
            22 4 10 74 -52 hhcurveto
            -22 -21 -15 -26 -5 hvcurveto
            -26 -4 16 -15 22 hhcurveto
            9 18 3 16 12 hvcurveto
            -11 0 -4 -3 -17 vhcurveto
            -10 -63 -35 -58 -46 -41 -5 -4 -2 -3 -1 -4 rrcurveto
            -4 3 -4 4 7 83 70 110 18 vhcurveto
            return
          </CharString>
          <CharString index="54">
            529 657 rmoveto
            4 26 -98 -2 rlineto
            -42 -46 0 2 -42 -40 callgsubr
            24 hlineto
            78 0 -11 -36 -6 hvcurveto
            -77 -463 rlineto
            -92 -16 -59 -55 -51 hhcurveto
            -26 -58 12 61 -16 hvcurveto
            -1 4 5 -1 4 hhcurveto
            19 26 13 30 5 hvcurveto
            24 4 -14 18 -25 hhcurveto
            -24 -21 -15 -29 -5 hvcurveto
            -67 -11 50 -61 82 hhcurveto
            78 82 56 84 26 hvcurveto
            2 7 0 2 6 34 70 420 rcurveline
            3 17 4 28 3 6 rrcurveto
            19 8 23 0 31 hhcurveto
            return
          </CharString>
          <CharString index="55">
            -77 callgsubr
            -72 callsubr
            32 192 rlineto
            return
          </CharString>
          <CharString index="56">
            716 336 rmoveto
            189 32 -101 158 -163 107 callsubr
            318 hlineto
            161 154 148 188 31 hvcurveto
            -74 hmoveto
            -23 -141 -51 -57 -23 -27 rrcurveto
            -31 -30 -66 -54 -95 hhcurveto
            -112 hlineto
            -40 -1 5 34 6 hvcurveto
            92 553 rlineto
            34 6 3 5 40 hhcurveto
            112 hlineto
            83 144 -49 -272 -45 hvcurveto
            return
          </CharString>
          <CharString index="57">
            1 7 -8 0 0 vvcurveto
            -7 -1 -2 -12 -6 hvcurveto
            -68 -34 -60 -34 -52 hhcurveto
            return
          </CharString>
          <CharString index="58">
            -14 -7 -12 -10 -7 -32 -24 -24 -31 -6 -34 -3 -20 rcurveline
            -3 return
          </CharString>
          <CharString index="59">
            -51 callgsubr
            52 107 callgsubr
            return
          </CharString>
          <CharString index="60">
            689 253 rmoveto
            100 17 -36 89 -104 hhcurveto
            -46 -59 -20 -63 -53 hvcurveto
            48 -17 -49 35 -64 hhcurveto
            -79 -68 -62 -66 -11 hvcurveto
            -37 -6 30 -2 6 hhcurveto
            13 24 8 28 5 hvcurveto
            25 4 -17 11 -17 hhcurveto
            -4 -5 -1 -1 -3 hvcurveto
            64 31 59 17 33 hhcurveto
            48 50 -40 -90 -15 hvcurveto
            -8 -48 -57 -3 -57 -3 -68 -30 rlinecurve
            -59 -25 -42 -47 -8 -51 rrcurveto
            -73 -12 79 -24 59 hhcurveto
            81 65 46 49 29 hvcurveto
            -77 37 65 -18 42 hhcurveto
            106 55 111 15 3 hvcurveto
            6 1 -3 2 -5 hhcurveto
            -7 -1 -2 -11 -5 hvcurveto
            -72 -33 -55 -31 -47 hhcurveto
            -30 -49 13 61 -27 hvcurveto
            return
          </CharString>
          <CharString index="61">
            rmoveto
            -8 16 -151 -66 -129 66 -14 -16 131 -117 rlineto
            endchar
          </CharString>
          <CharString index="62">
            -75 callgsubr
            endchar
          </CharString>
          <CharString index="63">
            461 214 rmoveto
            12 71 -18 71 -48 46 85 122 rcurveline
            -11 8 -85 -120 rlineto
            13 -17 -33 17 -43 hhcurveto
            -107 -106 -101 -127 -21 hvcurveto
            -13 -74 20 -67 48 -43 -87 -123 rcurveline
            12 -8 87 122 rlineto
            -19 26 32 -10 34 hhcurveto
            105 107 95 127 21 hvcurveto
            -81 177 rmoveto
            -239 -337 -29 40 -1 54 11 66 rlinecurve
            206 34 124 6 20 hhcurveto
            42 27 -23 -12 11 hvcurveto
            28 -177 rmoveto
            -6 -32 -11 -59 -35 -46 rrcurveto
            -48 -36 -49 -21 -41 hhcurveto
            -32 -28 12 21 -19 hvcurveto
            239 337 33 -49 -8 -69 -7 -46 rlinecurve
            return
          </CharString>
          <CharString index="64">
            668 -8 16 110 15 99 16 -13 15 46 15 115 16 hstemhm
            57 61 220 61 -53 53 236 54 hintmask 1110111000000000
            -47 callsubr
            hintmask 1001011011000000
            -22 52 10 61 6 38 rrcurveto
            263 hlineto
            23 1 1 17 3 hvcurveto
            -54 -3 rmoveto
            -232 hlineto
            143 34 84 33 40 hhcurveto
            98 -19 -141 -35 -5 hvcurveto
            -297 -117 rmoveto
            -70 -11 -68 -55 -67 hhcurveto
            -52 -29 39 42 7 hvcurveto
            hintmask 0010000010000000
            9 57 58 82 161 4 -5 -28 -2 -14 1 -28 rrcurveto
            hintmask 0100000100000000
            1 -14 -1 -5 -2 -10 rrcurveto
            endchar
          </CharString>
          <CharString index="65">
            3 callsubr
            183 hmoveto
            -64 callgsubr
            endchar
          </CharString>
          <CharString index="66">
            32 29 26 43 21 rlinecurve
            17 9 14 16 3 18 rrcurveto
            endchar
          </CharString>
          <CharString index="67">
            -18 callgsubr
            183 hmoveto
            7 callsubr
          </CharString>
          <CharString index="68">
            -2 12 -32 137 rlineto
            14 -3 -3 -88 callsubr
            return
          </CharString>
          <CharString index="69">
            rmoveto
            -11 14 -157 -108 -121 108 -15 -14 125 -162 rlineto
            endchar
          </CharString>
          <CharString index="70">
            rmoveto
            -12 callgsubr
            16 51 callgsubr
            4 hvcurveto
            endchar
          </CharString>
          <CharString index="71">
            45 8 11 0 69 184 callgsubr
            return
          </CharString>
          <CharString index="72">
            -94 callsubr
            70 return
          </CharString>
          <CharString index="73">
            rmoveto
            64 callsubr
            -24 -21 -10 callsubr
            return
          </CharString>
          <CharString index="74">
            -90 callgsubr
            endchar
          </CharString>
          <CharString index="75">
            -91 callsubr
            65 return
          </CharString>
          <CharString index="76">
            0 2 -29 hvcurveto
            57 callsubr
            -90 -541 -87 callgsubr
            return
          </CharString>
          <CharString index="77">
            92 15 67 69 70 hhcurveto
            74 -3 -66 -48 -8 hvcurveto
            return
          </CharString>
          <CharString index="78">
            18 -3 -2 -12 -3 -23 -91 -542 rcurveline
            -36 -6 -5 -11 -83 hhcurveto
            -28 hlineto
            -4 -26 147 2 147 -2 -55 callsubr
            return
          </CharString>
          <CharString index="79">
            -66 -394 -11 -64 13 -62 34 -46 rlinecurve
            -45 35 52 -26 61 hhcurveto
            55 57 27 44 43 hvcurveto
            47 47 30 61 11 64 66 397 rcurveline
            51 5 47 37 8 49 rrcurveto
            return
          </CharString>
          <CharString index="80">
            770 716 rmoveto
            26 5 -13 24 -24 hhcurveto
            -28 -18 -21 -21 172 callsubr
            11 -21 28 hhcurveto
            6 5 1 2 5 hvcurveto
            -15 -23 -28 -16 -30 -4 7 40 rcurveline
            return
          </CharString>
          <CharString index="81">
            -46 -8 40 -44 64 hhcurveto
            50 58 39 57 26 hvcurveto
            return
          </CharString>
          <CharString index="82">
            668 0 16 -16 49 634 16 hstemhm
            122 76 -53 76 400 76 hintmask 01110100
            655 146 rmoveto
            -18 hlineto
            -16 -46 -5 -12 -8 -16 rrcurveto
            -15 -7 -5 -8 -58 hhcurveto
            -81 hlineto
            21 58 31 43 53 67 66 85 55 69 14 83 rrcurveto
            135 22 -109 110 -159 hhcurveto
            -163 -144 -111 -134 -22 hvcurveto
            -14 -83 32 -71 36 -79 32 -71 17 -43 1 -58 rrcurveto
            hintmask 01001000
            -81 hlineto
            -57 -1 8 14 -3 hvcurveto
            -3 16 0 13 -3 46 rrcurveto
            -18 hlineto
            5 -146 rlineto
            151 hlineto
            hintmask 10001000
            21 1 1 15 3 hvcurveto
            12 71 -22 93 -10 43 rrcurveto
            hintmask 10110100
            -19 78 -17 76 13 78 rrcurveto
            149 25 120 79 104 hhcurveto
            109 89 -82 -146 -24 hvcurveto
            -13 -77 -38 -69 -53 -91 -22 -41 -52 -91 -11 -70 rrcurveto
            -16 -3 1 0 21 hhcurveto
            151 hlineto
            endchar
          </CharString>
          <CharString index="83">
            -94 hlineto
            46 277 rlineto
            34 6 3 5 40 hhcurveto
            110 hlineto
            151 -4 -70 192 callgsubr
            18 hlineto
            13 221 rlineto
            -514 hlineto
            -79 callgsubr
            36 hlineto
            9 12 0 -1 8 hvcurveto
            -295 -565 -29 -56 -42 -8 -34 -1 rlinecurve
            -79 callgsubr
            2 17 41 0 19 hhcurveto
            24 42 65 callgsubr
            4 26 -50 2 3 37 1 7 rlinecurve
            2 9 4 8 4 8 115 218 rcurveline
            return
          </CharString>
          <CharString index="84">
            11 15 -18 hvcurveto
            14 -18 141 callsubr
            -49 46 callsubr
            39 return
          </CharString>
          <CharString index="85">
            107 callgsubr
            53 55 callsubr
            return
          </CharString>
          <CharString index="86">
            7 rmoveto
            120 20 -62 93 -97 hhcurveto
            -51 -46 -19 -36 -40 hvcurveto
            37 225 rlineto
            -4 9 39 -13 42 hhcurveto
            93 60 50 29 33 hvcurveto
            8 2 1 5 -6 hhcurveto
            0 -3 0 -9 -4 vhcurveto
            -15 -38 -43 -12 -50 hhcurveto
            hintmask 0000010000000000
            -30 -44 4 22 -45 hvcurveto
            hintmask 0000001000000000
            -10 5 -3 0 0 vvcurveto
            hintmask 1101010110000000
            -5 -2 -1 -20 -3 hvcurveto
            -48 -290 rlineto
            -18 -3 -1 -5 10 hhcurveto
            5 2 2 7 6 hvcurveto
            45 40 47 19 50 hhcurveto
            35 71 -22 -171 -28 hvcurveto
            -6 -32 -9 -58 -38 -46 rrcurveto
            -41 -32 -42 -21 -43 hhcurveto
            -66 -60 46 77 -5 hvcurveto
            hintmask 1010000000000000
            -1 4 8 -2 4 hhcurveto
            13 26 7 31 5 hvcurveto
            27 5 -17 11 -19 hhcurveto
            -23 -18 -14 -28 -5 hvcurveto
            -87 -14 54 -91 106 hhcurveto
            103 113 89 129 21 hvcurveto
            endchar
          </CharString>
          <CharString index="87">
            72 callsubr
            -19 hvcurveto
            14 -17 113 callgsubr
            9 -11 rlineto
            33 40 103 callgsubr
            17 100 callsubr
          </CharString>
          <CharString index="88">
            -299 10 callsubr
            return
          </CharString>
          <CharString index="89">
            2 23 42 165 callsubr
            42 65 callgsubr
            -55 callsubr
            return
          </CharString>
          <CharString index="90">
            654 0 26 321 16 294 26 hstemhm
            298 73 193 73 -43 73 hintmask 10100100
            637 182 rmoveto
            15 90 -69 77 -106 7 100 19 77 64 13 76 rrcurveto
            83 14 -68 85 -129 107 callsubr
            344 hlineto
            hintmask 01111000
            128 98 91 91 15 hvcurveto
            -43 333 rmoveto
            -76 -13 -73 -76 -108 hhcurveto
            -144 hlineto
            42 255 rlineto
            34 6 3 5 40 hhcurveto
            128 hlineto
            hintmask 11010100
            99 30 -80 -62 -10 hvcurveto
            -30 -332 rmoveto
            -73 -13 -71 -84 -109 hhcurveto
            -130 hlineto
            -40 -1 5 34 6 hvcurveto
            47 282 rlineto
            185 hlineto
            hintmask 00001000
            103 35 -91 -73 -12 hvcurveto
            endchar
          </CharString>
          <CharString index="91">
            -100 callgsubr
            67 callgsubr
            return
          </CharString>
          <CharString index="92">
            707 0 26 303 26 302 26 hstemhm
            187 64 -60 64 93 64 230 95 callsubr
            -43 -257 rlineto
            -80 hlineto
            -79 callgsubr
            hintmask 11010110
            80 hlineto
            -43 -258 -87 callgsubr
            318 hlineto
            161 154 148 188 31 hvcurveto
            -74 hmoveto
            -23 -141 -51 -57 -23 -27 rrcurveto
            -31 -30 -66 -54 -95 hhcurveto
            -112 hlineto
            -40 -1 5 34 6 hvcurveto
            44 264 rlineto
            157 hlineto
            -55 callsubr
            hintmask 01101110
            -157 hlineto
            44 263 134 callgsubr
          </CharString>
          <CharString index="93">
            6 34 rlineto
            239 39 121 54 65 hhcurveto
            21 51 -4 -39 13 hvcurveto
            -16 -30 0 -35 -6 hvcurveto
            -27 -4 20 -9 14 hhcurveto
            9 28 4 34 6 hvcurveto
            63 10 -44 36 -69 hhcurveto
            -119 -145 -124 -221 -37 hvcurveto
            return
          </CharString>
          <CharString index="94">
            -106 -17 -64 -79 -55 hhcurveto
            -26 -61 24 161 27 hvcurveto
            162 27 69 23 26 hhcurveto
            55 37 -79 -106 -18 hvcurveto
            return
          </CharString>
          <CharString index="95">
            0 45 8 hvcurveto
            return
          </CharString>
          <CharString index="96">
            rmoveto
            -16 hlineto
            -89 -17 -67 -57 -64 hhcurveto
            -64 -47 -83 callsubr
            endchar
          </CharString>
          <CharString index="97">
            -19 -22 -3 5 callgsubr
            return
          </CharString>
          <CharString index="98">
            475 193 callgsubr
            -47 -9 9 44 -23 hvcurveto
            -95 185 -1 2 -4 6 1 3 rlinecurve
            92 75 65 48 37 5 26 1 rlinecurve
            5 26 rlineto
            -6 -3 -1 0 hvcurveto
            -50 -1 rlineto
            180 callgsubr
            14 -1 9 -8 -2 -14 rlinecurve
            -4 -20 -24 -19 0 vvcurveto
            -174 -138 82 490 rlineto
            return
          </CharString>
          <CharString index="99">
            511 54 callgsubr
            375 26 -5 16 78 callsubr
            hintmask 0010000100000000
            483 hmoveto
            -72 callsubr
            hintmask 0000000010000000
            134 callsubr
            hintmask 0000101000000000
            4 callgsubr
            rlineto
            hintmask 0011010000000000
            -71 callgsubr
            hintmask 0000100010000000
            -30 callsubr
            return
          </CharString>
          <CharString index="100">
            205 rmoveto
            125 21 -66 91 -102 hhcurveto
            -61 -51 -40 -70 -37 hvcurveto
            hintmask 0000110100000000
            -14 callsubr
            hintmask 1100001010000000
            -272 -46 103 -60 80 hhcurveto
            97 107 87 134 22 hvcurveto
            -68 1 rmoveto
            -9 -54 -6 -40 -28 -40 rrcurveto
            hintmask 1011000110000000
            -41 -29 -36 -23 -46 hhcurveto
            -123 31 184 37 6 hvcurveto
            72 12 52 104 93 hhcurveto
            17 49 0 -69 21 hvcurveto
            12 -39 -7 -41 -9 -50 rrcurveto
            endchar
          </CharString>
          <CharString index="101">
            4 -2 2 -4 vhcurveto
            -4 hlineto
            -2 -2 -1 -2 -1 hvcurveto
            -44 -87 -61 -80 -74 -66 rrcurveto
            -1 -2 -1 -1 -2 -1 1 -2 -1 vvcurveto
            52 -66 35 -79 14 -87 rrcurveto
            -3 1 2 -2 3 hhcurveto
            4 hlineto
            3 3 3 3 hvcurveto
            -6 84 -22 79 -35 71 59 72 48 79 34 83 rrcurveto
            1 0 0 1 vvcurveto
            return
          </CharString>
          <CharString index="102">
            25 4 -17 16 -21 hhcurveto
            -20 -24 -16 -25 -4 hvcurveto
            -25 -4 17 -16 21 hhcurveto
            20 24 16 25 4 hvcurveto
            return
          </CharString>
          <CharString index="103">
            71 callgsubr
            -107 callsubr
            hintmask 11100000
            return
          </CharString>
          <CharString index="104">
            205 rmoveto
            125 21 -66 91 -102 hhcurveto
            -61 -51 -40 -70 -37 hvcurveto
            -14 callsubr
            -272 -46 103 -60 80 hhcurveto
            97 107 87 134 22 hvcurveto
            -68 1 rmoveto
            -9 -54 -6 -40 -28 -40 rrcurveto
            -41 -29 -36 -23 -46 hhcurveto
            -123 31 184 37 6 hvcurveto
            72 12 52 104 93 hhcurveto
            17 49 0 -69 21 hvcurveto
            hintmask 00100001
            12 -39 -7 -41 -9 -50 rrcurveto
            endchar
          </CharString>
          <CharString index="105">
            -20 hstemhm
            200 72 84 72 hintmask 10011000
            7 callgsubr
            return
          </CharString>
          <CharString index="106">
            -30 -39 -35 -5 -19 hhcurveto
            -29 -101 15 191 32 hvcurveto
            196 32 118 12 26 hhcurveto
            46 33 -26 -36 17 hvcurveto
            10 -21 -1 -3 -3 -18 rrcurveto
            return
          </CharString>
          <CharString index="107">
            668 0 164 callgsubr
            hstemhm
            313 66 12 66 -53 66 hintmask 00100000
            -30 callgsubr
            hintmask 01001000
            106 callsubr
            hintmask 10010100
            -29 callsubr
            hintmask 10011000
            62 callgsubr
            hintmask 01000100
            40 callgsubr
            hintmask 00100000
            14 callsubr
            endchar
          </CharString>
          <CharString index="108">
            37 callgsubr
            183 hmoveto
            -48 callgsubr
            endchar
          </CharString>
          <CharString index="109">
            -55 callsubr
            -19 -24 0 9 -8 hvcurveto
            -10 9 4 20 2 16 49 294 rcurveline
            53 8 48 33 8 48 rrcurveto
            return
          </CharString>
          <CharString index="110">
            458 rmoveto
            -64 callgsubr
            return
          </CharString>
          <CharString index="111">
            693 0 43 callgsubr
            -20 return
          </CharString>
          <CharString index="112">
            321 rmoveto
            10 61 16 104 -29 80 rrcurveto
            70 -25 -55 25 -52 hhcurveto
            -48 -64 -22 -72 -50 hvcurveto
            -53 -75 -19 -93 -13 -78 -10 -57 -13 -87 18 -76 rrcurveto
            -103 26 74 -14 39 hhcurveto
            46 74 19 95 56 hvcurveto
            42 69 17 81 13 73 rrcurveto
            -63 11 rmoveto
            -10 -65 -14 -80 -22 -59 rrcurveto
            -109 -39 -62 -19 -35 hhcurveto
            -64 -29 55 76 -1 hvcurveto
            -1 59 14 86 9 56 13 77 11 64 23 61 rrcurveto
            85 33 61 26 39 hhcurveto
            41 48 -27 -82 5 hvcurveto
            4 -57 -10 -67 -14 -80 rrcurveto
            endchar
          </CharString>
          <CharString index="113">
            225 rmoveto
            10 64 3 66 -31 50 rrcurveto
            43 -27 -51 18 -55 hhcurveto
            -55 -57 -18 -43 -41 hvcurveto
            -49 -50 -19 -66 -10 -64 -11 -64 -3 -66 32 -50 rrcurveto
            -43 26 51 -18 55 hhcurveto
            55 57 18 43 42 hvcurveto
            48 50 19 66 11 64 rrcurveto
            -64 hmoveto
            -10 -58 -13 -60 -37 -50 rrcurveto
            -35 -26 -39 -22 -40 hhcurveto
            -40 -31 22 35 -14 hvcurveto
            -21 50 7 60 10 58 9 58 13 60 38 50 rrcurveto
            35 25 39 22 40 hhcurveto
            40 31 -22 -35 15 hvcurveto
            20 -50 -7 -60 -9 -58 rrcurveto
            endchar
          </CharString>
          <CharString index="114">
            -54 callsubr
            endchar
          </CharString>
          <CharString index="115">
            120 rmoveto
            -9 hlineto
            -12 -1 -10 -7 -3 hvcurveto
            -36 -12 -21 -12 -31 hhcurveto
            -233 hlineto
            198 106 74 40 72 52 14 80 rlinecurve
            93 12 -120 40 -69 hhcurveto
            -67 -110 -34 -92 -15 hvcurveto
            -21 -4 10 -12 19 hhcurveto
            18 15 12 19 3 hvcurveto
            hintmask 00110000
            20 4 -14 11 -19 hhcurveto
            52 37 49 19 52 hhcurveto
            hintmask 11001100
            63 79 -29 -78 -13 hvcurveto
            -13 -78 -94 -68 -62 -39 -180 -115 rcurveline
            -7 -6 -7 -4 -2 -10 rrcurveto
            -4 0 -6 -1 -3 vhcurveto
            355 hlineto
            endchar
          </CharString>
          <CharString index="116">
            hstemhm
            7 40 0 40 18 59 -33 23 -13 23 0 40 -40 59 117 59 -14 40 return
          </CharString>
          <CharString index="117">
            107 -95 callsubr
            return
          </CharString>
          <CharString index="118">
            155 rmoveto
            -18 hlineto
            -22 -71 -10 -12 -5 -6 rrcurveto
            -8 -6 -72 0 -14 hhcurveto
            -192 hlineto
            223 192 70 58 83 68 16 99 rlinecurve
            118 20 -83 68 -105 hhcurveto
            -110 -83 -97 -90 -15 hvcurveto
            -39 -6 28 -5 12 hhcurveto
            10 31 6 35 6 hvcurveto
            31 5 -25 9 -14 hhcurveto
            -6 -6 -1 -2 -4 hvcurveto
            85 33 65 42 61 hhcurveto
            87 45 -69 -91 -15 hvcurveto
            -14 -87 -64 -75 -68 -65 -236 -225 rcurveline
            -4 -23 rlineto
            352 hlineto
            endchar
          </CharString>
          <CharString index="119">
            628 0 26 315 26 288 26 return
          </CharString>
          <CharString index="120">
            63 callgsubr
            366 hlineto
            -53 -34 -35 -35 -8 -52 2 callgsubr
            7 40 43 31 39 24 rrcurveto
            109 hlineto
            return
          </CharString>
          <CharString index="121">
            1 8 29 0 18 hhcurveto
            153 10 -29 -166 -14 hvcurveto
            return
          </CharString>
          <CharString index="122">
            18 26 18 138 18 -9 18 return
          </CharString>
          <CharString index="123">
            rlineto
            -36 callsubr
            return
          </CharString>
          <CharString index="124">
            34 -8 34 -8 34 return
          </CharString>
          <CharString index="125">
            170 rmoveto
            5 26 rlineto
            -102 hlineto
            75 451 rlineto
            21 3 0 1 -18 hhcurveto
            -376 -473 -5 -26 rlineto
            258 hlineto
            -16 -98 rlineto
            -36 -6 -4 -10 -70 hhcurveto
            -19 hlineto
            -79 callgsubr
            2 32 54 0 34 hhcurveto
            34 54 131 callgsubr
            -55 callsubr
            -19 hlineto
            -70 0 10 36 6 hvcurveto
            16 98 rlineto
            -50 26 rmoveto
            -241 hlineto
            305 385 rlineto
            endchar
          </CharString>
          <CharString index="126">
            22 30 callgsubr
            return
          </CharString>
          <CharString index="127">
            hmoveto
            5 27 rlineto
            -39 hlineto
            -50 -28 2 45 7 hvcurveto
            64 381 rlineto
            4 1 0 7 -7 hhcurveto
            hintmask 00010000
            -13 -18 -15 -5 -13 hvcurveto
            -19 -43 -46 -4 -44 hhcurveto
            hintmask 10100100
            -5 -26 rlineto
            41 44 2 17 40 hvcurveto
            -56 -341 rlineto
            -43 -8 -43 -6 -36 hhcurveto
            -39 hlineto
            -79 callgsubr
            hintmask 01000000
            148 4 rlineto
            hintmask 10000000
            56 86 -4 0 hvcurveto
            endchar
          </CharString>
          <CharString index="128">
            -20 rcurveline
            66 callsubr
            3 4 3 3 vhcurveto
            return
          </CharString>
          <CharString index="129">
            53 callsubr
            239 64 20 76 hintmask 0001000000000000
            27 callsubr
            return
          </CharString>
          <CharString index="130">
            193 callgsubr
            -30 hlineto
            -86 0 11 36 6 hvcurveto
            95 566 rlineto
            21 3 -1 1 -14 hhcurveto
            -47 -47 -61 -15 -56 -2 rrcurveto
            -3 -5 0 -2 -2 hvcurveto
            -1 -2 0 -2 -4 -21 rrcurveto
            31 53 6 24 44 hvcurveto
            -88 -527 rlineto
            -35 -6 -4 -12 -86 hhcurveto
            -30 hlineto
            -79 callgsubr
            hintmask 10001000
            146 2 rlineto
            endchar
          </CharString>
          <CharString index="131">
            37 callsubr
            28 585 rmoveto
            12 2 -8 6 -8 hhcurveto
            return
          </CharString>
          <CharString index="132">
            720 -16 18 679 18 return
          </CharString>
          <CharString index="133">
            hhcurveto
            54 callsubr
            return
          </CharString>
          <CharString index="134">
            696 84 rmoveto
            6 1 1 7 -9 hhcurveto
            return
          </CharString>
          <CharString index="135">
            483 39 callsubr
            return
          </CharString>
          <CharString index="136">
            327 303 rmoveto
            2 15 rlineto
            -21 hlineto
            -62 0 7 21 4 hvcurveto
            56 340 rlineto
            13 3 -1 0 -10 hhcurveto
            -33 -28 -45 -9 -40 -1 rrcurveto
            return
          </CharString>
          <CharString index="137">
            2 24 43 0 25 hhcurveto
            return
          </CharString>
          <CharString index="138">
            -24 -20 -19 -22 return
          </CharString>
          <CharString index="139">
            302 193 44 hstemhm
            36 251 -243 251 hintmask 10100000
            287 193 48 callgsubr
          </CharString>
          <CharString index="140">
            -22 -19 -31 hhcurveto
            -22 return
          </CharString>
          <CharString index="141">
            rmoveto
            3 23 rlineto
            -340 hlineto
            -3 -23 rlineto
            endchar
          </CharString>
          <CharString index="142">
            -200 82 118 26 return
          </CharString>
          <CharString index="143">
            -123 49 callgsubr
            return
          </CharString>
          <CharString index="144">
            116 20 -43 85 -67 -26 callgsubr
            -311 hmoveto
            116 20 -43 85 -67 -26 callgsubr
            return
          </CharString>
          <CharString index="145">
            45 callsubr
            25 hhcurveto
            return
          </CharString>
          <CharString index="146">
            691 -80 callgsubr
            return
          </CharString>
          <CharString index="147">
            511 -8 34 375 37 return
          </CharString>
          <CharString index="148">
            -23 22 34 -8 42 hhcurveto
            57 51 40 56 30 hvcurveto
            -16 -96 return
          </CharString>
          <CharString index="149">
            19 -23 hhcurveto
            -22 -22 -18 -23 -4 hvcurveto
            -22 -4 15 -19 23 hhcurveto
            22 22 18 23 4 hvcurveto
            return
          </CharString>
          <CharString index="150">
            -54 callgsubr
            endchar
          </CharString>
          <CharString index="151">
            661 471 rmoveto
            -11 13 -14 -12 -12 -10 -218 -188 rcurveline
            -157 188 -8 10 -10 12 -14 -12 rlinecurve
            -15 -13 10 -12 8 -10 157 -187 rcurveline
            -220 -188 -11 -10 -14 -12 10 -12 rlinecurve
            11 -13 14 12 11 10 return
          </CharString>
          <CharString index="152">
            -121 -77 callsubr
            -89 -534 -84 callsubr
            return
          </CharString>
          <CharString index="153">
            hvcurveto
            9 -11 rlineto
            33 return
          </CharString>
          <CharString index="154">
            -10 15 -17 hhcurveto
            -7 -6 -5 -8 -11 hvcurveto
            -157 -122 rlineto
            -10 152 callsubr
            return
          </CharString>
          <CharString index="155">
            166 callgsubr
            -21 21 return
          </CharString>
          <CharString index="156">
            663 175 callsubr
            -474 -644 -2 -2 -1 -3 -1 -3 rlinecurve
            -9 -1 7 -8 9 hhcurveto
            7 5 3 6 4 hvcurveto
            474 643 2 2 1 3 1 3 rlinecurve
            endchar
          </CharString>
          <CharString index="157">
            hstemhm
            141 20 -14 20 384 20 68 20 return
          </CharString>
          <CharString index="158">
            34 51 131 callgsubr
            return
          </CharString>
          <CharString index="159">
            -2 0 vvcurveto
            9 -12 return
          </CharString>
          <CharString index="160">
            hstemhm
            144 18 -18 64 26 18 return
          </CharString>
          <CharString index="161">
            -55 callsubr
            -2 return
          </CharString>
          <CharString index="162">
            0 -2 29 hvcurveto
            return
          </CharString>
          <CharString index="163">
            hstemhm
            103 76 409 66 0 76 -72 76 return
          </CharString>
          <CharString index="164">
            -79 callgsubr
            -37 callgsubr
            return
          </CharString>
          <CharString index="165">
            26 375 26 -26 37 return
          </CharString>
          <CharString index="166">
            -19 -4 13 -11 17 hhcurveto
            9 9 3 9 8 hvcurveto
            -7 0 -2 -2 -12 vhcurveto
            -7 -45 -22 -42 -39 -37 rrcurveto
            -3 146 callgsubr
          </CharString>
          <CharString index="167">
            955 5 -21 575 26 0 26 -18 26 38 26 return
          </CharString>
          <CharString index="168">
            53 194 79 callgsubr
            return
          </CharString>
          <CharString index="169">
            328 91 callgsubr
            return
          </CharString>
          <CharString index="170">
            24 62 61 -3 76 195 16 153 61 10 16 5 -20 hstemhm
            return
          </CharString>
          <CharString index="171">
            24 4 -16 17 -21 hhcurveto
            return
          </CharString>
          <CharString index="172">
            rlineto
            -38 -6 -5 -5 -64 hhcurveto
            -5 -26 rlineto
            2 25 179 callsubr
            23 hvcurveto
            return
          </CharString>
          <CharString index="173">
            -3 2 -3 3 return
          </CharString>
          <CharString index="174">
            18 callgsubr
            53 callsubr
            return
          </CharString>
          <CharString index="175">
            3 3 3 3 1 hvcurveto
            return
          </CharString>
          <CharString index="176">
            276 -203 16 50 37 501 37 return
          </CharString>
          <CharString index="177">
            hlineto
            57 callsubr
            return
          </CharString>
          <CharString index="178">
            17 callsubr
            hstem
            cntrmask 11100000
            return
          </CharString>
          <CharString index="179">
            79 callsubr
            -40 142 callgsubr
            return
          </CharString>
          <CharString index="180">
            26 callsubr
            -29 return
          </CharString>
          <CharString index="181">
            -20 hstem
            28 callsubr
            return
          </CharString>
          <CharString index="182">
            -20 hstem
            29 callgsubr
            return
          </CharString>
          <CharString index="183">
            18 394 26 185 -20 hstemhm
            165 157 callgsubr
            return
          </CharString>
          <CharString index="184">
            668 13 -21 350 26 10 26 0 26 return
          </CharString>
          <CharString index="185">
            hstemhm
            113 61 callsubr
            return
          </CharString>
          <CharString index="186">
            rmoveto
            -9 11 rlineto
            -33 return
          </CharString>
          <CharString index="187">
            29 46 50 hvcurveto
            endchar
          </CharString>
          <CharString index="188">
            427 251 rmoveto
            102 17 -39 89 -114 hhcurveto
            -106 -101 -101 -123 -21 hvcurveto
            -20 -125 72 -93 101 -7 -42 -30 -36 -40 -7 -44 rrcurveto
            return
          </CharString>
          <CharString index="189">
            -10 -5 -7 -8 -9 hvcurveto
            -83 -71 -82 -9 -41 hhcurveto
            -100 -51 58 18 -16 hvcurveto
            return
          </CharString>
          <CharString index="190">
            163 callsubr
            -23 23 193 67 11 23 return
          </CharString>
          <CharString index="191">
            -55 callsubr
            17 callgsubr
            return
          </CharString>
          <CharString index="192">
            727 20 callgsubr
            return
          </CharString>
          <CharString index="193">
            111 18 33 123 96 hhcurveto
            58 42 -39 -54 5 hvcurveto
            2 -3 -5 1 -4 hhcurveto
            -20 -19 -16 -20 -3 hvcurveto
            -20 -3 13 -16 20 hhcurveto
            return
          </CharString>
          <CharString index="194">
            -1 -3 0 vvcurveto
            return
          </CharString>
          <CharString index="195">
            9 4 5 11 8 hvcurveto
            602 753 9 11 1 1 1 5 rlinecurve
            return
          </CharString>
          <CharString index="196">
            193 callgsubr
            -59 -8 6 48 8 hvcurveto
            return
          </CharString>
          <CharString index="197">
            18 56 18 -18 53 -44 18 return
          </CharString>
          <CharString index="198">
            0 -25 hhcurveto
            -25 return
          </CharString>
          <CharString index="199">
            14 2 -13 12 -12 hhcurveto
            -27 -16 -44 -24 -13 hvcurveto
            -61 -107 16 -8 31 40 34 40 34 39 rlinecurve
            9 11 14 13 2 14 rrcurveto
            return
          </CharString>
          <CharString index="200">
            rmoveto
            -2 29 -12 31 -6 29 rrcurveto
            32 -7 -2 54 -29 hhcurveto
            -13 -15 -11 -14 -3 hvcurveto
            -2 -13 9 -14 6 -11 59 -120 rcurveline
            return
          </CharString>
          <CharString index="201">
            rlineto
            -80 139 callsubr
            return
          </CharString>
          <CharString index="202">
            74 hintmask 01101000
            716 336 rmoveto
            189 32 -101 158 -163 176 callgsubr
            return
          </CharString>
          <CharString index="203">
            hlineto
            128 302 4 10 2 5 1 3 rlinecurve
            10 1 -6 8 -10 hhcurveto
            -14 -6 -14 -8 -3 hvcurveto
            -133 -316 rlineto
            return
          </CharString>
          <CharString index="204">
            rlineto
            -265 hlineto
            -14 -17 0 -17 -3 hvcurveto
            -18 -3 16 0 15 hhcurveto
            return
          </CharString>
          <CharString index="205">
            121 callsubr
            hstemhm
            return
          </CharString>
          <CharString index="206">
            -49 callsubr
            -1 3 -3 3 hhcurveto
            68 callsubr
            3 20 return
          </CharString>
          <CharString index="207">
            14 -12 22 hhcurveto
            36 30 80 callsubr
          </CharString>
          <CharString index="208">
            16 callgsubr
            hintmask 10100000
            -18 callsubr
            return
          </CharString>
          <CharString index="209">
            694 -15 26 614 26 6 24 -24 26 return
          </CharString>
          <CharString index="210">
            406 -8 18 269 71 74 18 return
          </CharString>
          <CharString index="211">
            668 -16 26 663 26 return
          </CharString>
          <CharString index="212">
            -20 73 callgsubr
            return
          </CharString>
          <CharString index="213">
            18 29 0 -1 8 hvcurveto
            return
          </CharString>
          <CharString index="214">
            hhcurveto
            -318 117 callgsubr
            return
          </CharString>
          <CharString index="215">
            86 -1 3 16 rlineto
            -14 hlineto
            -50 0 6 21 3 hvcurveto
            10 59 rlineto
            86 561 rmoveto
            10 1 -6 7 -10 hhcurveto
            return
          </CharString>
          <CharString index="216">
            rlineto
            9 -3 0 1 -13 hhcurveto
            -77 hlineto
            -2 -16 rlineto
            42 6 0 -27 -5 hvcurveto
            -51 -308 rlineto
            -15 -3 -4 return
          </CharString>
          <CharString index="217">
            hintmask 0000000100000000
            7 42 rlineto
            hintmask 0010001000000000
            17 3 0 4 -9 hhcurveto
            hintmask 0000000100000000
            -9 0 -4 -17 -3 hvcurveto
            return
          </CharString>
          <CharString index="218">
            rmoveto
            4 23 rlineto
            -188 hlineto
            -4 -23 rlineto
            return
          </CharString>
          <CharString index="219">
            hhcurveto
            100 115 88 136 23 hvcurveto
            -64 return
          </CharString>
          <CharString index="220">
            99 -21 176 -20 hstemhm
            return
          </CharString>
          <CharString index="221">
            95 98 callsubr
            return
          </CharString>
          <CharString index="222">
            149 callgsubr
            90 539 rlineto
            45 7 11 0 69 hhcurveto
            5 26 rlineto
            return
          </CharString>
          <CharString index="223">
            146 125 callsubr
            return
          </CharString>
          <CharString index="224">
            4 -18 5 rrcurveto
            6 -18 -28 8 -21 hhcurveto
            -35 -6 -28 -5 -1 hvcurveto
            -13 -2 2 -21 31 hhcurveto
            21 return
          </CharString>
          <CharString index="225">
            -3 -19 20 hhcurveto
            20 3 19 14 return
          </CharString>
          <CharString index="226">
            693 35 callsubr
            return
          </CharString>
          <CharString index="227">
            rcurveline
            -114 49 callgsubr
            return
          </CharString>
          <CharString index="228">
            -21 184 -20 return
          </CharString>
          <CharString index="229">
            196 132 -90 callgsubr
            return
          </CharString>
          <CharString index="230">
            hstemhm
            132 61 173 61 -31 61 -19 61 -57 61 172 18 25 18 104 18 -9 18 return
          </CharString>
          <CharString index="231">
            459 rmoveto
            22 3 180 callsubr
            -3 hvcurveto
            -22 -4 15 -19 23 hhcurveto
            return
          </CharString>
          <CharString index="232">
            -20 9 callsubr
            return
          </CharString>
          <CharString index="233">
            657 144 rmoveto
            -18 hlineto
            -69 -11 -57 -62 -65 hhcurveto
            -65 -43 43 41 -44 hvcurveto
            1 2 return
          </CharString>
          <CharString index="234">
            837 0 26 39 26 224 26 316 26 return
          </CharString>
          <CharString index="235">
            511 0 26 375 26 -5 16 return
          </CharString>
          <CharString index="236">
            59 43 58 74 13 hvcurveto
            return
          </CharString>
          <CharString index="237">
            152 callsubr
            vvcurveto
            return
          </CharString>
          <CharString index="238">
            hlineto
            -2 -16 rlineto
            43 7 0 -28 -5 hvcurveto
            -56 -337 rlineto
            -27 -5 -7 0 -43 hhcurveto
            return
          </CharString>
          <CharString index="239">
            rlineto
            27 5 7 0 41 hhcurveto
            2 16 rlineto
            -76 hlineto
            -13 0 -1 -9 -5 hvcurveto
            -189 return
          </CharString>
          <CharString index="240">
            -9 0 52 callsubr
            169 133 14 11 3 2 2 11 rlinecurve
            endchar
          </CharString>
          <CharString index="241">
            39 235 rlineto
            return
          </CharString>
          <CharString index="242">
            459 -80 -21 93 16 418 16 90 -20 return
          </CharString>
          <CharString index="243">
            720 -33 -21 38 16 683 16 38 -20 return
          </CharString>
          <CharString index="244">
            26 316 26 289 26 return
          </CharString>
          <CharString index="245">
            0 202 callgsubr
            return
          </CharString>
          <CharString index="246">
            hlineto
            -5 -26 rlineto
            return
          </CharString>
          <CharString index="247">
            406 -211 47 157 17 208 17 0 15 -15 16 175 16 return
          </CharString>
          <CharString index="248">
            -14 12 -22 hhcurveto
            -36 -30 -29 -46 return
          </CharString>
          <CharString index="249">
            0 137 callsubr
            return
          </CharString>
          <CharString index="250" raw="1">
            6e5d591f 0b  
          </CharString>
          <CharString index="251">
            70 -35 78 -78 85 -82 78 116 76 -39 76 -37 70 hintmask 0000000000000010
            return
          </CharString>
          <CharString index="252">
            26 232 207 callsubr
            56 callsubr
            return
          </CharString>
          <CharString index="253">
            26 647 26 48 callsubr
            return
          </CharString>
          <CharString index="254">
            -12 callsubr
            90 541 rlineto
            45 8 return
          </CharString>
          <CharString index="255">
            rmoveto
            18 3 -17 0 -17 hhcurveto
            -559 hlineto
            return
          </CharString>
          <CharString index="256">
            -1 4 -4 4 hhcurveto
            return
          </CharString>
          <CharString index="257">
            0 -2 27 hvcurveto
            return
          </CharString>
          <CharString index="258">
            rmoveto
            0 0 2 return
          </CharString>
          <CharString index="259">
            -8 0 -2 0 return
          </CharString>
          <CharString index="260">
            -55 16 370 16 0 16 263 16 76 16 -1 16 hstemhm
            return
          </CharString>
          <CharString index="261">
            -6 -36 -14 -84 -47 -86 -86 -69 rlinecurve
            -39 -30 -13 -42 -5 -28 return
          </CharString>
          <CharString index="262">
            -123 -545 rmoveto
            -174 hlineto
            212 231 rlineto
            endchar
          </CharString>
          <CharString index="263">
            471 -16 16 71 85 501 26 return
          </CharString>
          <CharString index="264">
            72 -28 72 8 72 hintmask 01110100
            return
          </CharString>
          <CharString index="265">
            hstemhm
            127 48 327 48 return
          </CharString>
          <CharString index="266">
            16 177 23 198 23 return
          </CharString>
          <CharString index="267">
            28 callgsubr
            32 return
          </CharString>
          <CharString index="268">
            462 426 16 71 -20 return
          </CharString>
          <CharString index="269">
            439 -21 194 82 hstem
            return
          </CharString>
          <CharString index="270">
            hstemhm
            171 67 -1 67 return
          </CharString>
          <CharString index="271">
            -6 -6 -3 -5 -4 hvcurveto
            return
          </CharString>
          <CharString index="272">
            0 25 hhcurveto
            25 return
          </CharString>
          <CharString index="273">
            -28 17 -40 hhcurveto
            hintmask 00100000
            -25 -27 -8 -10 -24 hvcurveto
            hintmask 01000000
            return
          </CharString>
          <CharString index="274">
            177 callsubr
            -2 return
          </CharString>
          <CharString index="275">
            -3 -2 -3 -1 hvcurveto
            -6 -14 rlineto
            -4 -2 2 -3 4 hhcurveto
            return
          </CharString>
          <CharString index="276">
            -21 -43 rlineto
            -144 hlineto
            -5 43 rlineto
            137 -69 rmoveto
            -98 return
          </CharString>
          <CharString index="277">
            35 rlineto
            -94 hlineto
            155 928 rlineto
            94 hlineto
            6 35 rlineto
            return
          </CharString>
          <CharString index="278">
            -11 rlineto
            33 39 return
          </CharString>
          <CharString index="279">
            -3 hvcurveto
            -20 -4 return
          </CharString>
          <CharString index="280">
            69 callgsubr
            hstemhm
            43 36 return
          </CharString>
          <CharString index="281">
            hhcurveto
            -22 -22 -15 -26 -4 hvcurveto
            -26 -4 16 -15 22 hhcurveto
            return
          </CharString>
          <CharString index="282">
            rmoveto
            10 1 -6 7 -10 hhcurveto
            164 callsubr
            return
          </CharString>
          <CharString index="283">
            55 335 rlineto
            147 hlineto
            43 7 -9 -44 -7 hvcurveto
            return
          </CharString>
          <CharString index="284">
            rlineto
            74 callgsubr
            114 callgsubr
            return
          </CharString>
          <CharString index="285">
            35 rmoveto
            -82 hlineto
            155 928 rlineto
            82 hlineto
            endchar
          </CharString>
          <CharString index="286">
            44 0 26 hhcurveto
            26 45 0 -2 return
          </CharString>
          <CharString index="287">
            -15 19 -23 hhcurveto
            -22 -22 -18 -23 return
          </CharString>
          <CharString index="288">
            459 517 28 return
          </CharString>
          <CharString index="289">
            hlineto
            19 117 rlineto
            return
          </CharString>
          <CharString index="290">
            121 callsubr
            hstem
            return
          </CharString>
          <CharString index="291">
            58 -37 58 -51 55 -4 58 -14 58 hintmask 0011001000000000
            return
          </CharString>
          <CharString index="292">
            0 26 -22 23 370 26 0 23 20 -20 hstemhm
            return
          </CharString>
          <CharString index="293">
            hlineto
            3 3 1 3 1 hvcurveto
            7 16 rlineto
            3 1 return
          </CharString>
          <CharString index="294">
            35 callgsubr
            -12 0 -72 hhcurveto
            -4 -26 return
          </CharString>
          <CharString index="295">
            -61 callgsubr
            17 -17 21 hhcurveto
            return
          </CharString>
          <CharString index="296">
            -229 -21 1000 -20 return
          </CharString>
          <CharString index="297">
            -246 28 146 -20 return
          </CharString>
          <CharString index="298">
            -17 -17 0 -18 -3 hvcurveto
            return
          </CharString>
          <CharString index="299">
            rlineto
            298 hlineto
            return
          </CharString>
          <CharString index="300">
            44 263 rlineto
            return
          </CharString>
          <CharString index="301">
            18 hlineto
            103 122 0 76 12 hvcurveto
            48 8 return
          </CharString>
          <CharString index="302">
            -1 -3 hhcurveto
            -5 -1 -3 0 -1 -5 rrcurveto
            -4 return
          </CharString>
          <CharString index="303">
            520 171 callgsubr
            20 23 135 -20 return
          </CharString>
          <CharString index="304">
            hlineto
            14 17 0 17 3 hvcurveto
            return
          </CharString>
          <CharString index="305">
            -21 158 -20 hstemhm
            return
          </CharString>
          <CharString index="306">
            459 537 -21 return
          </CharString>
          <CharString index="307">
            16 167 16 vstem
            return
          </CharString>
          <CharString index="308">
            -6 -7 -1 hvcurveto
            return
          </CharString>
          <CharString index="309">
            43 -25 43 -8 43 -25 43 hstemhm
            hintmask 10010000
            return
          </CharString>
          <CharString index="310">
            693 85 callsubr
            return
          </CharString>
          <CharString index="311">
            693 -16 18 97 18 -1 18 13 18 return
          </CharString>
          <CharString index="312">
            693 142 callsubr
            return
          </CharString>
          <CharString index="313">
            0 55 252 26 -26 62 71 26 hstemhm
            return
          </CharString>
          <CharString index="314">
            26 405 26 return
          </CharString>
        <CharString name=".notdef">
          280 endchar
        </CharString>
        <CharString name="A">
          4 callsubr
          hstem
          -107 callsubr
          endchar
        </CharString>
        <CharString name="AE">
          127 callsubr
          hstem
          675 18 -18 61 -18 18 cntrmask 00001110
          56 callgsubr
          52 callgsubr
          -24 callsubr
          166 hlineto
          25 callgsubr
          endchar
        </CharString>
        <CharString name="AE.dup">
          127 callsubr
          123 callsubr
          hintmask 1100001000010000
          56 callgsubr
          hintmask 0010000101100000
          52 callgsubr
          hintmask 1111110010001000
          -24 callsubr
          hintmask 0010000100000000
          166 hlineto
          hintmask 1010001000010000
          25 callgsubr
          hintmask 0010000010000000
          endchar
        </CharString>
        <CharString name="AEacute">
          127 callsubr
          75 -21 158 -20 123 callsubr
          hintmask 1100000010000100
          56 callgsubr
          hintmask 0010000001011000
          52 callgsubr
          hintmask 1111001100100010
          -24 callsubr
          hintmask 0010000001000000
          166 hlineto
          hintmask 1010000010000100
          25 callgsubr
          hintmask 0010000000100000
          hintmask 0000110000000000
          205 254 -101 callsubr
        </CharString>
        <CharString name="Aacute">
          4 callsubr
          71 -21 158 -104 callsubr
          195 252 -101 callsubr
        </CharString>
        <CharString name="Abreve">
          4 callsubr
          50 28 146 -104 callsubr
          212 300 -11 callsubr
        </CharString>
        <CharString name="Abreveacute">
          4 callsubr
          50 28 324 -104 callsubr
          212 300 rmoveto
          -16 hlineto
          -89 -17 -67 -57 -64 hhcurveto
          -64 -47 -83 callsubr
          -18 146 rmoveto
          17 5 -11 15 -17 hhcurveto
          -7 -5 -5 -8 -12 hvcurveto
          -156 -122 rlineto
          -10 -8 -1 -2 0 vvcurveto
          0 5 -11 1 -2 vhcurveto
          186 105 15 9 3 1 4 11 rlinecurve
          endchar
        </CharString>
        <CharString name="Abrevedotbelow">
          119 callsubr
          215 26 440 -20 50 28 146 -20 hstemhm
          279 81 hintmask 01111100
          -107 callsubr
          212 300 rmoveto
          -16 hlineto
          -89 -17 -67 -57 -64 hhcurveto
          -64 -47 -83 callsubr
          hintmask 10000010
          -277 -1070 -98 callsubr
          endchar
        </CharString>
        <CharString name="Abrevegrave">
          4 callsubr
          50 28 146 -104 callsubr
          212 300 rmoveto
          -16 hlineto
          -89 -17 -67 -57 -64 hhcurveto
          -64 -47 -83 callsubr
          -36 33 rmoveto
          0 -9 -11 -1 -2 vhcurveto
          -150 105 rlineto
          -13 9 -3 1 11 vvcurveto
          17 15 15 17 8 5 -5 -8 8 vhcurveto
          116 -122 rlineto
          8 -8 -1 -2 0 vvcurveto
          endchar
        </CharString>
        <CharString name="Abrevehookabove">
          4 callsubr
          50 28 360 -104 callsubr
          212 300 rmoveto
          -16 hlineto
          -89 -17 -67 -57 -64 hhcurveto
          -64 -47 -83 callsubr
          -24 148 rmoveto
          4 20 -7 18 -15 11 rrcurveto
          13 -17 -23 4 -28 hhcurveto
          -44 -43 -27 -39 -8 hvcurveto
          -16 -2 10 -9 13 hhcurveto
          14 13 9 16 3 hvcurveto
          15 3 -10 10 -14 hhcurveto
          -7 -1 rlineto
          19 16 169 callgsubr
          -4 -20 -2 99 callsubr
          5 32 30 26 42 21 rlinecurve
          18 9 13 16 3 18 rrcurveto
          endchar
        </CharString>
        <CharString name="Abrevetilde">
          693 951 -4 callsubr
          212 300 rmoveto
          -16 hlineto
          -89 -17 -67 -57 -64 hhcurveto
          -64 -47 -83 callsubr
          37 115 -20 callsubr
        </CharString>
        <CharString name="Acaron">
          4 callsubr
          61 -21 133 -104 callsubr
          213 233 -46 callsubr
        </CharString>
        <CharString name="Acircumflex">
          4 callsubr
          61 -21 133 -104 callsubr
          122 callsubr
          endchar
        </CharString>
        <CharString name="Acircumflexacute">
          4 callsubr
          61 -21 311 -104 callsubr
          196 132 -62 callgsubr
        </CharString>
        <CharString name="Acircumflexdotbelow">
          119 callsubr
          215 26 440 -20 61 -21 133 -20 hstemhm
          279 81 hintmask 01111100
          -107 callsubr
          122 callsubr
          hintmask 10000010
          -246 -886 -98 callsubr
          endchar
        </CharString>
        <CharString name="Acircumflexgrave">
          4 callsubr
          61 -21 133 -104 callsubr
          196 132 -70 callgsubr
        </CharString>
        <CharString name="Acircumflexhookabove">
          4 callsubr
          61 -21 347 -104 callsubr
          122 callsubr
          89 281 -97 callsubr
          9 hvcurveto
          7 -8 0 -12 -3 -20 -2 -14 -7 -12 -11 -7 -32 -24 -24 -31 -5 -34 -4 21 callsubr
          4 20 5 -41 callsubr
        </CharString>
        <CharString name="Acircumflextilde">
          693 900 -4 callsubr
          196 132 -78 callgsubr
        </CharString>
        <CharString name="Adblgrave">
          4 callsubr
          71 -21 183 -104 callsubr
          131 136 rmoveto
          -39 callsubr
          -157 hmoveto
          -39 callsubr
          endchar
        </CharString>
        <CharString name="Adieresis">
          4 callsubr
          40 73 hstemhm
          359 72 84 72 hintmask 11100000
          -107 callsubr
          hintmask 00011100
          6 153 -76 callgsubr
        </CharString>
        <CharString name="Adotbelow">
          119 callsubr
          215 26 440 -20 hstemhm
          279 81 hintmask 01110000
          -107 callsubr
          hintmask 10001000
          -65 -770 -98 callsubr
          endchar
        </CharString>
        <CharString name="Agrave">
          4 callsubr
          71 -21 158 -104 callsubr
          112 139 -75 callsubr
        </CharString>
        <CharString name="Ahookabove">
          4 callsubr
          77 -21 214 -104 callsubr
          161 280 -97 callsubr
          8 hvcurveto
          8 -8 0 -12 -3 -20 -3 -14 -7 -12 -10 -7 -32 -24 -24 -31 -6 -34 -3 21 callsubr
          3 20 6 -41 callsubr
        </CharString>
        <CharString name="Alpha">
          4 callsubr
          hstem
          -107 callsubr
          endchar
        </CharString>
        <CharString name="Amacron">
          4 callsubr
          60 23 -105 callgsubr
          hintmask 00010000
          215 136 -19 callgsubr
        </CharString>
        <CharString name="Aogonek">
          145 callgsubr
          hstemhm
          23 166 -162 166 232 48 5 48 hintmask 1101000010000000
          651 -115 rmoveto
          -53 callgsubr
          3 16 8 15 13 14 rrcurveto
          24 22 21 28 29 hhcurveto
          hintmask 0010010101000000
          26 50 0 -2 24 hvcurveto
          -55 callsubr
          -53 -18 0 37 -6 hvcurveto
          -118 628 rlineto
          13 -3 -1 3 -10 hhcurveto
          -10 -3 -3 -13 -7 hvcurveto
          -312 -600 rlineto
          -54 -28 -42 -11 -35 hhcurveto
          hintmask 0010001000000000
          -79 callgsubr
          hintmask 0001000000000000
          2 18 40 0 19 hhcurveto
          hintmask 0010001000000000
          25 40 0 -2 24 hvcurveto
          hintmask 0010100101000000
          4 26 -46 2 -2 32 2 12 rlinecurve
          2 9 2 5 3 6 78 149 rcurveline
          262 hlineto
          32 -170 3 -12 0 -2 -1 -4 rlinecurve
          -27 -5 -43 0 -19 -66 callgsubr
          hintmask 1101100010000000
          1 16 24 1 23 hhcurveto
          -52 -33 -39 -38 -8 -52 -11 callgsubr
          -161 382 rmoveto
          -244 hlineto
          179 344 rlineto
          endchar
        </CharString>
        <CharString name="Aogonekacute">
          145 callgsubr
          71 198 callsubr
          23 166 -162 166 232 48 5 48 hintmask 1101000000100000
          651 -115 rmoveto
          -53 callgsubr
          3 16 8 15 13 14 rrcurveto
          24 22 21 28 29 hhcurveto
          hintmask 0010010001010000
          26 50 0 -2 24 hvcurveto
          -55 callsubr
          -53 -18 0 37 -6 hvcurveto
          -118 628 rlineto
          13 -3 -1 3 -10 hhcurveto
          -10 -3 -3 -13 -7 hvcurveto
          -312 -600 rlineto
          -54 -28 -42 -11 -35 hhcurveto
          hintmask 0010000010000000
          -79 callgsubr
          hintmask 0001000000000000
          2 18 40 0 19 hhcurveto
          hintmask 0010000010000000
          25 40 0 -2 24 hvcurveto
          hintmask 0010100001010000
          4 26 -46 2 -2 32 2 12 rlinecurve
          2 9 2 5 3 6 78 149 rcurveline
          262 hlineto
          32 -170 3 -12 0 -2 -1 -4 rlinecurve
          -27 -5 -43 0 -19 -66 callgsubr
          hintmask 1101100000100000
          1 16 24 1 23 hhcurveto
          -52 -33 -39 -38 -8 -52 -11 callgsubr
          -161 382 rmoveto
          -244 hlineto
          179 344 rlineto
          hintmask 0000001100000000
          195 252 -101 callsubr
        </CharString>
        <CharString name="Aring">
          693 0 43 callgsubr
          171 callgsubr
          hstemhm
          436 25 -21 25 hintmask 11101000
          -107 callsubr
          hintmask 00110100
          116 184 -45 callsubr
        </CharString>
        <CharString name="Aringacute">
          693 0 43 callgsubr
          171 callgsubr
          20 23 135 -20 hstemhm
          436 25 -21 25 hintmask 11100010
          -107 callsubr
          hintmask 00111101
          116 184 -75 callgsubr
          49 234 rmoveto
          17 5 47 callsubr
          0 5 -11 -2 vvcurveto
          186 105 15 9 4 1 3 11 rlinecurve
          endchar
        </CharString>
        <CharString name="Atilde">
          693 727 -4 callsubr
          212 191 -93 callsubr
        </CharString>
        <CharString name="B">
          -17 callsubr
        </CharString>
        <CharString name="Beta">
          -17 callsubr
        </CharString>
        <CharString name="C">
          104 callsubr
          hstem
          103 76 479 76 vstem
          -74 callsubr
          -208 -35 130 -150 172 hhcurveto
          153 118 135 115 19 hvcurveto
          endchar
        </CharString>
        <CharString name="Cacute">
          104 callsubr
          59 198 callsubr
          103 76 479 76 hintmask 11001100
          -74 callsubr
          -208 -35 130 -150 172 hhcurveto
          153 118 135 115 19 hvcurveto
          hintmask 00110000
          -19 629 -101 callsubr
        </CharString>
        <CharString name="Ccaron">
          104 callsubr
          49 -21 133 -20 hstemhm
          103 76 479 76 hintmask 11001100
          -74 callsubr
          -208 -35 130 -150 172 hhcurveto
          153 118 135 115 19 hvcurveto
          hintmask 00110000
          -1 610 -46 callsubr
        </CharString>
        <CharString name="Ccedilla">
          104 callsubr
          hstem
          103 76 479 76 vstem
          -74 callsubr
          -33 -198 117 -146 159 -13 -8 -51 rcurveline
          23 callgsubr
          48 8 -46 28 -53 hhcurveto
          5 32 147 7 112 131 19 112 rlinecurve
          endchar
        </CharString>
        <CharString name="Ccircumflex">
          104 callsubr
          49 -21 133 -20 hstemhm
          103 76 479 76 hintmask 11001100
          -74 callsubr
          -208 -35 130 -150 172 hhcurveto
          153 118 135 115 19 hvcurveto
          hintmask 00110000
          -18 509 -33 callsubr
        </CharString>
        <CharString name="Cdotaccent">
          104 callsubr
          44 82 hstemhm
          103 76 278 81 120 76 hintmask 11010100
          -74 callsubr
          -208 -35 130 -150 172 hhcurveto
          153 118 135 115 19 hvcurveto
          hintmask 00101000
          -122 550 -37 callsubr
        </CharString>
        <CharString name="Chi">
          -33 callgsubr
        </CharString>
        <CharString name="D">
          707 91 callgsubr
          hstem
          642 74 vstem
          -51 callsubr
          endchar
        </CharString>
        <CharString name="Dcaron">
          707 91 callgsubr
          143 callgsubr
          642 74 hintmask 11001000
          -51 callsubr
          hintmask 00110000
          -56 508 -46 callsubr
        </CharString>
        <CharString name="Dcroat">
          -15 callsubr
        </CharString>
        <CharString name="Ddotbelow">
          707 35 callsubr
          631 26 hstemhm
          226 81 335 74 hintmask 01101000
          -51 callsubr
          hintmask 10010000
          -335 -495 -98 callsubr
          endchar
        </CharString>
        <CharString name="Delta">
          772 0 56 651 -20 hstem
          38 697 vstem
          735 5 rmoveto
          0 -2 10 -1 2 vhcurveto
          -211 673 rlineto
          17 -5 -4 0 -8 hhcurveto
          -12 -1 -2 -14 -10 hvcurveto
          -436 -674 rlineto
          -1 -2 -6 -10 0 vvcurveto
          -4 -1 1 -1 18 hhcurveto
          659 hlineto
          18 1 1 4 1 hvcurveto
          -88 51 rmoveto
          -555 hlineto
          374 575 rlineto
          endchar
        </CharString>
        <CharString name="Dlinebelow">
          707 -170 23 147 26 631 26 hstemhm
          642 74 hintmask 01110000
          -51 callsubr
          hintmask 10000000
          -206 -506 34 callsubr
        </CharString>
        <CharString name="E">
          12 callsubr
          136 callgsubr
          hintmask 11111100
          -99 callsubr
          hintmask 10100010
          -89 callsubr
          520 hlineto
          hintmask 00000100
          endchar
        </CharString>
        <CharString name="Eacute">
          12 callsubr
          77 -21 158 -100 callgsubr
          17 863 -101 callsubr
        </CharString>
        <CharString name="Ebreve">
          12 callsubr
          56 28 146 -100 callgsubr
          34 911 -11 callsubr
        </CharString>
        <CharString name="Ecaron">
          12 callsubr
          67 -21 133 -100 callgsubr
          35 844 -46 callsubr
        </CharString>
        <CharString name="Ecircumflex">
          12 callsubr
          67 -21 133 -16 callsubr
          endchar
        </CharString>
        <CharString name="Ecircumflexacute">
          12 callsubr
          67 -21 311 -16 callsubr
          5 279 rmoveto
          17 4 47 callsubr
          vvcurveto
          0 5 -11 1 -2 vhcurveto
          185 105 16 9 3 1 4 11 rlinecurve
          endchar
        </CharString>
        <CharString name="Ecircumflexdotbelow">
          628 35 callsubr
          315 26 288 26 67 -21 133 -20 hstemhm
          246 81 104 15 callsubr
          hintmask 0111000111000000
          -99 callsubr
          hintmask 0101000000100000
          -89 callsubr
          520 hlineto
          hintmask 0000110001000000
          67 callgsubr
          hintmask 1000001000000000
          -247 -886 -98 callsubr
          endchar
        </CharString>
        <CharString name="Ecircumflexgrave">
          12 callsubr
          67 -21 133 -16 callsubr
          -13 166 rmoveto
          0 -9 -11 -1 -2 vhcurveto
          -151 105 rlineto
          -12 9 -3 1 11 vvcurveto
          17 -1 16 15 17 hhcurveto
          8 4 -5 -8 9 hvcurveto
          115 -122 rlineto
          8 130 callsubr
          endchar
        </CharString>
        <CharString name="Ecircumflexhookabove">
          12 callsubr
          67 -21 347 -16 callsubr
          89 281 -97 callsubr
          9 hvcurveto
          7 -8 0 -12 -3 -20 -2 -14 -7 -12 -11 -7 -32 -24 -24 -31 -5 -34 -4 21 callsubr
          4 20 5 -41 callsubr
        </CharString>
        <CharString name="Ecircumflextilde">
          628 900 34 -8 34 -8 34 136 callgsubr
          cntrmask 11100000
          hintmask 11111100
          -99 callsubr
          hintmask 11100010
          -89 callsubr
          520 hlineto
          hintmask 11100100
          hintmask 11100000
          18 743 -78 callgsubr
        </CharString>
        <CharString name="Edblgrave">
          12 callsubr
          77 -21 183 -100 callgsubr
          -21 747 rmoveto
          -39 callsubr
          -157 hmoveto
          -39 callsubr
          endchar
        </CharString>
        <CharString name="Edieresis">
          12 callsubr
          46 73 hstemhm
          327 72 32 18 26 18 -10 72 76 18 -9 18 hintmask 1110011010000000
          -99 callsubr
          hintmask 1010000001000000
          -89 callsubr
          520 hlineto
          hintmask 0000000010000000
          hintmask 0001100100000000
          -172 764 -76 callgsubr
        </CharString>
        <CharString name="Edotaccent">
          12 callsubr
          62 82 hstemhm
          404 81 -54 15 callsubr
          hintmask 1110011100000000
          -101 callgsubr
          hintmask 1010100010000000
          137 hlineto
          -73 callgsubr
          -86 784 -37 callsubr
        </CharString>
        <CharString name="Edotbelow">
          628 35 callsubr
          315 26 288 26 hstemhm
          246 81 104 15 callsubr
          hintmask 0111011100000000
          -99 callsubr
          hintmask 0101000010000000
          -74 callgsubr
          hintmask 1000100000000000
          -244 -159 -98 callsubr
          endchar
        </CharString>
        <CharString name="Egrave">
          12 callsubr
          77 -21 158 -100 callgsubr
          -66 750 -75 callsubr
        </CharString>
        <CharString name="Ehookabove">
          12 callsubr
          83 -21 214 -100 callgsubr
          -17 891 -97 callsubr
          8 hvcurveto
          8 -8 0 -12 -3 -20 -3 -14 -7 -12 -10 -7 -32 -24 -24 -31 -6 -34 -3 21 callsubr
          3 20 6 -41 callsubr
        </CharString>
        <CharString name="Emacron">
          12 callsubr
          66 23 136 callgsubr
          hintmask 11101110
          -99 callsubr
          hintmask 10100001
          -89 callsubr
          520 hlineto
          hintmask 00000010
          hintmask 00010000
          37 747 -19 callgsubr
        </CharString>
        <CharString name="Eng">
          693 -16 72 -56 26 -24 18 637 26 -2 18 hstemhm
          143 66 -52 76 -24 76 144 66 151 76 hintmask 0000100000000000
          722 342 rmoveto
          185 31 -83 172 -172 hhcurveto
          -77 -74 -41 -62 -51 hvcurveto
          hintmask 0001000000000000
          15 87 rlineto
          hintmask 0000100000000000
          -1 -11 -11 -1 -11 hhcurveto
          hintmask 0001001000000000
          -34 -51 0 2 -32 -40 callgsubr
          72 12 0 -45 -8 hvcurveto
          hintmask 0100010000000000
          187 callsubr
          rlineto
          hintmask 0010000000000000
          2 32 51 0 34 hhcurveto
          hintmask 0100100111000000
          34 51 0 -2 32 13 callgsubr
          82 491 rlineto
          70 46 77 49 81 hhcurveto
          147 32 -172 -167 -28 hvcurveto
          -24 -142 -27 -163 -98 -30 rrcurveto
          hintmask 0010000000000000
          2 4 2 4 5 vvcurveto
          hintmask 1000000000000000
          20 4 -14 16 -20 hhcurveto
          hintmask 0010000010000000
          -20 -18 -16 -20 -4 hvcurveto
          hintmask 1000000001000000
          -20 -3 13 -16 20 hhcurveto
          151 83 183 175 29 hvcurveto
          endchar
        </CharString>
        <CharString name="Eogonek">
          154 callgsubr
          151 callgsubr
          hintmask 0011111110100000
          -101 callgsubr
          hintmask 1110110101010000
          13 callsubr
          hintmask 0000000000100000
          endchar
        </CharString>
        <CharString name="Eogonekacute">
          154 callgsubr
          77 -21 158 -20 151 callgsubr
          hintmask 0011100111101000
          -101 callgsubr
          hintmask 1110100101010100
          13 callsubr
          hintmask 0000000000001000
          hintmask 0000011000000000
          17 863 -101 callsubr
        </CharString>
        <CharString name="Epsilon">
          12 callsubr
          136 callgsubr
          hintmask 11111100
          -99 callsubr
          hintmask 10100010
          -89 callsubr
          520 hlineto
          hintmask 00000100
          endchar
        </CharString>
        <CharString name="Ereversed">
          12 callsubr
          hstem
          93 18 43 18 111 18 26 18 266 18 vstem
          607 115 callsubr
          -506 hlineto
          -61 -221 rlineto
          18 hlineto
          133 36 28 62 155 hhcurveto
          137 hlineto
          40 1 -5 -34 -5 hvcurveto
          -42 -249 rlineto
          -94 hlineto
          -94 -3 34 83 14 hvcurveto
          -18 hlineto
          -44 -260 rlineto
          18 hlineto
          83 14 15 34 94 hhcurveto
          94 hlineto
          -46 -276 rlineto
          -34 -6 -3 -5 -40 hhcurveto
          -139 hlineto
          -176 1 80 147 2 hvcurveto
          -18 hlineto
          -6 -253 rlineto
          endchar
        </CharString>
        <CharString name="Eta">
          205 callsubr
          hstem
          46 callgsubr
          208 66 24 66 vstem
          -95 callgsubr
          endchar
        </CharString>
        <CharString name="Eth">
          -15 callsubr
        </CharString>
        <CharString name="Etilde">
          628 727 34 -8 34 -8 34 136 callgsubr
          cntrmask 11100000
          hintmask 11111100
          -99 callsubr
          hintmask 11100010
          -89 callsubr
          520 hlineto
          hintmask 11100100
          hintmask 11110000
          34 802 -93 callsubr
        </CharString>
        <CharString name="Euro">
          589 -16 26 267 26 78 26 266 26 hstemhm
          161 76 283 76 -62 76 hintmask 11111010
          534 -10 rmoveto
          27 158 rlineto
          3 -2 3 -3 vhcurveto
          -8 hlineto
          -3 -3 -2 -3 -1 hvcurveto
          -74 -20 -62 -65 -71 hhcurveto
          -64 -48 40 54 -25 hvcurveto
          -24 52 -4 60 5 61 rrcurveto
          266 186 callsubr
          -2 3 -4 hhcurveto
          -272 hlineto
          6 39 7 39 rlineto
          297 186 callsubr
          -3 3 -3 hhcurveto
          -300 hlineto
          15 60 23 60 42 52 rrcurveto
          54 43 62 40 64 hhcurveto
          71 40 -65 -74 -5 hvcurveto
          -3 2 -2 3 vhcurveto
          8 hlineto
          3 4 3 3 hvcurveto
          27 158 rlineto
          4 -2 2 -3 vhcurveto
          -3 hlineto
          -2 -2 -1 -1 -1 hvcurveto
          hintmask 11111100
          -43 -51 rlineto
          33 -24 -36 20 -46 hhcurveto
          -77 -75 -44 -61 -57 hvcurveto
          -50 -55 -35 -65 -20 -67 rrcurveto
          -48 hlineto
          -3 168 callsubr
          50 hlineto
          -3 -13 -3 -13 -2 -13 -2 -13 -2 -13 -1 -13 rrcurveto
          -46 hlineto
          -2 168 callsubr
          52 hlineto
          -2 -68 13 -65 32 -55 rrcurveto
          -61 36 61 -44 77 hhcurveto
          45 44 21 32 34 hvcurveto
          26 -50 rlineto
          -2 1 2 -1 2 hhcurveto
          2 hlineto
          hintmask 00000010
          4 3 3 3 hvcurveto
          endchar
        </CharString>
        <CharString name="F">
          602 0 26 302 26 301 26 hstemhm
          143 66 -42 66 46 18 127 18 26 18 141 18 hintmask 0010100000000000
          645 460 rmoveto
          13 221 rlineto
          -493 139 callsubr
          69 11 0 -45 -7 hvcurveto
          hintmask 1001000000000000
          -45 callgsubr
          hintmask 1000110000000000
          2 29 56 0 31 hhcurveto
          41 112 callgsubr
          hintmask 0111001110000000
          -76 0 10 36 6 hvcurveto
          43 256 rlineto
          90 hlineto
          93 3 -33 -84 -14 hvcurveto
          18 hlineto
          44 260 rlineto
          -18 hlineto
          -84 -14 -15 -33 -93 hhcurveto
          -90 hlineto
          44 262 rlineto
          34 5 3 5 40 hhcurveto
          129 hlineto
          151 7 -62 -133 -8 hvcurveto
          endchar
        </CharString>
        <CharString name="G">
          726 -16 145 callsubr
          hintmask 11111010
          726 242 rmoveto
          92 callgsubr
          -25 -54 0 -27 hhcurveto
          -143 2 -5 -26 rlineto
          30 hlineto
          86 1 -11 -36 -6 hvcurveto
          -11 -66 rlineto
          -110 -19 -131 -9 -31 hhcurveto
          -103 -157 71 261 43 hvcurveto
          261 44 177 70 97 hhcurveto
          113 66 -98 -139 -4 hvcurveto
          -12 -1 -2 9 11 1 2 18 3 vhcurveto
          39 237 rlineto
          hintmask 00000100
          -15 callgsubr
          hintmask 11111010
          -65 callgsubr
          endchar
        </CharString>
        <CharString name="Gacute">
          70 callgsubr
          59 -21 158 -20 56 callsubr
          hintmask 1110011010000000
          -81 callsubr
          hintmask 1110011010000000
          -65 callgsubr
          hintmask 0001100000000000
          -89 621 -101 callsubr
        </CharString>
        <CharString name="Gamma">
          576 0 26 629 26 hstemhm
          143 66 -42 66 hintmask 01010000
          619 460 rmoveto
          13 221 rlineto
          -467 139 callsubr
          69 11 0 -45 -7 hvcurveto
          hintmask 10100000
          -45 callgsubr
          hintmask 10010000
          2 29 56 0 31 hhcurveto
          41 112 callgsubr
          hintmask 01100000
          -76 0 10 36 6 hvcurveto
          91 544 rlineto
          34 5 3 5 40 hhcurveto
          110 hlineto
          152 -3 -70 192 callgsubr
          endchar
        </CharString>
        <CharString name="Gbreve">
          70 callgsubr
          38 28 146 -20 56 callsubr
          hintmask 1110011010000000
          -81 callsubr
          hintmask 1110011010000000
          -65 callgsubr
          hintmask 0001101000000000
          -72 669 -11 callsubr
        </CharString>
        <CharString name="Gcaron">
          70 callgsubr
          49 -21 133 -20 56 callsubr
          hintmask 1110011010000000
          -81 callsubr
          hintmask 1110011010000000
          -65 callgsubr
          hintmask 0001100000000000
          -71 602 -46 callsubr
        </CharString>
        <CharString name="Gcedilla">
          726 160 callsubr
          145 callsubr
          hintmask 0011111010000000
          -81 callsubr
          hintmask 1111111010000000
          -65 callgsubr
          -348 -361 -102 callgsubr
        </CharString>
        <CharString name="Gcircumflex">
          70 callgsubr
          49 -21 133 -20 56 callsubr
          hintmask 1110011010000000
          -81 callsubr
          hintmask 1110011010000000
          -65 callgsubr
          hintmask 0001100000000000
          -88 501 -33 callsubr
        </CharString>
        <CharString name="Gcommaaccent">
          726 160 callsubr
          145 callsubr
          hintmask 0011111010000000
          -81 callsubr
          hintmask 0011111010000000
          -65 callgsubr
          hintmask 1100000000000000
          -348 -361 -102 callgsubr
        </CharString>
        <CharString name="Gdotaccent">
          70 callgsubr
          44 82 hstemhm
          103 76 274 81 54 66 0 76 -72 76 hintmask 1110101010000000
          -81 callsubr
          hintmask 1110101010000000
          -65 callgsubr
          hintmask 0001010000000000
          -192 542 -37 callsubr
        </CharString>
        <CharString name="H">
          205 callsubr
          hstem
          46 callgsubr
          208 66 24 66 vstem
          -95 callgsubr
          endchar
        </CharString>
        <CharString name="H_uni0303">
          203 callsubr
          143 66 24 66 208 66 24 66 cntrmask 11100000
          -95 callgsubr
          hintmask 11100000
          -4 802 -93 callsubr
        </CharString>
        <CharString name="Hbar">
          194 callgsubr
          316 26 131 26 132 26 hstemhm
          143 66 5 66 -61 66 -52 66 208 66 5 66 -61 66 -52 66 0 66 hintmask 1010000011001000
          641 149 callgsubr
          71 428 rlineto
          80 hlineto
          5 26 rlineto
          hintmask 0011000000101000
          -80 hlineto
          14 87 16 callsubr
          -2 -29 -53 0 -31 hhcurveto
          -31 -53 -29 callgsubr
          hintmask 0000000000010000
          -37 callgsubr
          hintmask 0010001000100000
          -14 -87 rlineto
          -298 hlineto
          hintmask 0001000100000000
          14 87 16 callsubr
          -2 -29 -53 0 -31 hhcurveto
          -31 -53 0 2 -29 hvcurveto
          57 callsubr
          hintmask 0010001000000000
          -14 -87 94 callsubr
          hintmask 1110110011000000
          80 hlineto
          -71 -428 -64 callsubr
          45 271 192 callsubr
          -45 -271 -72 callgsubr
          -85 368 rmoveto
          -298 hlineto
          22 131 192 callsubr
          endchar
        </CharString>
        <CharString name="Hbrevebelow">
          693 190 callsubr
          92 137 callsubr
          73 callgsubr
          208 66 24 66 hintmask 0011111110000000
          -95 callgsubr
          hintmask 1100000000000000
          -168 -72 -80 callgsubr
          endchar
        </CharString>
        <CharString name="Hcircumflex">
          205 callsubr
          65 -21 133 105 callsubr
          208 66 24 66 hintmask 1110011110000000
          -95 callgsubr
          hintmask 0001100000000000
          -20 124 callgsubr
        </CharString>
        <CharString name="Hdieresis">
          205 callsubr
          44 73 73 callgsubr
          60 72 76 66 -58 72 10 66 hintmask 1110110101000000
          -95 callgsubr
          hintmask 0001001010000000
          -210 764 -76 callgsubr
        </CharString>
        <CharString name="Hdotbelow">
          119 callsubr
          316 26 289 26 73 callgsubr
          -20 81 147 66 24 66 hintmask 0111110110000000
          -95 callgsubr
          hintmask 1000001000000000
          -281 -159 -98 callsubr
          endchar
        </CharString>
        <CharString name="I">
          62 callsubr
          hstem
          46 callgsubr
          vstem
          -99 callgsubr
          endchar
        </CharString>
        <CharString name="I_J">
          766 -16 16 0 26 45 85 456 26 19 26 73 callgsubr
          68 85 310 66 hintmask 0111111110000000
          -99 callgsubr
          543 657 rmoveto
          4 26 -98 -2 rlineto
          -42 -46 0 2 -42 -40 callgsubr
          24 hlineto
          78 0 -11 -36 -6 hvcurveto
          -77 -463 rlineto
          -92 -16 -59 -55 -51 hhcurveto
          -26 -58 12 61 -16 hvcurveto
          -1 4 5 -1 4 hhcurveto
          19 26 13 30 5 hvcurveto
          24 4 -14 18 -25 hhcurveto
          -24 -21 -15 -29 -5 hvcurveto
          hintmask 1001100010000000
          -67 -11 50 -61 82 hhcurveto
          78 82 56 84 26 hvcurveto
          2 7 0 2 6 34 70 420 rcurveline
          3 17 4 28 3 6 rrcurveto
          19 8 23 0 31 hhcurveto
          endchar
        </CharString>
        <CharString name="Iacute">
          62 callsubr
          75 -21 158 105 callsubr
          hintmask 11001100
          -99 callgsubr
          hintmask 00110000
          157 863 -101 callsubr
        </CharString>
        <CharString name="Ibreve">
          62 callsubr
          54 28 146 105 callsubr
          hintmask 11001100
          -99 callgsubr
          hintmask 00110000
          174 911 -11 callsubr
        </CharString>
        <CharString name="Icaron">
          62 callsubr
          65 -21 133 105 callsubr
          hintmask 11001100
          -99 callgsubr
          hintmask 00110000
          175 844 -46 callsubr
        </CharString>
        <CharString name="Icircumflex">
          62 callsubr
          65 -21 133 105 callsubr
          hintmask 11001100
          -99 callgsubr
          hintmask 00110000
          158 124 callgsubr
        </CharString>
        <CharString name="Idblgrave">
          62 callsubr
          75 -21 183 105 callsubr
          hintmask 11001100
          -99 callgsubr
          hintmask 00111000
          119 747 rmoveto
          -39 callsubr
          -157 hmoveto
          -39 callsubr
          endchar
        </CharString>
        <CharString name="Idieresis">
          62 callsubr
          44 73 204 callgsubr
          hintmask 11010100
          -99 callgsubr
          hintmask 00101010
          -32 764 -76 callgsubr
        </CharString>
        <CharString name="Idieresisacute">
          62 callsubr
          44 73 75 -21 158 -20 204 callgsubr
          hintmask 1100010100000000
          -99 callgsubr
          hintmask 0011101010000000
          -32 764 -95 callsubr
          52 216 -101 callsubr
        </CharString>
        <CharString name="Idotaccent">
          62 callsubr
          60 82 73 callgsubr
          -45 81 hintmask 11011000
          -99 callgsubr
          hintmask 00100100
          54 784 -37 callsubr
        </CharString>
        <CharString name="Idotbelow">
          328 35 callsubr
          631 26 hstemhm
          96 81 -34 66 24 66 hintmask 01101100
          -99 callgsubr
          hintmask 10010000
          -104 -159 -98 callsubr
          endchar
        </CharString>
        <CharString name="Igrave">
          62 callsubr
          75 -21 158 105 callsubr
          hintmask 11001100
          -99 callgsubr
          hintmask 00110000
          74 750 -75 callsubr
        </CharString>
        <CharString name="Ihookabove">
          62 callsubr
          81 -21 214 105 callsubr
          hintmask 11001100
          -99 callgsubr
          hintmask 00110000
          122 891 -97 callsubr
          8 hvcurveto
          8 -8 0 -12 -3 -20 -3 -14 -7 -12 -10 -7 -32 -24 -24 -31 -6 -34 -3 21 callsubr
          3 20 6 -41 callsubr
        </CharString>
        <CharString name="Imacron">
          62 callsubr
          64 23 73 callgsubr
          hintmask 11011000
          -99 callgsubr
          hintmask 00100000
          177 747 -19 callgsubr
        </CharString>
        <CharString name="Imacron.alt">
          62 callsubr
          64 23 73 callgsubr
          hintmask 11011000
          -99 callgsubr
          hintmask 00100000
          101 747 111 callsubr
          114 -39 0 113 hhcurveto
          endchar
        </CharString>
        <CharString name="Iogonek">
          186 callgsubr
          hstem
          46 callgsubr
          vstem
          262 -115 rmoveto
          -53 callgsubr
          3 20 13 19 16 17 18 17 20 14 21 10 rrcurveto
          34 43 0 -2 29 hvcurveto
          4 26 rlineto
          -72 -12 147 callsubr
          12 0 72 36 callgsubr
          -51 0 -34 hhcurveto
          -34 -51 0 2 -32 -40 callgsubr
          72 12 0 -45 -8 hvcurveto
          187 callsubr
          83 2 -45 -33 -46 -47 -7 -43 rlinecurve
          -26 callsubr
          endchar
        </CharString>
        <CharString name="Iogonekacute">
          186 callgsubr
          75 -21 158 105 callsubr
          hintmask 11110011
          262 -115 rmoveto
          -53 callgsubr
          3 20 13 19 16 17 18 17 20 14 21 10 rrcurveto
          34 43 0 -2 29 hvcurveto
          4 26 rlineto
          -72 -12 147 callsubr
          12 0 72 36 callgsubr
          -51 0 -34 hhcurveto
          -34 -51 0 2 -32 -40 callgsubr
          72 12 0 -45 -8 hvcurveto
          187 callsubr
          83 2 -45 -33 -46 -47 -7 -43 rlinecurve
          -26 callsubr
          hintmask 00001100
          176 978 -101 callsubr
        </CharString>
        <CharString name="Iota">
          62 callsubr
          hstem
          46 callgsubr
          vstem
          -99 callgsubr
          endchar
        </CharString>
        <CharString name="Itilde">
          328 85 callsubr
          143 66 24 66 cntrmask 11100000
          -99 callgsubr
          hintmask 11101000
          174 802 -93 callsubr
        </CharString>
        <CharString name="J">
          156 callsubr
          hstem
          72 85 vstem
          -53 callsubr
          endchar
        </CharString>
        <CharString name="J_uni030C.cap">
          471.47826 -16 16 71 85 341 -21 146 61 -26 26 hstemhm
          72 85 hintmask 11001100
          -53 callsubr
          96 -45 rmoveto
          25 4 5 46 -35 hhcurveto
          -17 -16 -11 -20 -3 hvcurveto
          hintmask 00110000
          -19 -3 12 -11 17 hhcurveto
          9 9 3 9 8 hvcurveto
          1 -7 -1 -2 -2 -12 -7 -45 -22 -42 -38 -37 rrcurveto
          -4 146 callgsubr
        </CharString>
        <CharString name="Jacute">
          156 callsubr
          75 198 callsubr
          72 85 hintmask 11100100
          -53 callsubr
          hintmask 00011000
          50 206 -101 callsubr
        </CharString>
        <CharString name="Jcircumflex">
          156 callsubr
          143 callgsubr
          72 85 hintmask 11100100
          -53 callsubr
          hintmask 00011000
          51 86 -33 callsubr
        </CharString>
        <CharString name="K">
          719 0 26 0 26 0 26 hstem
          -76 callsubr
          endchar
        </CharString>
        <CharString name="Kappa">
          719 0 26 0 26 0 26 hstem
          -76 callsubr
          endchar
        </CharString>
        <CharString name="Kcedilla">
          719 0 26 0 26 0 26 hstem
          -76 callsubr
          -311 -119 -102 callgsubr
        </CharString>
        <CharString name="Kcommaaccent">
          719 0 26 0 26 0 26 hstemhm
          -76 callsubr
          hintmask 11100000
          -311 -119 -102 callgsubr
        </CharString>
        <CharString name="L">
          576 91 callgsubr
          hstem
          233 66 219 66 vstem
          -82 callgsubr
          endchar
        </CharString>
        <CharString name="L_uni0303">
          576 85 callsubr
          233 66 219 66 cntrmask 11100000
          -82 callgsubr
          hintmask 11100000
          -60 802 -93 callsubr
        </CharString>
        <CharString name="Lacute">
          576 91 callgsubr
          75 198 callsubr
          233 66 219 66 hintmask 11001100
          -82 callgsubr
          hintmask 00111000
          -77 863 -101 callsubr
        </CharString>
        <CharString name="Lambda">
          641 0 26 681 -20 hstemhm
          23 594 -590 594 hintmask 11010000
          617 193 callgsubr
          -44 -18 0 35 -6 hvcurveto
          -102 629 rlineto
          16 -2 -1 1 -10 hhcurveto
          -10 -1 -1 -16 -8 hvcurveto
          -297 -598 -26 -53 -35 -12 -34 -1 rlinecurve
          hintmask 10100000
          -4 -26 70 2 rlineto
          25 39 0 -2 24 hvcurveto
          4 26 -52 2 3 38 1 7 rlinecurve
          1 7 3 6 5 10 250 505 rcurveline
          86 -528 3 -14 0 -2 -1 -3 rlinecurve
          -28 -5 -42 0 -21 -66 callgsubr
          2 29 51 0 31 hhcurveto
          25 46 65 callgsubr
          endchar
        </CharString>
        <CharString name="Lcaron">
          576 0 26 471 -21 146 61 -26 26 166 callgsubr
          219 66 hintmask 10011100
          -82 callgsubr
          2 612 rmoveto
          25 4 5 46 -35 hhcurveto
          -17 -16 -11 -20 -3 hvcurveto
          hintmask 01100000
          -19 -3 12 -11 17 hhcurveto
          9 9 3 9 8 hvcurveto
          1 -7 -1 -2 -2 -12 -7 -45 -22 -42 -38 -37 rrcurveto
          -4 146 callgsubr
        </CharString>
        <CharString name="Lcedilla">
          576 196 callgsubr
          hstem
          233 66 219 66 vstem
          -82 callgsubr
          -215 -119 -102 callgsubr
        </CharString>
        <CharString name="Lcommaaccent">
          576 196 callgsubr
          166 callgsubr
          219 66 hintmask 00111100
          -82 callgsubr
          hintmask 11000000
          -215 -119 -102 callgsubr
        </CharString>
        <CharString name="Ldot">
          576 0 26 335 82 214 26 166 callgsubr
          179 81 -41 66 hintmask 11110100
          -82 callgsubr
          41 402 rmoveto
          64 callsubr
          hintmask 01001000
          -24 -20 -19 -22 -4 5 callgsubr
          endchar
        </CharString>
        <CharString name="Ldotbelow">
          576 35 callsubr
          631 26 hstemhm
          220 81 -68 66 219 66 hintmask 01101100
          -82 callgsubr
          hintmask 10010000
          -217 -159 -98 callsubr
          endchar
        </CharString>
        <CharString name="Ldotbelowmacron">
          576 35 callsubr
          631 26 64 23 hstemhm
          220 81 -68 66 219 66 hintmask 11100110
          -82 callgsubr
          -217 -159 rmoveto
          64 callsubr
          hintmask 10001000
          188 callsubr
          24 20 19 22 3 hvcurveto
          hintmask 00010000
          167 906 -19 callgsubr
        </CharString>
        <CharString name="Lslash">
          576 0 26 460 26 145 26 hstemhm
          188 66 -21 66 219 66 hintmask 10010100
          584 253 rmoveto
          -66 -253 rlineto
          -467 hlineto
          -55 callsubr
          69 11 -12 callsubr
          38 229 -75 -55 -18 25 100 72 rlineto
          hintmask 01101000
          45 270 rlineto
          45 8 -11 0 -69 26 callsubr
          29 56 0 31 hhcurveto
          41 48 0 2 41 -40 callgsubr
          -22 hlineto
          -76 -4 -10 -36 -6 hvcurveto
          -38 -225 180 126 16 -26 rlineto
          hintmask 10010100
          -203 -142 -46 -279 rlineto
          -34 -6 1 -5 40 hhcurveto
          93 hlineto
          171 35 128 99 24 hvcurveto
          endchar
        </CharString>
        <CharString name="M">
          -24 callgsubr
        </CharString>
        <CharString name="Mdotbelow">
          850 -200 82 118 206 callgsubr
          188 81 229 61 hintmask 01110010
          796 60 callgsubr
          -127 hlineto
          -21 -1 -1 -15 -9 hvcurveto
          -313 -586 -119 586 rlineto
          15 -3 -1 1 -21 hhcurveto
          -128 70 callsubr
          hintmask 01001000
          -86 -514 16 callgsubr
          hintmask 01010000
          -18 callsubr
          hintmask 01001010
          -80 8 47 25 4 hvcurveto
          93 555 rlineto
          1 hlineto
          129 -637 rlineto
          -10 2 1 -6 8 hhcurveto
          8 3 6 10 6 hvcurveto
          344 642 rlineto
          1 hlineto
          -98 -587 -49 callgsubr
          27 54 0 29 hhcurveto
          29 55 150 callsubr
          hintmask 10000100
          -358 -159 -98 callsubr
          endchar
        </CharString>
        <CharString name="Mu">
          -24 callgsubr
        </CharString>
        <CharString name="N">
          198 callgsubr
          50 callsubr
          hintmask 01101100
          -73 callsubr
          hintmask 10010000
          -93 -553 101 callsubr
          hintmask 11011100
          -57 callsubr
          endchar
        </CharString>
        <CharString name="Nacute">
          198 callgsubr
          75 -21 158 -20 50 callsubr
          hintmask 01001011
          -73 callsubr
          hintmask 10000100
          -93 -553 16 callgsubr
          hintmask 10001000
          -18 callsubr
          hintmask 11000111
          -57 callsubr
          hintmask 00110000
          -131 206 -101 callsubr
        </CharString>
        <CharString name="Ncaron">
          198 callgsubr
          65 -21 133 -20 50 callsubr
          hintmask 01001011
          -73 callsubr
          hintmask 10000100
          -93 -553 16 callgsubr
          hintmask 10001000
          -18 callsubr
          hintmask 11000111
          -57 callsubr
          hintmask 00110000
          -113 187 -46 callsubr
        </CharString>
        <CharString name="Ncedilla">
          693 196 callgsubr
          50 callsubr
          hintmask 00011011
          -73 callsubr
          hintmask 00100100
          -93 -553 16 callgsubr
          hintmask 00101000
          -18 callsubr
          hintmask 11110111
          -57 callsubr
          -390 -776 -102 callgsubr
        </CharString>
        <CharString name="Ncommaaccent">
          693 196 callgsubr
          50 callsubr
          hintmask 00011011
          -73 callsubr
          hintmask 00100100
          -93 -553 16 callgsubr
          hintmask 00101000
          -18 callsubr
          hintmask 00110111
          -57 callsubr
          hintmask 11000000
          -390 -776 -102 callgsubr
        </CharString>
        <CharString name="Ndotaccent">
          198 callgsubr
          44 82 hstemhm
          141 20 -14 20 267 81 36 20 68 20 hintmask 01010011
          -73 callsubr
          hintmask 10001000
          -93 -553 16 callgsubr
          hintmask 10010000
          -18 callsubr
          hintmask 11001011
          -57 callsubr
          hintmask 00100100
          -236 111 -37 callsubr
        </CharString>
        <CharString name="Ndotbelow">
          119 callsubr
          631 26 hstemhm
          141 20 -14 20 112 81 191 20 68 20 hintmask 00110011
          -73 callsubr
          hintmask 01001000
          -93 -553 16 callgsubr
          hintmask 01010000
          -18 callsubr
          hintmask 01101011
          -57 callsubr
          hintmask 10000100
          -391 -816 -98 callsubr
          endchar
        </CharString>
        <CharString name="Ntilde">
          693 727 34 -8 34 -8 34 50 callsubr
          cntrmask 11100000
          hintmask 11110110
          -73 callsubr
          hintmask 11101000
          -93 -553 16 callgsubr
          hintmask 11110000
          -18 callsubr
          hintmask 11101110
          -57 callsubr
          hintmask 11100000
          -114 145 -93 callsubr
        </CharString>
        <CharString name="Nu">
          198 callgsubr
          50 callsubr
          hintmask 01101100
          -73 callsubr
          hintmask 10010000
          -93 -553 101 callsubr
          hintmask 11011100
          -57 callsubr
          endchar
        </CharString>
        <CharString name="O">
          25 callsubr
          hstem
          -105 callsubr
          endchar
        </CharString>
        <CharString name="OE">
          -35 callgsubr
        </CharString>
        <CharString name="OE.dup">
          -35 callgsubr
        </CharString>
        <CharString name="Oacute">
          25 callsubr
          59 -21 158 -91 callgsubr
          -22 510 -101 callsubr
        </CharString>
        <CharString name="Obreve">
          25 callsubr
          38 28 146 -91 callgsubr
          -5 558 -11 callsubr
        </CharString>
        <CharString name="Ocaron">
          25 callsubr
          49 -21 133 -91 callgsubr
          -4 491 -46 callsubr
        </CharString>
        <CharString name="Ocircumflex">
          25 callsubr
          49 -21 133 -91 callgsubr
          125 callgsubr
          endchar
        </CharString>
        <CharString name="Ocircumflexacute">
          25 callsubr
          49 -21 311 -91 callgsubr
          -21 390 -62 callgsubr
        </CharString>
        <CharString name="Ocircumflexdotbelow">
          720 -200 82 102 18 679 18 49 -21 133 -20 hstemhm
          292 81 hintmask 01111000
          -105 callsubr
          125 callgsubr
          hintmask 10000100
          -247 -886 -98 callsubr
          endchar
        </CharString>
        <CharString name="Ocircumflexgrave">
          25 callsubr
          49 -21 133 -91 callgsubr
          -21 390 -70 callgsubr
        </CharString>
        <CharString name="Ocircumflexhookabove">
          25 callsubr
          49 -21 347 -91 callgsubr
          125 callgsubr
          89 281 -97 callsubr
          9 hvcurveto
          7 -8 0 -12 -3 -20 -2 -14 -7 -12 -11 -7 -32 -24 -24 -31 -5 -34 -4 21 callsubr
          4 20 5 -41 callsubr
        </CharString>
        <CharString name="Ocircumflextilde">
          720 900 71 callgsubr
          -105 callsubr
          hintmask 11100000
          -21 390 -78 callgsubr
        </CharString>
        <CharString name="Odblgrave">
          25 callsubr
          59 -21 183 -91 callgsubr
          -60 394 rmoveto
          -39 callsubr
          -157 hmoveto
          -39 callsubr
          endchar
        </CharString>
        <CharString name="Odieresis">
          25 callsubr
          28 73 hstemhm
          373 72 84 72 hintmask 11000000
          -105 callsubr
          hintmask 00111000
          -211 411 -76 callgsubr
        </CharString>
        <CharString name="Odotbelow">
          720 -200 82 102 18 679 18 hstemhm
          292 81 hintmask 01100000
          -105 callsubr
          hintmask 10010000
          -283 -512 -98 callsubr
          endchar
        </CharString>
        <CharString name="Ograve">
          25 callsubr
          59 -21 158 -91 callgsubr
          -105 397 -75 callsubr
        </CharString>
        <CharString name="Ohookabove">
          25 callsubr
          65 -21 214 -91 callgsubr
          -57 538 -97 callsubr
          8 hvcurveto
          8 -8 0 -12 -3 -20 -3 -14 -7 -12 -10 -7 -32 -24 -24 -31 -6 -34 -3 21 callsubr
          3 20 6 -41 callsubr
        </CharString>
        <CharString name="Ohorn">
          162 callgsubr
          hstem
          628 81 vstem
          -90 callsubr
          endchar
        </CharString>
        <CharString name="Ohornacute">
          162 callgsubr
          60 198 callsubr
          628 81 hintmask 11001000
          -90 callsubr
          hintmask 00110000
          -39 508 -101 callsubr
        </CharString>
        <CharString name="Ohorndotbelow">
          720 -200 82 124 -21 696 17 hstemhm
          292 81 255 81 hintmask 01111000
          -90 callsubr
          hintmask 10010000
          -273 -514 -98 callsubr
          endchar
        </CharString>
        <CharString name="Ohorngrave">
          162 callgsubr
          60 198 callsubr
          628 81 hintmask 11001000
          -90 callsubr
          hintmask 00110000
          -95 395 -75 callsubr
        </CharString>
        <CharString name="Ohornhookabove">
          162 callgsubr
          66 199 callgsubr
          628 81 hintmask 11001000
          -90 callsubr
          hintmask 00110000
          -47 536 -97 callsubr
          8 hvcurveto
          8 -8 0 -12 -3 -20 -3 -14 -7 -12 -10 -7 -32 -24 -24 -31 -6 -34 -3 21 callsubr
          3 20 6 -41 callsubr
        </CharString>
        <CharString name="Ohorntilde">
          720 85 callsubr
          628 81 cntrmask 11100000
          -90 callsubr
          hintmask 11100000
          5 447 -93 callsubr
        </CharString>
        <CharString name="Ohungarumlaut">
          25 callsubr
          59 -21 183 -91 callgsubr
          -145 541 rmoveto
          15 2 -13 11 -13 hhcurveto
          -16 -5 -10 -14 -9 -57 callgsubr
          157 hmoveto
          15 2 -13 11 -13 hhcurveto
          -16 -5 -10 -14 -9 -57 callgsubr
          endchar
        </CharString>
        <CharString name="Omacron">
          25 callsubr
          48 23 -93 callgsubr
          hintmask 00100000
          -2 394 -19 callgsubr
        </CharString>
        <CharString name="Omega">
          -25 callsubr
        </CharString>
        <CharString name="Omicron">
          25 callsubr
          hstem
          -105 callsubr
          endchar
        </CharString>
        <CharString name="Oogonek">
          25 callsubr
          hstem
          299 76 vstem
          730 340 rmoveto
          205 34 -121 154 -166 hhcurveto
          -170 -170 -156 -203 -34 hvcurveto
          -32 -190 104 -146 150 -18 -39 -32 -33 -38 -6 -37 -13 callgsubr
          9 8 9 8 9 7 171 2 167 155 33 199 rrcurveto
          -74 13 rmoveto
          -241 -40 -146 -110 -110 hhcurveto
          -114 -105 114 237 40 hvcurveto
          236 39 152 92 101 hhcurveto
          106 116 -95 -233 -39 hvcurveto
          endchar
        </CharString>
        <CharString name="Oogonekacute">
          25 callsubr
          59 198 callsubr
          299 76 hintmask 11001000
          730 340 rmoveto
          205 34 -121 154 -166 hhcurveto
          -170 -170 -156 -203 -34 hvcurveto
          -32 -190 104 -146 150 -18 -39 -32 -33 -38 -6 -37 -13 callgsubr
          9 8 9 8 9 7 171 2 167 155 33 199 rrcurveto
          -74 13 rmoveto
          -241 -40 -146 -110 -110 hhcurveto
          -114 -105 114 237 40 hvcurveto
          236 39 152 92 101 hhcurveto
          106 116 -95 -233 -39 hvcurveto
          hintmask 00110000
          -22 510 -101 callsubr
        </CharString>
        <CharString name="Orogate">
          720 730 340 rmoveto
          33 202 -117 152 -162 5 30 179 rcurveline
          -16 hlineto
          -30 -179 -167 -5 -165 -154 -33 -200 rlinecurve
          -34 -200 117 -152 163 -4 -29 -179 rcurveline
          16 hlineto
          29 179 168 6 164 154 33 196 rlinecurve
          -74 13 rmoveto
          -241 -40 -146 -110 -110 hhcurveto
          -114 -105 114 237 40 hvcurveto
          236 39 152 92 101 hhcurveto
          106 116 -95 -233 -39 hvcurveto
          endchar
        </CharString>
        <CharString name="Oslash">
          136 callsubr
          hstem
          103 66 495 66 vstem
          -44 callgsubr
          endchar
        </CharString>
        <CharString name="Oslash.dup">
          136 callsubr
          hstem
          103 66 495 66 vstem
          -44 callgsubr
          endchar
        </CharString>
        <CharString name="Oslashacute">
          136 callsubr
          178 -20 hstemhm
          103 66 495 66 hintmask 11110110
          -44 callgsubr
          hintmask 00011000
          -30 523 -101 callsubr
        </CharString>
        <CharString name="Otilde">
          720 727 71 callgsubr
          -105 callsubr
          hintmask 11100000
          -5 449 -93 callsubr
        </CharString>
        <CharString name="P">
          -4 callgsubr
        </CharString>
        <CharString name="Phi">
          668 0 26 120 -20 432 -21 120 26 hstemhm
          103 74 136 63 -53 63 -61 63 3 63 -61 63 -53 63 138 74 hintmask 0000000001000000
          678 341 rmoveto
          17 101 -83 98 -156 14 rrcurveto
          hintmask 0001000000100000
          10 57 rlineto
          36 6 4 10 76 hhcurveto
          22 hlineto
          54 callsubr
          -41 -48 0 -42 hhcurveto
          -42 -49 0 2 -41 -40 callgsubr
          22 hlineto
          76 0 -10 -36 -6 hvcurveto
          hintmask 0000101001000000
          -10 -57 -159 -14 -114 -99 -17 -99 rlinecurve
          -17 -103 86 -96 151 -14 rrcurveto
          hintmask 1000010000000000
          -10 -57 75 callgsubr
          hintmask 0010101010010000
          10 57 164 14 112 101 16 97 rlinecurve
          -353 -195 rmoveto
          -88 10 -82 52 22 133 23 137 102 50 89 9 rrcurveto
          hintmask 0110000110010000
          213 -195 rmoveto
          -24 -147 -115 -42 -77 -7 66 391 rcurveline
          77 -7 97 -45 -24 -143 rrcurveto
          endchar
        </CharString>
        <CharString name="Pi">
          194 callgsubr
          629 26 hstem
          143 66 298 66 vstem
          641 115 callsubr
          -590 139 callsubr
          69 11 0 -45 -7 hvcurveto
          -90 -539 -64 callsubr
          97 584 192 callsubr
          -97 -584 -72 callgsubr
          endchar
        </CharString>
        <CharString name="Psi">
          720 0 26 102 19 387 22 101 26 hstemhm
          339 63 -53 63 -60 63 14 63 hintmask 01110011
          764 548 rmoveto
          8 2 -5 0 -17 hhcurveto
          -26 hlineto
          -66 -30 -52 -103 -18 hvcurveto
          -19 -106 -48 -123 -122 -25 77 464 rcurveline
          36 6 4 10 76 hhcurveto
          22 hlineto
          54 callsubr
          -41 -48 0 -42 hhcurveto
          -42 -49 0 2 -41 -40 callgsubr
          22 hlineto
          76 0 -10 -36 -6 hvcurveto
          -77 -464 -139 29 29 184 9 52 rlinecurve
          95 15 -17 49 -62 hhcurveto
          -26 hlineto
          -16 -5 0 -8 -2 hvcurveto
          0 -1 -7 5 vhcurveto
          27 -5 37 -6 -21 -134 rrcurveto
          hintmask 00000100
          -14 -93 7 -153 171 -20 rrcurveto
          hintmask 10001000
          -10 -58 75 callgsubr
          hintmask 00000100
          10 58 211 22 37 210 10 57 rlinecurve
          8 46 20 65 53 10 10 2 2 0 1 6 rrcurveto
          endchar
        </CharString>
        <CharString name="Q">
          720 -195 76 103 16 -16 18 -13 76 -56 16 104 16 536 18 hstemhm
          103 74 120 16 343 16 -16 74 hintmask 1000100001000000
          676 -11 rmoveto
          10 2 1 7 -7 hhcurveto
          -5 -3 -9 0 hvcurveto
          -96 -23 -57 -20 -32 hhcurveto
          -59 -12 53 75 -6 hvcurveto
          hintmask 0010001100100000
          127 51 103 130 25 150 rrcurveto
          205 34 -121 154 -166 hhcurveto
          -170 -170 -156 -203 -34 hvcurveto
          -200 -34 118 -156 170 hhcurveto
          hintmask 1100000000000000
          23 33 3 13 40 hvcurveto
          -122 -3 -2 -73 86 hhcurveto
          hintmask 0001011110100000
          106 31 156 28 5 hvcurveto
          -20 351 rmoveto
          -28 -169 -83 -94 -74 -43 rrcurveto
          51 -7 -14 60 -65 hhcurveto
          -48 -34 -42 -38 -6 hvcurveto
          -4 -23 6 -19 9 -13 -99 33 -63 111 31 186 rrcurveto
          238 39 149 103 108 hhcurveto
          112 110 -107 -234 -39 hvcurveto
          -203 -315 rmoveto
          hintmask 0010000000000000
          -21 -43 -33 -2 -17 hhcurveto
          hintmask 0001010010000000
          -45 -6 41 22 4 hvcurveto
          31 5 27 33 38 hhcurveto
          hintmask 0000100000000000
          64 6 -57 -47 hvcurveto
          endchar
        </CharString>
        <CharString name="R">
          680 -16 16 0 26 45 16 -16 26 237 16 307 26 22 callsubr
          hintmask 0110011011100000
          -86 callgsubr
          hintmask 1001110111100000
          -85 callsubr
          endchar
        </CharString>
        <CharString name="Racute">
          680 -16 18 callgsubr
          75 -21 158 -20 22 callsubr
          hintmask 0110010010111000
          -86 callgsubr
          hintmask 1001110001111000
          -85 callsubr
          hintmask 0000001100000000
          39 359 -101 callsubr
        </CharString>
        <CharString name="Rcaron">
          680 -16 18 callgsubr
          65 -21 133 -20 22 callsubr
          hintmask 0110010010111000
          -86 callgsubr
          hintmask 1001110001111000
          -85 callsubr
          hintmask 0000001100000000
          57 340 -46 callsubr
        </CharString>
        <CharString name="Rcedilla">
          680 160 callsubr
          108 callgsubr
          hintmask 0000010000000000
          27 callsubr
          hintmask 0001100110111000
          -86 callgsubr
          hintmask 1110011101111000
          -85 callsubr
          -220 -623 -102 callgsubr
        </CharString>
        <CharString name="Rcommaaccent">
          680 160 callsubr
          108 callgsubr
          hintmask 0000010000000000
          27 callsubr
          hintmask 0001100110111000
          -86 callgsubr
          hintmask 0010011101111000
          -85 callsubr
          hintmask 1100000000000000
          -220 -623 -102 callgsubr
        </CharString>
        <CharString name="Rdblgrave">
          680 -16 18 callgsubr
          75 -21 183 -20 22 callsubr
          hintmask 0110010010111000
          -86 callgsubr
          hintmask 1001110001111000
          -85 callsubr
          hintmask 0000001100000000
          -25 243 rmoveto
          -39 callsubr
          -157 hmoveto
          -39 callsubr
          endchar
        </CharString>
        <CharString name="Rdotaccent">
          680 -16 18 callgsubr
          60 82 53 callsubr
          178 81 -20 64 20 76 hintmask 0001000000000000
          27 callsubr
          hintmask 0110010101011000
          -86 callgsubr
          hintmask 1001110011011000
          -85 callsubr
          hintmask 0000001000100000
          -64 280 -37 callsubr
        </CharString>
        <CharString name="Rdotbelow">
          680 -200 82 102 67 callsubr
          20 81 138 64 20 76 hintmask 0000100000000000
          27 callsubr
          hintmask 0011001101011000
          -86 callgsubr
          hintmask 0100111011011000
          -85 callsubr
          hintmask 1000000000100000
          -222 -663 -98 callsubr
          endchar
        </CharString>
        <CharString name="Rdotbelowmacron">
          680 -200 82 102 18 callgsubr
          64 23 53 callsubr
          20 81 138 64 20 76 hintmask 0000100000000000
          27 callsubr
          hintmask 0011001010101100
          -86 callgsubr
          hintmask 1100111001111100
          -85 callsubr
          -222 -663 -98 callsubr
          hintmask 0000000100000000
          281 906 -19 callgsubr
        </CharString>
        <CharString name="Rho">
          -4 callgsubr
        </CharString>
        <CharString name="S">
          160 callgsubr
          hstem
          494 181 rmoveto
          -103 callsubr
          rrcurveto
          -66 39 81 -14 48 hhcurveto
          109 93 91 106 17 hvcurveto
          endchar
        </CharString>
        <CharString name="S_S">
          1022 -16 26 665 24 hstem
          494 181 rmoveto
          -103 callsubr
          rrcurveto
          -66 39 81 -14 48 hhcurveto
          109 93 91 106 17 hvcurveto
          511 hmoveto
          -103 callsubr
          rrcurveto
          -66 39 81 -14 48 hhcurveto
          109 93 91 106 17 hvcurveto
          endchar
        </CharString>
        <CharString name="Sacute">
          160 callgsubr
          59 198 callsubr
          hintmask 11000000
          494 181 rmoveto
          -103 callsubr
          rrcurveto
          -66 39 81 -14 48 hhcurveto
          109 93 91 106 17 hvcurveto
          hintmask 00110000
          35 682 -101 callsubr
        </CharString>
        <CharString name="Scaron">
          160 callgsubr
          49 -21 133 -20 hstemhm
          hintmask 11000000
          494 181 rmoveto
          -103 callsubr
          rrcurveto
          -66 39 81 -14 48 hhcurveto
          109 93 91 106 17 hvcurveto
          hintmask 00110000
          53 663 -46 callsubr
        </CharString>
        <CharString name="Scedilla">
          160 callgsubr
          hstem
          494 181 rmoveto
          -103 callsubr
          29 -50 54 -20 45 -7 -9 -53 rcurveline
          39 120 callgsubr
          -93 0 -77 hhcurveto
          -9 hlineto
          -3 -18 rlineto
          18 hlineto
          102 123 0 76 12 hvcurveto
          48 8 -46 28 -53 hhcurveto
          5 32 rlineto
          5 hlineto
          109 93 91 106 17 hvcurveto
          endchar
        </CharString>
        <CharString name="Scircumflex">
          160 callgsubr
          49 -21 133 -20 hstemhm
          hintmask 11000000
          494 181 rmoveto
          -103 callsubr
          rrcurveto
          -66 39 81 -14 48 hhcurveto
          109 93 91 106 17 hvcurveto
          hintmask 00110000
          36 562 -33 callsubr
        </CharString>
        <CharString name="Sdotbelow">
          511 -200 82 102 26 665 24 hstemhm
          188 81 hintmask 01100000
          494 181 rmoveto
          -103 callsubr
          rrcurveto
          -66 39 81 -14 48 hhcurveto
          109 93 91 106 17 hvcurveto
          hintmask 10010000
          -225 -340 -98 callsubr
          endchar
        </CharString>
        <CharString name="Sigma">
          668 0 34 623 26 hstem
          659 229 rmoveto
          -18 hlineto
          -162 -43 -62 -33 -162 hhcurveto
          -276 hlineto
          280 295 rlineto
          8 8 1 2 3 vvcurveto
          1 4 -3 6 -1 2 -146 303 rcurveline
          242 hlineto
          166 44 -36 -159 -10 hvcurveto
          18 hlineto
          13 221 rlineto
          -529 hlineto
          -21 -1 -1 -21 -4 hvcurveto
          172 -356 -271 -286 rlineto
          -8 -9 87 callsubr
          -7 -1 6 0 15 hhcurveto
          529 hlineto
          endchar
        </CharString>
        <CharString name="T">
          0 callsubr
        </CharString>
        <CharString name="T_uni0303">
          668 85 callsubr
          313 66 12 66 -53 66 cntrmask 11100000
          hintmask 11101000
          -30 callgsubr
          106 callsubr
          hintmask 11110100
          -29 callsubr
          hintmask 11111000
          62 callgsubr
          hintmask 11100100
          40 callgsubr
          14 callsubr
          hintmask 11100000
          -73 343 -93 callsubr
        </CharString>
        <CharString name="T_uni0308">
          668 0 164 callgsubr
          47 73 hstemhm
          313 66 -32 72 -28 66 -53 66 33 72 hintmask 0010000000000000
          -30 callgsubr
          hintmask 0100001000000000
          106 callsubr
          hintmask 1000100100000000
          -29 callsubr
          hintmask 1000101000000000
          62 callgsubr
          hintmask 0100000100000000
          40 callgsubr
          hintmask 0010000000000000
          14 callsubr
          hintmask 0001010010000000
          -279 305 -76 callgsubr
        </CharString>
        <CharString name="Tau">
          0 callsubr
        </CharString>
        <CharString name="Tcaron">
          668 0 164 callgsubr
          68 -21 133 -20 hstemhm
          313 66 12 66 -53 66 hintmask 00100000
          -30 callgsubr
          hintmask 01000010
          106 callsubr
          hintmask 10000101
          -29 callsubr
          hintmask 10000110
          62 callgsubr
          hintmask 01000001
          40 callgsubr
          hintmask 00100000
          14 callsubr
          hintmask 00011000
          -72 385 -46 callsubr
        </CharString>
        <CharString name="Tcedilla">
          668 -200 18 116 18 48 164 callgsubr
          hstemhm
          313 66 -8 64 -44 66 -53 66 hintmask 0000100000000000
          -30 callgsubr
          hintmask 0001000100000000
          106 callsubr
          hintmask 0110010010000000
          18 -3 -2 -12 -3 -23 -91 -542 rcurveline
          -36 -6 -5 -11 -83 hhcurveto
          -28 hlineto
          -4 -26 129 2 -11 -68 rlineto
          hintmask 1110001000000000
          23 callgsubr
          48 8 -46 28 -53 hhcurveto
          8 50 129 -2 -55 callsubr
          hintmask 0010010100000000
          62 callgsubr
          hintmask 0001000010000000
          40 callgsubr
          hintmask 0000100000000000
          14 callsubr
          endchar
        </CharString>
        <CharString name="Tdotbelow">
          668 -200 82 118 164 callgsubr
          hstemhm
          266 81 -34 66 12 66 -53 66 hintmask 00010000
          -30 callgsubr
          hintmask 00100010
          106 callsubr
          hintmask 01000101
          -29 callsubr
          hintmask 01000110
          62 callgsubr
          hintmask 00100001
          40 callgsubr
          hintmask 00010000
          14 callsubr
          hintmask 10001000
          -351 -618 -98 callsubr
          endchar
        </CharString>
        <CharString name="Theta">
          720 -16 17 313 56 313 16 hstem
          103 73 43 18 2 18 319 18 2 18 43 73 vstem
          730 340 rmoveto
          205 34 -121 154 -166 hhcurveto
          -170 -170 -156 -203 -34 hvcurveto
          -203 -34 120 -153 167 hhcurveto
          171 169 156 200 34 hvcurveto
          -73 hmoveto
          -234 -39 -148 -105 -110 hhcurveto
          -114 -109 108 231 39 hvcurveto
          238 39 149 105 109 hhcurveto
          113 110 -108 -235 -39 hvcurveto
          -63 -60 rmoveto
          20 124 rlineto
          -18 hlineto
          -5 -34 rlineto
          -339 hlineto
          5 34 rlineto
          -18 hlineto
          -20 -124 rlineto
          18 hlineto
          5 34 rlineto
          339 hlineto
          -5 -34 rlineto
          endchar
        </CharString>
        <CharString name="Thorn">
          576 -1 27 152 26 321 26 106 27 hstem
          588 364 rmoveto
          85 14 -49 102 -139 hhcurveto
          -128 hlineto
          10 59 rlineto
          47 8 9 0 71 hhcurveto
          4 27 -111 -3 rlineto
          -37 -38 1 2 -37 hvcurveto
          -4 -27 rlineto
          71 9 0 -47 -8 hvcurveto
          -90 -537 rlineto
          -47 -8 -9 0 -71 hhcurveto
          -4 -27 111 3 rlineto
          37 38 -1 -2 37 hvcurveto
          4 27 rlineto
          -71 -9 0 47 8 hvcurveto
          18 105 rlineto
          137 hlineto
          117 94 91 95 16 hvcurveto
          -74 1 rmoveto
          -72 -12 -64 -89 -103 hhcurveto
          -107 hlineto
          54 321 rlineto
          112 hlineto
          123 4 -116 -44 -7 hvcurveto
          endchar
        </CharString>
        <CharString name="Tlinebelow">
          668 -170 23 147 164 callgsubr
          hstemhm
          313 66 12 66 -53 66 hintmask 00010000
          -30 callgsubr
          hintmask 00100100
          106 callsubr
          hintmask 01001010
          -29 callsubr
          hintmask 01001100
          62 callgsubr
          hintmask 00100010
          40 callgsubr
          hintmask 00010000
          14 callsubr
          hintmask 10000000
          -223 -629 34 callsubr
        </CharString>
        <CharString name="U">
          693 -16 146 callsubr
          hintmask 11100000
          -100 callsubr
          hintmask 01010000
          -2 -29 -53 0 -31 hhcurveto
          -31 -53 -29 callgsubr
          hintmask 11100000
          -81 callgsubr
          endchar
        </CharString>
        <CharString name="U_uni032F">
          693 -225 -21 146 28 56 146 callsubr
          hintmask 00111000
          -100 callsubr
          hintmask 00010100
          -2 -29 -53 0 -31 hhcurveto
          -31 -53 -29 callgsubr
          hintmask 00111000
          -81 callgsubr
          hintmask 11000000
          -286 -903 10 callgsubr
        </CharString>
        <CharString name="Uacute">
          41 callgsubr
          75 -21 158 -20 48 callsubr
          hintmask 11001000
          -100 callsubr
          hintmask 01000100
          -2 -29 -53 0 -31 hhcurveto
          -31 -53 -29 callgsubr
          hintmask 11001000
          -81 callgsubr
          hintmask 00110000
          -110 206 -101 callsubr
        </CharString>
        <CharString name="Ubreve">
          41 callgsubr
          54 28 146 -20 48 callsubr
          hintmask 11001000
          -100 callsubr
          hintmask 01000100
          -2 -29 -53 0 -31 hhcurveto
          -31 -53 -29 callgsubr
          hintmask 11001000
          -81 callgsubr
          hintmask 00110000
          -93 254 -11 callsubr
        </CharString>
        <CharString name="Ucaron">
          41 callgsubr
          65 -21 133 -20 48 callsubr
          hintmask 11001000
          -100 callsubr
          hintmask 01000100
          -2 -29 -53 0 -31 hhcurveto
          -31 -53 -29 callgsubr
          hintmask 11001000
          -81 callgsubr
          hintmask 00110000
          -92 187 -46 callsubr
        </CharString>
        <CharString name="Ucircumflex">
          41 callgsubr
          65 -21 133 -20 48 callsubr
          hintmask 11001000
          -100 callsubr
          hintmask 01000100
          -2 -29 -53 0 -31 hhcurveto
          -31 -53 -29 callgsubr
          hintmask 11001000
          -81 callgsubr
          hintmask 00110000
          -109 86 -33 callsubr
        </CharString>
        <CharString name="Udblgrave">
          41 callgsubr
          75 -21 183 -20 48 callsubr
          hintmask 11001000
          -100 callsubr
          hintmask 01000100
          -2 -29 -53 0 -31 hhcurveto
          -31 -53 -29 callgsubr
          hintmask 11001000
          -81 callgsubr
          hintmask 00110000
          -148 90 rmoveto
          -39 callsubr
          -157 hmoveto
          -39 callsubr
          endchar
        </CharString>
        <CharString name="Udieresis">
          41 callgsubr
          44 73 48 callsubr
          81 72 84 72 hintmask 11010000
          -100 callsubr
          hintmask 01001000
          -2 -29 -53 0 -31 hhcurveto
          -31 -53 -29 callgsubr
          hintmask 11010000
          -81 callgsubr
          hintmask 00100110
          -19 callsubr
          endchar
        </CharString>
        <CharString name="Udieresisacute">
          41 callgsubr
          44 73 75 -21 158 -20 48 callsubr
          81 72 84 72 hintmask 1100010000000000
          -100 callsubr
          hintmask 0100001000000000
          -2 -29 -53 0 -31 hhcurveto
          -31 -53 -29 callgsubr
          hintmask 1100010000000000
          -81 callgsubr
          hintmask 0011100110000000
          -19 callsubr
          52 216 -101 callsubr
        </CharString>
        <CharString name="Udieresiscaron">
          41 callgsubr
          44 73 65 -21 133 -20 48 callsubr
          81 72 84 72 hintmask 1100010000000000
          -100 callsubr
          hintmask 0100001000000000
          -2 -29 -53 0 -31 hhcurveto
          -31 -53 -29 callgsubr
          hintmask 1100010000000000
          -81 callgsubr
          hintmask 0011100110000000
          -19 callsubr
          70 197 -46 callsubr
        </CharString>
        <CharString name="Udieresisgrave">
          41 callgsubr
          44 73 75 -21 158 -20 48 callsubr
          81 72 84 72 hintmask 1100010000000000
          -100 callsubr
          hintmask 0100001000000000
          -2 -29 -53 0 -31 hhcurveto
          -31 -53 -29 callgsubr
          hintmask 1100010000000000
          -81 callgsubr
          hintmask 0011100110000000
          -19 callsubr
          -31 103 -75 callsubr
        </CharString>
        <CharString name="Udotbelow">
          693 -200 82 102 146 callsubr
          0 81 hintmask 01110000
          -100 callsubr
          hintmask 00101000
          -2 -29 -53 0 -31 hhcurveto
          -31 -53 -29 callgsubr
          hintmask 01110000
          -81 callgsubr
          hintmask 10010000
          -371 -816 rmoveto
          -12 callgsubr
          17 -17 21 hhcurveto
          hintmask 00000100
          31 callgsubr
          3 hvcurveto
          endchar
        </CharString>
        <CharString name="Ugrave">
          41 callgsubr
          75 -21 158 -20 48 callsubr
          hintmask 11001000
          -100 callsubr
          hintmask 01000100
          -2 -29 -53 0 -31 hhcurveto
          -31 -53 -29 callgsubr
          hintmask 11001000
          -81 callgsubr
          hintmask 00110000
          -193 93 -75 callsubr
        </CharString>
        <CharString name="Uhookabove">
          41 callgsubr
          81 -21 214 -20 48 callsubr
          hintmask 11001000
          -100 callsubr
          hintmask 01000100
          -2 -29 -53 0 -31 hhcurveto
          -31 -53 -29 callgsubr
          hintmask 11001000
          -81 callgsubr
          hintmask 00110000
          -145 234 -97 callsubr
          8 hvcurveto
          8 -8 0 -12 -3 -20 -3 -14 -7 -12 -10 -7 -32 -24 -24 -31 -6 -34 -3 21 callsubr
          3 20 6 -41 callsubr
        </CharString>
        <CharString name="Uhorn">
          102 callsubr
          83 -20 83 callsubr
          hintmask 0001100000000000
          -7 callgsubr
          hintmask 1101010111000000
          -95 2 -79 callgsubr
          22 22 -3 -13 15 hvcurveto
          13 -10 3 -18 -3 -18 -61 -367 rcurveline
          -10 -59 -26 -55 -42 -42 rrcurveto
          -38 -38 -51 -23 -48 hhcurveto
          -46 -39 23 38 -22 hvcurveto
          -23 41 -2 52 10 63 66 394 rcurveline
          2 12 6 13 11 4 rrcurveto
          118 callgsubr
          rlineto
          hintmask 0010000100000000
          -116 -2 rlineto
          hintmask 0101001000000000
          -117 2 -79 callgsubr
          23 32 0 -6 13 hvcurveto
          9 -4 2 -13 -2 -12 rrcurveto
          hintmask 1100010001000000
          -28 callsubr
          endchar
        </CharString>
        <CharString name="Uhornacute">
          102 callsubr
          75 -21 29 -20 149 -67 callgsubr
          hintmask 0000101000000000
          -155 147 -101 callsubr
        </CharString>
        <CharString name="Uhorndotbelow">
          694 -200 82 103 26 614 26 6 24 -24 26 83 -20 163 callsubr
          -25 81 -79 23 193 67 11 23 hintmask 0000110000000000
          -27 callsubr
          hintmask 0001000000000000
          -1 -4 -4 -1 -3 hhcurveto
          hintmask 0100101010110000
          -95 2 -79 callgsubr
          22 22 -3 -13 15 hvcurveto
          13 -10 3 -18 -3 -18 -61 -367 rcurveline
          -10 -59 -26 -55 -42 -42 rrcurveto
          -38 -38 -51 -23 -48 hhcurveto
          -46 -39 23 38 -22 hvcurveto
          -23 41 -2 52 10 63 rrcurveto
          hintmask 0010100100000000
          66 394 2 12 6 13 11 4 rlinecurve
          118 callgsubr
          rlineto
          hintmask 0001000001000000
          -116 -2 rlineto
          hintmask 0010100100000000
          -117 2 -79 callgsubr
          23 32 0 -6 13 hvcurveto
          9 -4 2 -13 -2 -12 rrcurveto
          hintmask 0110001000010000
          -28 callsubr
          hintmask 1000000010000000
          -410 -875 -98 callsubr
          endchar
        </CharString>
        <CharString name="Uhorngrave">
          102 callsubr
          75 -21 29 -20 149 -67 callgsubr
          hintmask 0000101000000000
          -212 34 -75 callsubr
        </CharString>
        <CharString name="Uhornhookabove">
          102 callsubr
          81 -21 23 -20 211 -67 callgsubr
          hintmask 0000101000100000
          -164 175 -97 callsubr
          8 hvcurveto
          8 -8 0 -12 -3 -20 -3 -14 -7 -12 -10 -7 -32 -24 -24 -31 -6 -34 -3 21 callsubr
          3 20 6 -41 callsubr
        </CharString>
        <CharString name="Uhorntilde">
          694 727 34 -8 34 -8 34 83 callsubr
          cntrmask 11100000
          hintmask 11110111
          -27 callsubr
          -1 -4 -4 -1 -3 hhcurveto
          -95 2 -79 callgsubr
          22 22 -3 -13 15 hvcurveto
          13 -10 3 -18 -3 -18 -61 -367 rcurveline
          -10 -59 -26 -55 -42 -42 rrcurveto
          -38 -38 -51 -23 -48 hhcurveto
          -46 -39 23 38 -22 hvcurveto
          -23 41 -2 52 10 63 66 394 rcurveline
          2 12 6 13 11 4 rrcurveto
          118 callgsubr
          -116 -2 -117 2 -79 callgsubr
          23 32 0 -6 13 hvcurveto
          hintmask 11101000
          9 -4 2 -13 -2 -12 rrcurveto
          hintmask 11110001
          -28 callsubr
          hintmask 11100000
          -112 86 -93 callsubr
        </CharString>
        <CharString name="Uhungarumlaut">
          41 callgsubr
          75 -21 183 -20 48 callsubr
          hintmask 11001000
          -100 callsubr
          hintmask 01000100
          -2 -29 -53 0 -31 hhcurveto
          -31 -53 -29 callgsubr
          hintmask 11001000
          -81 callgsubr
          hintmask 00110000
          -233 237 rmoveto
          15 2 -13 11 -13 hhcurveto
          -16 -5 -10 -14 -9 -57 callgsubr
          157 hmoveto
          15 2 -13 11 -13 hhcurveto
          -16 -5 -10 -14 -9 -57 callgsubr
          endchar
        </CharString>
        <CharString name="Umacron">
          41 callgsubr
          64 23 48 callsubr
          hintmask 11010000
          -100 callsubr
          hintmask 01001000
          -2 -29 -53 0 -31 hhcurveto
          -31 -53 -29 callgsubr
          hintmask 11010000
          -81 callgsubr
          hintmask 00100000
          -90 90 -19 callgsubr
        </CharString>
        <CharString name="Uogonek">
          693 139 callgsubr
          79 146 callsubr
          hintmask 00111000
          -100 callsubr
          hintmask 00010100
          -2 -29 -53 0 -31 hhcurveto
          -31 -53 -29 callgsubr
          hintmask 11111000
          6 callgsubr
          -21 -126 69 -93 94 -21 rlinecurve
          -39 -32 -36 -40 -6 -38 -13 callgsubr
          9 9 9 7 10 7 rrcurveto
          10 hlineto
          130 98 133 98 16 hvcurveto
          63 380 rlineto
          56 10 52 6 29 hhcurveto
          endchar
        </CharString>
        <CharString name="Upsilon">
          720 0 26 616 57 hstemhm
          339 66 -19 66 hintmask 01010000
          765 553 rmoveto
          53 9 -19 93 -87 hhcurveto
          -152 -64 -194 -51 -15 hvcurveto
          -1 hlineto
          52 1 193 -152 -88 -50 -94 -52 -9 vhcurveto
          -10 -1 0 -3 10 hhcurveto
          9 1 3 8 2 hvcurveto
          74 21 62 17 32 hhcurveto
          150 -28 -229 -60 -10 hvcurveto
          hintmask 10100000
          -47 -281 rlineto
          -36 -6 -4 -10 -76 hhcurveto
          -22 hlineto
          -4 -26 133 2 rlineto
          42 49 0 -2 42 hvcurveto
          -55 callsubr
          -22 hlineto
          -76 0 10 36 6 hvcurveto
          hintmask 01010000
          47 281 7 44 20 85 38 65 rlinecurve
          65 39 49 30 54 hhcurveto
          32 56 -18 -73 -3 hvcurveto
          -8 -1 -3 9 10 2 3 10 1 vhcurveto
          endchar
        </CharString>
        <CharString name="Uring">
          41 callgsubr
          24 171 callgsubr
          48 callsubr
          161 25 hintmask 11001000
          -100 callsubr
          hintmask 01000100
          -2 -29 -53 0 -31 hhcurveto
          -31 -53 -29 callgsubr
          hintmask 11001000
          -81 callgsubr
          hintmask 00110010
          -190 138 -45 callsubr
        </CharString>
        <CharString name="Utilde">
          203 callsubr
          233 66 -21 21 cntrmask 11100000
          hintmask 11110000
          -100 callsubr
          hintmask 11101000
          -2 -29 -53 0 -31 hhcurveto
          -31 -53 -29 callgsubr
          hintmask 11110000
          -81 callgsubr
          hintmask 11100000
          -93 145 -93 callsubr
        </CharString>
        <CharString name="V">
          693 5 -21 603 26 44 26 hstemhm
          120 672 -668 672 hintmask 01101000
          792 657 rmoveto
          54 callsubr
          -23 -26 0 -25 hhcurveto
          -24 -41 0 2 -23 hvcurveto
          -4 -26 49 -3 -4 -35 -1 -6 rlinecurve
          -2 -11 -4 -7 -4 -8 -283 -513 rcurveline
          -116 539 -2 7 -1 5 1 5 rlinecurve
          27 5 40 0 21 36 callgsubr
          -47 0 -33 hhcurveto
          -26 -47 115 callgsubr
          hintmask 10110000
          -79 callgsubr
          58 10 -4 -32 7 hvcurveto
          134 -621 rlineto
          -14 3 0 -2 11 hhcurveto
          11 2 2 14 7 hvcurveto
          326 591 12 22 23 43 68 1 rlinecurve
          endchar
        </CharString>
        <CharString name="W">
          60 callsubr
          hstemhm
          119 936 -932 936 hintmask 00101010
          1055 657 rmoveto
          4 26 -70 -2 rlineto
          -25 -44 58 callgsubr
          44 -1 15 -25 -4 -24 rlinecurve
          -1 -7 -2 -4 -5 -11 -238 -494 rcurveline
          -76 520 -1 10 -1 4 1 4 rlinecurve
          28 5 44 0 19 73 callsubr
          -50 0 -31 hhcurveto
          -25 -45 0 2 -23 -40 callgsubr
          46 11 -3 -18 7 hvcurveto
          121 callgsubr
          hintmask 01000000
          -4 -3 -6 -2 -3 vhcurveto
          -225 -467 rlineto
          hintmask 00101010
          -76 519 -2 callgsubr
          hintmask 10011100
          -79 callgsubr
          60 3 -6 -32 4 hvcurveto
          92 -618 rlineto
          -15 3 -1 -2 9 hhcurveto
          8 4 2 14 6 hvcurveto
          260 542 80 -542 rlineto
          -14 2 2 -2 8 hhcurveto
          9 1 2 15 7 hvcurveto
          286 592 13 27 21 35 59 2 rlinecurve
          endchar
        </CharString>
        <CharString name="Wacute">
          60 callsubr
          75 -21 158 -69 callsubr
          -304 206 -101 callsubr
        </CharString>
        <CharString name="Wcircumflex">
          60 callsubr
          65 -21 133 -69 callsubr
          -303 86 -33 callsubr
        </CharString>
        <CharString name="Wdieresis">
          60 callsubr
          44 73 hstemhm
          119 936 -932 936 -569 72 84 72 hintmask 0010100100000000
          1055 657 rmoveto
          4 26 -70 -2 rlineto
          -25 -44 58 callgsubr
          44 -1 15 -25 -4 -24 rlinecurve
          -1 -7 -2 -4 -5 -11 -238 -494 rcurveline
          -76 520 -1 10 -1 4 1 4 rlinecurve
          28 5 44 0 19 73 callsubr
          -50 0 -31 hhcurveto
          -25 -45 0 2 -23 -40 callgsubr
          46 11 -3 -18 7 hvcurveto
          hintmask 0100000010000000
          121 callgsubr
          -4 -3 -6 -2 -3 vhcurveto
          -225 -467 rlineto
          hintmask 0010100100000000
          -76 519 -2 callgsubr
          hintmask 1001101000000000
          -79 callgsubr
          60 3 -6 -32 4 hvcurveto
          92 -618 rlineto
          -15 3 -1 -2 9 hhcurveto
          8 4 2 14 6 hvcurveto
          260 542 80 -542 rlineto
          -14 2 2 -2 8 hhcurveto
          9 1 2 15 7 hvcurveto
          286 592 13 27 21 35 59 2 rlinecurve
          hintmask 0000010011000000
          -493 45 callgsubr
        </CharString>
        <CharString name="Wgrave">
          60 callsubr
          75 -21 158 -69 callsubr
          -387 93 -75 callsubr
        </CharString>
        <CharString name="X">
          -33 callgsubr
        </CharString>
        <CharString name="Xi">
          615 0 52 97 -20 180 -21 40 52 40 -20 163 -21 86 52 hstemhm
          40 18 0 18 52 18 27 18 4 18 306 18 4 18 29 18 42 18 hintmask 1100011011000011
          666 542 rmoveto
          14 119 2 19 rlineto
          -524 hlineto
          -25 -119 -5 -19 rlineto
          18 hlineto
          4 18 10 47 11 12 rrcurveto
          9 8 57 0 10 hhcurveto
          332 hlineto
          24 45 0 -10 4 hvcurveto
          4 -16 -4 -41 -3 -19 rrcurveto
          -42 -393 rmoveto
          -18 hlineto
          -11 -45 -5 -26 -9 -14 rrcurveto
          -12 -8 -46 0 -26 hhcurveto
          -334 hlineto
          -36 -37 0 13 -4 hvcurveto
          -4 14 3 30 5 40 rrcurveto
          -18 hlineto
          hintmask 1111100100111110
          -18 -149 rlineto
          534 hlineto
          -37 288 rmoveto
          22 132 rlineto
          -18 hlineto
          -7 -40 rlineto
          -328 hlineto
          7 40 rlineto
          -18 hlineto
          -22 -132 rlineto
          18 hlineto
          7 40 rlineto
          328 hlineto
          -7 -40 rlineto
          endchar
        </CharString>
        <CharString name="Y">
          85 callgsubr
          hstem
          360 64 vstem
          -96 callgsubr
          endchar
        </CharString>
        <CharString name="Yacute">
          85 callgsubr
          75 198 callsubr
          360 64 hintmask 11100100
          -96 callgsubr
          hintmask 00011000
          -180 206 -101 callsubr
        </CharString>
        <CharString name="Ycircumflex">
          85 callgsubr
          143 callgsubr
          360 64 hintmask 11100100
          -96 callgsubr
          hintmask 00011000
          -179 86 -33 callsubr
        </CharString>
        <CharString name="Ydieresis">
          85 callgsubr
          44 73 hstemhm
          359 72 -71 64 91 72 hintmask 11100100
          -96 callgsubr
          hintmask 00011010
          -369 45 callgsubr
        </CharString>
        <CharString name="Ydotbelow">
          119 callsubr
          565 26 40 26 hstemhm
          279 81 0 64 hintmask 01110100
          -96 callgsubr
          hintmask 10001000
          -440 -816 -98 callsubr
          endchar
        </CharString>
        <CharString name="Ygrave">
          85 callgsubr
          75 198 callsubr
          360 64 hintmask 11100100
          -96 callgsubr
          hintmask 00011000
          -263 93 -75 callsubr
        </CharString>
        <CharString name="Yhookabove">
          85 callgsubr
          81 199 callgsubr
          360 64 hintmask 11100100
          -96 callgsubr
          hintmask 00011000
          -214 234 -97 callsubr
          8 hvcurveto
          8 -8 0 -12 -3 -20 -3 -14 -7 -12 -10 -7 -32 -24 -24 -31 -6 -34 -3 21 callsubr
          3 20 6 -41 callsubr
        </CharString>
        <CharString name="Ytilde">
          203 callsubr
          360 64 cntrmask 11100000
          -96 callgsubr
          hintmask 11100000
          -163 145 -93 callsubr
        </CharString>
        <CharString name="Z">
          137 callgsubr
          hstem
          -59 callsubr
          endchar
        </CharString>
        <CharString name="Zacute">
          137 callgsubr
          75 198 callsubr
          hintmask 11000000
          -59 callsubr
          hintmask 00110000
          48 863 -101 callsubr
        </CharString>
        <CharString name="Zcaron">
          137 callgsubr
          143 callgsubr
          hintmask 11000000
          -59 callsubr
          hintmask 00110000
          66 844 -46 callsubr
        </CharString>
        <CharString name="Zdotaccent">
          137 callgsubr
          60 82 hstemhm
          372 81 hintmask 11000000
          -59 callsubr
          hintmask 00110000
          -54 784 -37 callsubr
        </CharString>
        <CharString name="Zdotbelow">
          563 -200 82 118 28 629 26 hstemhm
          214 81 hintmask 01100000
          -59 callsubr
          hintmask 10010000
          -212 -159 -98 callsubr
          endchar
        </CharString>
        <CharString name="Zeta">
          137 callgsubr
          hstem
          -59 callsubr
          endchar
        </CharString>
        <CharString name="a">
          459 -107 callgsubr
          endchar
        </CharString>
        <CharString name="aacute">
          459 533 -21 184 -106 callgsubr
          120 430 rmoveto
          -92 callgsubr
        </CharString>
        <CharString name="abreve">
          181 callsubr
          146 -28 callgsubr
          endchar
        </CharString>
        <CharString name="abreveacute">
          181 callsubr
          324 -28 callgsubr
          -17 146 rmoveto
          17 4 47 callsubr
          vvcurveto
          0 5 -11 1 -2 vhcurveto
          185 105 16 9 3 1 4 11 rlinecurve
          endchar
        </CharString>
        <CharString name="abrevedotbelow">
          459 -200 82 635 28 146 -20 hstemhm
          161 81 hintmask 01100000
          -107 callgsubr
          14 callgsubr
          hintmask 10010000
          -241 -850 -98 callsubr
          endchar
        </CharString>
        <CharString name="abrevegrave">
          181 callsubr
          146 -28 callgsubr
          -35 33 rmoveto
          0 -9 -11 -1 -2 vhcurveto
          -151 105 rlineto
          -12 9 -3 1 11 vvcurveto
          17 -1 16 15 17 hhcurveto
          8 4 -5 -8 9 hvcurveto
          115 -122 rlineto
          8 130 callsubr
          endchar
        </CharString>
        <CharString name="abrevehookabove">
          181 callsubr
          360 -28 callgsubr
          -23 148 -97 callsubr
          9 hvcurveto
          7 -8 0 -12 -3 -20 -2 -14 -7 -12 -11 -7 -32 -24 -24 -31 -5 -34 -4 21 callsubr
          4 20 5 -41 callsubr
        </CharString>
        <CharString name="abrevetilde">
          459 731 -56 callsubr
          14 callgsubr
          37 115 79 callsubr
          -39 33 callsubr
          -14 -23 callsubr
          23 30 callgsubr
          18 hvcurveto
          -14 18 14 -12 22 hhcurveto
          36 30 29 46 49 hvcurveto
          endchar
        </CharString>
        <CharString name="acaron">
          459 537 -21 176 -106 callgsubr
          157 439 -38 callsubr
        </CharString>
        <CharString name="acircumflex">
          459 537 -21 176 -55 callgsubr
          291 -50 callgsubr
          endchar
        </CharString>
        <CharString name="acircumflexacute">
          199 callsubr
          311 -55 callgsubr
          293 -62 callgsubr
        </CharString>
        <CharString name="acircumflexdotbelow">
          459 -200 82 655 -21 176 -20 hstemhm
          161 81 hintmask 01100000
          -107 callgsubr
          132 291 -50 callgsubr
          hintmask 10010000
          -212 -675 -98 callsubr
          endchar
        </CharString>
        <CharString name="acircumflexgrave">
          199 callsubr
          133 -55 callgsubr
          293 -70 callgsubr
        </CharString>
        <CharString name="acircumflexhookabove">
          199 callsubr
          347 -55 callgsubr
          293 -90 callgsubr
          89 281 -97 callsubr
          9 hvcurveto
          7 -8 0 -12 -3 -20 -2 -14 -7 -12 -11 -7 -32 -24 -24 -31 -5 -34 -4 21 callsubr
          4 20 5 -41 callsubr
        </CharString>
        <CharString name="acircumflextilde">
          459 689 -56 callsubr
          132 293 -78 callgsubr
        </CharString>
        <CharString name="acute">
          459 533 183 callsubr
          457 669 rmoveto
          -92 callgsubr
        </CharString>
        <CharString name="acute.cap">
          459 505 -21 158 -20 hstem
          461 610 -101 callsubr
        </CharString>
        <CharString name="acute.dup">
          459 533 183 callsubr
          457 669 rmoveto
          -92 callgsubr
        </CharString>
        <CharString name="acute.ts1">
          470 534 183 callsubr
          479 670 rmoveto
          14 2 -12 13 -14 hhcurveto
          -12 -9 -9 -9 -8 hvcurveto
          -24 -25 -86 -92 -24 -25 rlineto
          -3 -3 -5 -4 -4 vvcurveto
          -1 vlineto
          -1 -5 6 -4 3 -3 10 6 9 8 9 8 51 40 rcurveline
          38 30 66 42 4 23 rrcurveto
          endchar
        </CharString>
        <CharString name="adblgrave">
          459 534 -21 183 -106 callgsubr
          91 284 rmoveto
          -39 callgsubr
          -157 hmoveto
          -39 callgsubr
          endchar
        </CharString>
        <CharString name="adieresis">
          459 568 73 hstemhm
          228 72 60 72 hintmask 00000000
          -16 callgsubr
          -37 366 -46 callgsubr
        </CharString>
        <CharString name="adotbelow">
          459 -200 82 hstemhm
          161 81 hintmask 00000000
          -107 callgsubr
          hintmask 11000000
          -95 -398 -98 callsubr
          endchar
        </CharString>
        <CharString name="ae">
          -43 callsubr
        </CharString>
        <CharString name="ae.dup">
          -43 callsubr
        </CharString>
        <CharString name="aeacute">
          668 -8 16 110 15 99 16 -13 15 46 15 115 16 163 callgsubr
          57 61 220 61 -53 53 236 54 hintmask 1110110010000000
          -47 callsubr
          hintmask 1001010010110000
          -22 52 10 61 6 38 rrcurveto
          263 hlineto
          23 1 1 17 3 hvcurveto
          -54 -3 rmoveto
          -232 hlineto
          143 34 84 33 40 hhcurveto
          98 -19 -141 -35 -5 hvcurveto
          -297 -117 rmoveto
          -70 -11 -68 -55 -67 hhcurveto
          -52 -29 39 42 7 hvcurveto
          hintmask 0010000000100000
          9 57 58 82 161 4 -5 -28 -2 -14 1 -28 rrcurveto
          hintmask 0100000001000000
          1 -14 -1 -5 -2 -10 rrcurveto
          hintmask 0000001100000000
          223 536 rmoveto
          -92 callgsubr
        </CharString>
        <CharString name="agrave">
          459 533 -21 184 -106 callgsubr
          37 285 -58 callgsubr
        </CharString>
        <CharString name="ahookabove">
          459 518 -21 214 -106 callgsubr
          91 406 -96 callsubr
        </CharString>
        <CharString name="amacron">
          459 593 23 hstemhm
          hintmask 00000000
          -107 callgsubr
          hintmask 10000000
          161 354 -19 callgsubr
        </CharString>
        <CharString name="ampersand">
          720 -16 26 102 16 230 16 30 26 264 16 hstem
          251 48 132 18 204 20 2 18 vstem
          745 404 rmoveto
          92 callgsubr
          -20 -42 0 -20 hhcurveto
          -30 -47 0 2 -28 hvcurveto
          -5 -26 rlineto
          33 25 -14 -27 -4 hvcurveto
          -3 -16 -30 -39 -55 -72 -19 -26 -45 -59 -41 -39 -12 19 -78 127 -27 129 123 124 19 45 5 32 rrcurveto
          40 7 0 82 -65 hhcurveto
          -59 -70 -54 -97 -16 hvcurveto
          -8 -51 -3 -63 16 -87 -148 -144 rcurveline
          -26 -25 -17 -28 -6 -33 rrcurveto
          -82 -13 66 -62 94 hhcurveto
          94 70 58 19 23 hvcurveto
          -25 23 46 -52 80 hhcurveto
          71 69 54 83 16 hvcurveto
          -18 hlineto
          -78 -15 -70 -33 -44 hhcurveto
          -59 -39 59 28 -20 hvcurveto
          23 23 39 39 85 119 25 33 36 50 17 13 16 12 26 17 50 1 rrcurveto
          -314 185 rmoveto
          -6 -35 -26 -50 -100 -98 -11 52 0 66 9 54 rrcurveto
          88 15 46 28 32 hhcurveto
          56 -12 -90 -15 -3 hvcurveto
          -53 -514 rmoveto
          -46 -57 -57 -19 -49 hhcurveto
          -81 -21 83 65 10 hvcurveto
          7 41 20 41 31 30 74 71 rcurveline
          30 -111 55 -101 38 -54 rrcurveto
          endchar
        </CharString>
        <CharString name="anglearc">
          720 -43 -21 628 -20 hstem
          494 34 0 34 0 34 cntrmask 00111000
          676 17 rmoveto
          1 7 -3 6 -6 3 -127 53 rcurveline
          27 52 19 56 10 56 9 56 -1 56 -9 52 144 53 rcurveline
          7 3 5 6 2 7 2 12 -11 8 -12 -4 -145 -53 rcurveline
          -10 40 -17 37 -21 35 rrcurveto
          4 -2 -5 2 -5 hhcurveto
          -10 -8 -8 -9 -2 hvcurveto
          -4 0 -4 1 -3 vhcurveto
          21 -31 15 -35 10 -37 -454 -167 rcurveline
          -7 -3 -5 -6 -1 -7 -1 -7 3 -6 6 -3 398 -167 rcurveline
          -22 -37 -27 -35 -31 -31 -3 -3 -1 -4 -1 -4 rrcurveto
          -9 -1 5 -8 10 hhcurveto
          5 6 2 4 3 hvcurveto
          33 35 29 37 24 40 127 -53 rcurveline
          10 -4 14 8 2 12 rrcurveto
          -113 233 rmoveto
          -9 -52 -17 -51 -26 -49 -360 152 rcurveline
          411 152 9 -49 0 -51 -8 -52 rlinecurve
          endchar
        </CharString>
        <CharString name="angleleft">
          173 callgsubr
          273 -231 rmoveto
          1 2 -1 14 -5 14 -1 13 rlinecurve
          -70 359 -11 53 -1 8 -4 9 1 9 rlinecurve
          1 10 9 11 5 9 231 438 rcurveline
          3 5 3 6 1 6 rrcurveto
          8 -1 -6 7 -8 hhcurveto
          hintmask 11000000
          -5 -1 -16 -4 -7 -25 -10 -17 rlinecurve
          -222 -420 -4 -10 -9 -12 -2 -11 rlinecurve
          -2 -9 5 -10 1 -9 87 -446 rcurveline
          -12 2 2 -13 13 hhcurveto
          9 10 10 8 1 hvcurveto
          endchar
        </CharString>
        <CharString name="angleright">
          173 callgsubr
          303 251 rmoveto
          2 10 -5 10 -1 9 -12 57 rcurveline
          -70 364 -5 24 rlineto
          12 -2 -2 13 -14 hhcurveto
          hintmask 11000000
          -4 -1 -8 -2 -7 -8 -1 -8 rlinecurve
          1 -13 3 -13 3 -12 80 -415 rcurveline
          2 -8 3 -10 -9 vvcurveto
          -2 -10 -9 -11 -4 -9 -228 -431 rcurveline
          -3 -6 -5 -9 -1 -7 rrcurveto
          -7 -1 2 -10 14 hhcurveto
          18 2 8 26 9 16 74 142 rcurveline
          149 281 5 10 9 12 2 11 rlinecurve
          endchar
        </CharString>
        <CharString name="aogonek">
          459 -32 callgsubr
          endchar
        </CharString>
        <CharString name="aogonekacute">
          459 533 98 callsubr
          hintmask 00000000
          -32 callgsubr
          hintmask 11000000
          120 430 rmoveto
          -92 callgsubr
        </CharString>
        <CharString name="aring">
          459 520 171 callgsubr
          hstemhm
          291 25 hintmask 00000000
          -16 callgsubr
          55 369 -45 callsubr
        </CharString>
        <CharString name="aringacute">
          459 196 callsubr
          hstemhm
          291 25 hintmask 00000000
          -107 callgsubr
          hintmask 11111000
          55 369 -75 callgsubr
          49 234 rmoveto
          17 5 47 callsubr
          0 5 -11 -2 vvcurveto
          186 105 15 9 4 1 3 11 rlinecurve
          endchar
        </CharString>
        <CharString name="asciicircum">
          556 583 -21 123 59 hstem
          92 566 vstem
          658 584 rmoveto
          -256 160 -310 -160 8 -22 291 123 252 -123 rlineto
          endchar
        </CharString>
        <CharString name="asciitilde">
          556 193 202 callsubr
          603 290 170 callgsubr
          -31 hvcurveto
          17 -27 166 callsubr
          -21 -10 -22 86 callgsubr
          28 8 10 23 188 callgsubr
        </CharString>
        <CharString name="asciitilde.low">
          556 0 202 callsubr
          571 97 170 callgsubr
          -32 hvcurveto
          17 -26 166 callsubr
          -22 -10 -21 86 callgsubr
          27 8 10 24 188 callgsubr
        </CharString>
        <CharString name="asterisk">
          459 340 -21 430 -20 hstemhm
          129 346 -314 346 hintmask 01010000
          475 438 rmoveto
          2 11 -5 4 -10 6 -129 75 rcurveline
          154 76 13 7 5 2 2 11 rlinecurve
          21 4 -21 0 -6 hhcurveto
          -155 -102 43 180 rlineto
          12 -7 8 -11 -12 -10 -10 -9 -1 vhcurveto
          -18 -181 -111 93 rlineto
          9 -9 -2 0 -5 hhcurveto
          -14 -9 -12 -9 -2 hvcurveto
          -2 -11 6 -4 10 -6 128 -75 rcurveline
          -154 -76 rlineto
          hintmask 10100000
          -13 -7 -5 -2 -2 -11 rrcurveto
          -21 -3 21 0 6 hhcurveto
          155 102 -44 -181 rlineto
          -9 5 -10 13 12 10 9 11 2 vhcurveto
          1 15 17 165 110 -93 rlineto
          -9 10 2 0 5 hhcurveto
          14 9 12 9 1 hvcurveto
          endchar
        </CharString>
        <CharString name="asterisk.math">
          470 57 -21 430 -20 hstemhm
          223 43 21 43 -17 43 hintmask 00001000
          433 156 rmoveto
          3 20 -62 27 -28 17 -19 10 -17 14 -17 6 rrcurveto
          2 vlineto
          19 6 22 14 22 10 34 17 71 27 4 20 rrcurveto
          12 2 -7 10 -12 hhcurveto
          -13 -14 -12 -7 -10 hvcurveto
          -123 -82 rlineto
          hintmask 00010000
          13 57 19 60 10 57 rrcurveto
          hintmask 01001000
          11 1 -2 14 -16 hhcurveto
          hintmask 10110000
          -17 -7 -13 -12 -2 hvcurveto
          -10 -57 -1 -60 -5 -57 -97 82 rcurveline
          7 -8 -10 12 -13 hhcurveto
          -12 -9 -10 -12 -2 hvcurveto
          -4 -20 63 -27 28 -17 18 -10 18 -14 17 -6 rrcurveto
          -2 vlineto
          -19 -6 -23 -14 -21 -10 -34 -17 -72 -27 -3 -20 rrcurveto
          -12 -2 6 -10 12 hhcurveto
          13 14 12 7 11 hvcurveto
          123 82 -13 -57 -19 -60 -10 -57 rlinecurve
          -12 -2 3 -13 17 hhcurveto
          16 7 14 11 2 hvcurveto
          10 57 1 60 5 57 97 -82 rcurveline
          -7 7 10 -12 13 hhcurveto
          12 10 10 12 2 hvcurveto
          endchar
        </CharString>
        <CharString name="at">
          720 -8 16 123 16 400 16 123 16 hstemhm
          104 18 108 53 282 18 0 18 hintmask 11111101
          729 334 rmoveto
          251 42 -155 117 -139 hhcurveto
          -168 -171 -151 -204 -34 hvcurveto
          -191 -32 106 -164 186 hhcurveto
          163 155 68 8 1 hvcurveto
          5 1 -1 1 -20 hhcurveto
          -17 -2 0 -3 -5 hvcurveto
          -17 -39 -105 -46 -130 hhcurveto
          -177 -96 161 178 30 hvcurveto
          190 32 160 149 159 hhcurveto
          72 67 -29 -67 52 hvcurveto
          53 -70 9 -95 -16 -95 rrcurveto
          -75 -12 -20 -108 -70 hhcurveto
          -32 2 41 27 5 hvcurveto
          40 242 rlineto
          19 3 0 1 -20 hhcurveto
          -28 hlineto
          0 -2 1 -4 7 vhcurveto
          62 -32 -49 16 -38 hhcurveto
          -96 -106 -88 -128 -21 hvcurveto
          -128 -21 77 -88 95 hhcurveto
          69 55 51 31 24 hvcurveto
          -56 -9 42 -26 39 hhcurveto
          83 27 96 107 18 hvcurveto
          -190 -63 rmoveto
          -3 -19 0 -1 -16 -21 rrcurveto
          -57 -40 -52 -26 -43 hhcurveto
          -74 -47 89 111 19 hvcurveto
          111 18 76 89 74 hhcurveto
          42 28 -24 -15 14 hvcurveto
          hintmask 00000010
          20 -23 15 -29 -5 -33 rrcurveto
          endchar
        </CharString>
        <CharString name="atilde">
          459 561 -56 callsubr
          155 397 -83 callgsubr
        </CharString>
        <CharString name="b">
          511 -8 16 414 16 219 37 hstem
          141 64 6 64 174 64 vstem
          141 callgsubr
          55 328 -121 -77 callsubr
          -101 -603 rlineto
          18 hlineto
          41 71 rlineto
          -47 21 38 -32 58 112 callsubr
          1 rmoveto
          -198 -33 -120 -11 -24 hhcurveto
          -31 -43 12 58 -22 hvcurveto
          -8 19 1 2 3 18 33 198 rcurveline
          3 18 0 3 18 21 rrcurveto
          156 callgsubr
        </CharString>
        <CharString name="backslash">
          500 189 callsubr
          hstem
          405 -230 rmoveto
          0 0 5 -2 13 vhcurveto
          -184 940 rlineto
          11 -2 -2 11 -14 hhcurveto
          -11 -10 -9 -11 -2 hvcurveto
          0 -1 -5 3 -13 vhcurveto
          183 -940 rlineto
          -11 2 2 -11 14 hhcurveto
          11 11 9 11 2 hvcurveto
          endchar
        </CharString>
        <CharString name="baht">
          654 -26 26 0 26 321 16 294 26 0 26 hstemhm
          310 26 31 26 31 26 cntrmask 00000111
          hintmask 00001111
          637 182 rmoveto
          15 90 -69 77 -106 7 100 19 77 64 13 76 rrcurveto
          83 14 -68 85 -129 hhcurveto
          -38 hlineto
          4 26 177 callsubr
          -4 -26 rlineto
          -254 hlineto
          hintmask 01010111
          57 callsubr
          -90 -541 -87 callgsubr
          254 hlineto
          hintmask 10110111
          -79 callgsubr
          127 callgsubr
          -55 callsubr
          64 hlineto
          128 98 91 91 15 hvcurveto
          -43 333 rmoveto
          -76 -13 -73 -76 -108 hhcurveto
          -7 hlineto
          49 294 rlineto
          33 hlineto
          99 30 -80 -62 -10 hvcurveto
          -227 -152 rmoveto
          -111 hlineto
          42 255 rlineto
          34 6 3 5 40 hhcurveto
          69 hlineto
          148 -474 rmoveto
          hintmask 01100111
          -73 -13 -71 -84 -109 hhcurveto
          -35 hlineto
          54 321 rlineto
          48 hlineto
          103 35 -91 -73 -12 hvcurveto
          -254 -157 rmoveto
          -69 hlineto
          -40 -1 5 34 6 hvcurveto
          47 282 rlineto
          111 hlineto
          endchar
        </CharString>
        <CharString name="bar">
          278 189 callsubr
          hstem
          83 40 116 40 vstem
          123 -217 rmoveto
          66 callgsubr
          -14 -3 118 callsubr
          3 hvcurveto
          endchar
        </CharString>
        <CharString name="bigcircle">
          89 callgsubr
          615 -60 callgsubr
          endchar
        </CharString>
        <CharString name="blanksymbol">
          511 -8 16 414 16 108 37 74 37 -27 16 hstemhm
          112 64 -59 64 -40 64 6 64 -3 64 113 64 hintmask 0110100010000000
          141 callgsubr
          30 180 111 99 rlineto
          2 3 3 3 3 vvcurveto
          74 callgsubr
          hintmask 0011000001000000
          -4 -4 -1 -3 -2 hvcurveto
          -89 -80 19 111 rlineto
          hintmask 0000100000000000
          -121 -11 rlineto
          hintmask 0001000100000000
          -79 callgsubr
          59 8 -6 -48 -8 hvcurveto
          -13 -74 rlineto
          hintmask 0000010000000000
          -75 -68 -3 -2 -2 -4 -1 -3 rlinecurve
          hintmask 1000001010100000
          205 callgsubr
          2 hvcurveto
          54 48 -82 -491 rlineto
          18 hlineto
          41 71 rlineto
          -47 21 38 -32 58 112 callsubr
          1 rmoveto
          hintmask 1000010001000000
          -198 -33 -120 -11 -24 hhcurveto
          -31 -43 12 58 -22 hvcurveto
          -8 19 1 2 3 18 rrcurveto
          hintmask 0100000100100000
          33 198 3 18 0 3 18 21 rlinecurve
          156 callgsubr
        </CharString>
        <CharString name="braceleft">
          500 -229 -21 487 24 489 -20 hstem
          306 67 vstem
          387 -239 rmoveto
          2 10 -6 0 -10 1 -78 5 -30 45 -3 36 -1 11 0 2 6 35 25 150 rcurveline
          5 30 9 51 10 vvcurveto
          -2 66 -60 26 -37 11 123 34 12 71 5 28 30 180 rcurveline
          12 72 4 22 28 25 21 18 27 24 70 4 6 1 4 4 1 6 rrcurveto
          11 2 -8 0 -12 hhcurveto
          -100 -97 -51 -72 -14 hvcurveto
          -31 -183 -16 -94 -2 -16 -31 -28 rlinecurve
          -16 -14 -32 -27 -63 -4 rrcurveto
          -7 -8 -1 -10 -1 hvcurveto
          -2 -10 6 0 10 -1 42 -3 82 -21 -17 -100 -33 -198 rcurveline
          -10 -58 -5 -34 46 -37 rrcurveto
          -30 38 63 -8 31 hhcurveto
          12 8 0 11 2 hvcurveto
          endchar
        </CharString>
        <CharString name="braceright">
          500 -229 -21 510 -21 511 -20 hstem
          195 67 vstem
          469 250 rmoveto
          1 10 -6 0 -9 1 -43 3 -81 21 16 100 33 198 rcurveline
          10 58 6 34 -46 37 rrcurveto
          29 -38 -63 9 -32 hhcurveto
          -10 -10 0 -11 -2 hvcurveto
          -1 -10 6 0 9 -1 79 -5 29 -45 3 -36 1 -11 0 -2 -6 -35 -25 -150 rcurveline
          -5 -30 -8 -51 -10 vvcurveto
          2 -66 60 -26 37 -11 -124 -34 -12 -71 -4 -28 -31 -180 rcurveline
          -12 -72 -3 -22 -28 -25 -21 -18 -27 -24 -71 -4 -5 -1 -5 -4 -1 -6 rrcurveto
          -11 -2 10 0 10 hhcurveto
          100 98 51 72 14 hvcurveto
          30 183 16 94 3 16 30 28 rlinecurve
          17 14 31 27 64 4 rrcurveto
          7 7 1 10 2 hvcurveto
          endchar
        </CharString>
        <CharString name="bracketleft">
          250 -249 35 928 35 hstem
          193 -249 rmoveto
          6 170 callsubr
          -129 hlineto
          -167 -998 rlineto
          endchar
        </CharString>
        <CharString name="bracketright">
          250 -249 35 928 35 hstem
          101 -249 rmoveto
          167 998 rlineto
          -129 hlineto
          -6 -35 rlineto
          94 hlineto
          -155 -928 rlineto
          -94 hlineto
          -6 -35 rlineto
          endchar
        </CharString>
        <CharString name="breve">
          181 callsubr
          146 74 callsubr
          endchar
        </CharString>
        <CharString name="breve.cap">
          459 484 28 146 75 callsubr
          endchar
        </CharString>
        <CharString name="breve.ts1">
          574 521 28 146 -20 hstem
          593 695 rmoveto
          -16 hlineto
          -89 -15 -100 -57 -83 hhcurveto
          -81 -86 50 96 16 hvcurveto
          -16 hlineto
          -104 -17 84 -70 95 hhcurveto
          95 106 68 106 18 hvcurveto
          endchar
        </CharString>
        <CharString name="brokenbar">
          278 189 callsubr
          hstemhm
          83 40 22 40 -9 40 23 40 hintmask 01001100
          216 343 rmoveto
          63 374 rlineto
          14 2 3 19 -20 hhcurveto
          -20 -3 -19 -14 -2 hvcurveto
          -63 -374 rlineto
          -8 -1 9 -5 10 hhcurveto
          10 11 5 8 1 hvcurveto
          -93 -560 rmoveto
          hintmask 10110000
          62 374 rlineto
          8 2 -10 5 -10 hhcurveto
          -10 -10 -5 -8 -2 hvcurveto
          -62 -374 rlineto
          -14 -3 118 callsubr
          3 hvcurveto
          endchar
        </CharString>
        <CharString name="bullet">
          720 154 224 hstem
          292 224 93 callgsubr
          endchar
        </CharString>
        <CharString name="c">
          103 callsubr
          hstem
          69 64 222 72 vstem
          -60 callsubr
          endchar
        </CharString>
        <CharString name="cacute">
          103 callsubr
          163 callgsubr
          69 64 222 72 hintmask 11100110
          -60 callsubr
          hintmask 00011000
          48 551 rmoveto
          -92 callgsubr
        </CharString>
        <CharString name="caron">
          179 callgsubr
          hstem
          494 678 -38 callsubr
        </CharString>
        <CharString name="caron.cap">
          183 callgsubr
          133 -20 hstem
          479 591 -46 callsubr
        </CharString>
        <CharString name="caron.ts1">
          574 576 -21 145 -20 hstem
          576 687 rmoveto
          -2 4 -2 7 -4 2 rrcurveto
          -1 hlineto
          -8 -20 -14 -8 -12 hvcurveto
          -93 -55 -16 -10 -18 -8 -14 -12 rlinecurve
          -136 102 rlineto
          2 -3 -3 3 -4 hhcurveto
          -1 hlineto
          -6 -2 -4 -7 -2 -4 138 -123 rcurveline
          14 -9 15 8 rlineto
          endchar
        </CharString>
        <CharString name="ccaron">
          103 callsubr
          95 -21 176 -20 hstemhm
          69 64 222 72 hintmask 11100110
          -60 callsubr
          hintmask 00011000
          85 560 -38 callsubr
        </CharString>
        <CharString name="ccedilla">
          406 -200 18 116 18 40 18 269 71 74 18 hstemhm
          69 64 0 72 55 64 31 72 hintmask 0011101010000000
          404 118 rmoveto
          4 0 3 -7 -7 -1 -1 -13 -6 vhcurveto
          -81 -40 -60 -20 -43 hhcurveto
          -64 -67 59 148 24 hvcurveto
          152 26 83 55 59 hhcurveto
          39 55 -19 -55 12 hvcurveto
          -19 -28 0 -35 -5 104 callgsubr
          7 29 3 35 6 hvcurveto
          71 12 -59 54 -77 hhcurveto
          hintmask 0000010000000000
          105 callgsubr
          hintmask 1100001100000000
          -20 -123 65 -87 91 -12 -10 -60 rcurveline
          38 120 callgsubr
          -92 0 -78 hhcurveto
          -9 hlineto
          hintmask 1110010100000000
          -3 -18 rlineto
          194 callsubr
          -46 28 -52 hhcurveto
          7 40 114 8 47 107 2 11 rlinecurve
          endchar
        </CharString>
        <CharString name="ccircumflex">
          103 callsubr
          95 -21 176 -20 hstemhm
          69 64 222 72 hintmask 11100110
          -60 callsubr
          hintmask 00011000
          60 412 -50 callgsubr
          endchar
        </CharString>
        <CharString name="cdotaccent">
          103 callsubr
          121 82 hstemhm
          69 64 151 81 -10 72 hintmask 11101010
          -60 callsubr
          hintmask 00010100
          -39 486 -36 callgsubr
        </CharString>
        <CharString name="cedilla">
          32 callgsubr
        </CharString>
        <CharString name="cedilla.dup">
          32 callgsubr
        </CharString>
        <CharString name="cent">
          406 -26 18 0 18 269 71 74 18 hstemhm
          207 26 -23 26 -23 26 cntrmask 00001110
          hintmask 01111110
          404 118 rmoveto
          4 0 3 -7 -7 -1 -1 -13 -6 vhcurveto
          -81 -40 -60 -20 -43 hhcurveto
          -1 hlineto
          69 414 37 -2 50 -20 12 -52 rlinecurve
          -19 -28 0 -35 -5 104 callgsubr
          7 29 3 35 6 hvcurveto
          11 69 -55 52 -72 4 2 15 rcurveline
          74 callgsubr
          -8 -6 201 callsubr
          -2 -16 -100 -11 -96 -94 -20 -120 rlinecurve
          -21 -125 69 -88 93 -10 rrcurveto
          hintmask 10001110
          -3 -19 rlineto
          -7 -2 4 -6 8 hhcurveto
          7 7 6 7 2 hvcurveto
          3 18 117 5 49 110 2 11 rlinecurve
          -191 -104 rmoveto
          -54 14 -47 62 21 127 23 136 69 58 56 11 rrcurveto
          endchar
        </CharString>
        <CharString name="cent.oldstyle">
          406 -8 18 269 71 69 18 -14 18 -17 18 -1 18 hstemhm
          69 64 23 72 85 72 -66 64 -43 64 -49 72 hintmask 1110000001000000
          404 118 rmoveto
          4 0 3 -7 -7 -1 -1 -13 -6 vhcurveto
          -81 -40 -60 -20 -43 hhcurveto
          -17 -18 4 9 -15 hvcurveto
          147 396 31 -9 30 -21 9 -39 rlinecurve
          hintmask 0000000000010000
          -19 -28 0 -35 -5 hvcurveto
          hintmask 0100000010000000
          95 callgsubr
          hintmask 0010000000010000
          7 29 3 35 6 hvcurveto
          10 58 -38 46 -55 16 7 17 rcurveline
          hintmask 0000010000100000
          8 2 -5 8 -8 hhcurveto
          -6 -6 -5 -6 -2 hvcurveto
          hintmask 0000010001000000
          -7 -18 rlineto
          hintmask 1000101100100000
          1 -5 -5 0 -6 hhcurveto
          105 callgsubr
          -17 -100 41 -77 64 -31 -11 -31 rcurveline
          -8 -3 4 -8 9 hhcurveto
          6 6 4 6 2 hvcurveto
          11 28 rlineto
          -5 15 16 -2 16 hhcurveto
          124 50 115 11 2 hvcurveto
          -91 305 rmoveto
          -143 -384 -32 31 -20 57 15 90 rlinecurve
          152 26 83 55 59 hhcurveto
          hintmask 0001000010000000
          4 4 0 -1 4 hvcurveto
          endchar
        </CharString>
        <CharString name="centigrade">
          888 -15 26 464 35 139 35 -10 26 hstemhm
          132 76 110 76 hintmask 10010100
          875 237 rmoveto
          1 7 rlineto
          3 -1 -3 2 -4 hhcurveto
          -13 2 -16 -8 -3 hvcurveto
          -108 -26 -103 -106 -122 hhcurveto
          -73 -67 37 56 -37 hvcurveto
          -42 66 -4 85 14 84 11 66 20 68 41 59 rrcurveto
          84 57 94 58 96 hhcurveto
          122 50 -120 -101 2 hvcurveto
          -11 1 -9 -19 16 hhcurveto
          7 4 3 8 1 hvcurveto
          43 257 rlineto
          4 1 0 5 -6 hhcurveto
          -9 -43 -66 -32 -21 hvcurveto
          60 -37 -56 38 -77 hhcurveto
          -189 -165 -177 -182 -30 hvcurveto
          -180 -30 104 -176 190 hhcurveto
          15 hlineto
          131 6 125 115 22 131 rrcurveto
          -569 342 rmoveto
          hintmask 01101000
          53 8 -31 52 -66 hhcurveto
          -9 hlineto
          -54 -7 -48 -43 -9 -54 rrcurveto
          -53 -9 31 -52 66 hhcurveto
          9 hlineto
          54 7 49 43 9 54 rrcurveto
          -35 hmoveto
          -37 -7 -38 -32 -36 hhcurveto
          -36 -23 27 35 -1 hvcurveto
          2 8 rlineto
          37 6 38 32 36 hhcurveto
          36 24 -27 -35 hvcurveto
          endchar
        </CharString>
        <CharString name="circumflex">
          179 callgsubr
          hstem
          469 530 -50 callgsubr
          endchar
        </CharString>
        <CharString name="circumflex.cap">
          183 callgsubr
          133 -20 hstem
          462 490 -33 callsubr
        </CharString>
        <CharString name="circumflex.dup">
          179 callgsubr
          hstem
          469 530 -50 callgsubr
          endchar
        </CharString>
        <CharString name="colon">
          250 0 82 266 82 hstemhm
          91 82 -24 82 hintmask 11010000
          231 389 55 callgsubr
          -58 -348 rmoveto
          25 4 -17 16 -21 hhcurveto
          hintmask 10100000
          -20 -24 -16 -25 -4 hvcurveto
          -25 -4 17 -16 21 hhcurveto
          20 24 16 25 4 hvcurveto
          endchar
        </CharString>
        <CharString name="colonmonetary">
          104 callsubr
          hstemhm
          103 76 171 26 -25 26 -21 26 84 26 -20 26 160 76 hintmask 1100011010000000
          660 234 rmoveto
          10 2 0 4 -9 hhcurveto
          -8 0 -3 -9 -3 hvcurveto
          -140 -31 -114 -86 -108 hhcurveto
          -7 hlineto
          110 663 rlineto
          5 hlineto
          113 66 -98 -139 -4 hvcurveto
          -12 -1 -2 9 11 1 2 18 3 vhcurveto
          39 237 rlineto
          -15 callgsubr
          -58 -84 -37 60 -52 35 -72 3 rlinecurve
          hintmask 0010100100000000
          1 10 167 callsubr
          -11 -165 -10 -169 -147 -33 -199 rlinecurve
          -33 -200 119 -147 162 -10 rrcurveto
          hintmask 0001000000000000
          -1 -11 rlineto
          127 callgsubr
          hintmask 1010101000000000
          1 10 150 4 114 133 19 113 rlinecurve
          -304 -222 rmoveto
          -98 15 -118 81 39 234 39 235 149 80 99 14 rrcurveto
          hintmask 0000010000000000
          endchar
        </CharString>
        <CharString name="comma">
          250 -173 -21 194 82 hstem
          158 16 vstem
          174 -13 rmoveto
          33 5 7 62 -47 174 callsubr
          12 14 5 11 10 hvcurveto
          -9 0 -3 -3 -16 vhcurveto
          -10 -60 -29 -55 -51 -50 rrcurveto
          -5 -5 -1 -4 0 vvcurveto
          -4 149 callsubr
          6 80 70 111 19 hvcurveto
          endchar
        </CharString>
        <CharString name="copyleft">
          89 callgsubr
          615 -60 callgsubr
          -109 hmoveto
          128 21 -80 94 -106 hhcurveto
          -48 -41 -23 -38 -37 hvcurveto
          -18 52 rlineto
          8 -4 0 0 -3 hhcurveto
          -4 0 0 -12 -2 hvcurveto
          -25 -147 rlineto
          -11 -1 -1 -1 7 201 callgsubr
          7 3 hvcurveto
          87 25 61 61 71 hhcurveto
          60 96 -44 -162 -27 hvcurveto
          -162 -27 -108 -44 -64 hhcurveto
          -67 -53 53 87 9 hvcurveto
          6 0 1 -5 -5 0 -2 -6 -1 vhcurveto
          -72 -12 45 -84 95 hhcurveto
          107 112 94 129 21 hvcurveto
          endchar
        </CharString>
        <CharString name="copyright">
          89 callgsubr
          467 34 114 -60 callgsubr
          -160 -67 rmoveto
          6 1 0 2 -5 hhcurveto
          -5 0 -1 -6 -2 hvcurveto
          -87 -19 -71 -53 -67 hhcurveto
          -64 -94 44 162 27 hvcurveto
          162 27 110 44 61 hhcurveto
          70 41 -61 -87 -2 hvcurveto
          -7 -1 -1 5 7 1 1 11 1 vhcurveto
          25 147 rlineto
          12 2 0 0 -4 hhcurveto
          -3 0 0 -8 -6 hvcurveto
          -36 -52 rlineto
          38 -24 -34 23 -47 hhcurveto
          -107 -112 -94 -128 -21 hvcurveto
          -129 -21 80 -94 107 hhcurveto
          95 73 84 72 12 hvcurveto
          endchar
        </CharString>
        <CharString name="copyright.alt">
          646 -108 34 578 34 hstem
          36 34 241 34 183 34 86 34 vstem
          682 215 rmoveto
          198 33 -104 125 -198 hhcurveto
          -198 -146 -125 -198 -33 hvcurveto
          -198 -33 104 -125 198 hhcurveto
          198 146 125 198 33 hvcurveto
          -34 hmoveto
          -177 -30 -130 -112 -177 hhcurveto
          -177 -94 112 177 30 hvcurveto
          177 29 131 112 177 hhcurveto
          177 93 -112 -177 -29 hvcurveto
          -132 -68 rmoveto
          7 1 0 2 -6 hhcurveto
          -5 0 -2 -5 -1 hvcurveto
          -89 -20 -72 -54 -68 hhcurveto
          -65 -94 46 164 27 hvcurveto
          164 27 112 44 61 hhcurveto
          72 40 -62 -87 -2 hvcurveto
          -8 -1 -1 6 7 1 1 12 2 vhcurveto
          24 149 rlineto
          11 2 -1 1 -3 hhcurveto
          -3 -1 -1 -7 -5 hvcurveto
          -37 -53 rlineto
          39 -24 -34 22 -49 hhcurveto
          -108 -112 -95 -129 -22 hvcurveto
          -132 -22 81 -94 109 hhcurveto
          96 75 85 72 12 hvcurveto
          endchar
        </CharString>
        <CharString name="currency">
          720 28 34 10 34 288 34 0 34 -25 34 hstemhm
          224 34 288 34 hintmask 00010000
          661 471 rmoveto
          -11 13 -14 -12 -12 -10 -86 -74 rcurveline
          25 -27 -37 15 -43 hhcurveto
          -43 -42 -15 -26 -34 hvcurveto
          -63 75 -8 10 -10 12 -14 -12 rlinecurve
          hintmask 11101110
          -15 -13 10 -12 8 -10 62 -75 rcurveline
          -30 -30 -21 -39 -7 -43 -7 -43 8 -39 20 -31 -88 -75 rcurveline
          -11 -10 -14 -12 10 -12 11 -13 14 12 11 10 88 75 rcurveline
          -25 27 36 -15 43 hhcurveto
          43 42 15 25 34 hvcurveto
          62 -75 9 -10 10 -12 14 12 rlinecurve
          15 13 -10 12 -9 10 -62 75 rcurveline
          31 30 22 40 7 43 7 43 -9 39 -19 31 86 74 rcurveline
          12 10 14 12 -10 12 rrcurveto
          -115 -221 rmoveto
          -80 -14 -75 -64 -79 hhcurveto
          -80 -54 64 80 14 hvcurveto
          80 13 75 64 80 hhcurveto
          79 54 -64 -80 -13 hvcurveto
          endchar
        </CharString>
        <CharString name="cwm">
          0 endchar
        </CharString>
        <CharString name="cwmascender">
          0 endchar
        </CharString>
        <CharString name="cwmcapital">
          0 endchar
        </CharString>
        <CharString name="d">
          511 -8 98 callgsubr
          hintmask 01100100
          64 callgsubr
          hintmask 10011010
          -5 callgsubr
          hintmask 01100000
          78 callgsubr
          hintmask 10010010
          -1 callsubr
          endchar
        </CharString>
        <CharString name="dagger">
          444 -195 -21 613 67 241 -20 hstemhm
          170 67 -13 67 -54 67 -5 67 hintmask 01000100
          459 430 135 callgsubr
          5 20 5 28 22 65 rrcurveto
          hintmask 01110010
          11 37 13 37 6 37 rrcurveto
          8 1 6 33 -33 hhcurveto
          -34 -6 -32 -9 -1 hvcurveto
          -6 -35 -1 -58 -24 vvcurveto
          -46 -3 -32 -4 -29 vhcurveto
          -10 1 -20 117 callsubr
          31 8 6 22 hvcurveto
          3 1 26 7 20 2 -6 -25 -6 -20 -9 -25 rrcurveto
          hintmask 11001010
          -26 -72 -2 -8 -9 -53 -25 -151 -17 -168 -7 -95 rrcurveto
          -14 -1 0 -6 11 hhcurveto
          12 1 5 13 4 hvcurveto
          14 50 12 53 11 51 14 63 22 103 16 96 9 54 2 7 -3 71 -1 23 1 21 2 27 11 -1 19 -4 19 -5 rrcurveto
          -6 18 27 -8 21 hhcurveto
          35 7 28 5 1 hvcurveto
          endchar
        </CharString>
        <CharString name="daggerdbl">
          444 -184 -21 194 66 389 67 194 -20 hstem
          223 67 0 67 0 67 cntrmask 00001110
          467 477 135 callgsubr
          6 30 13 34 5 14 12 33 13 40 5 28 rrcurveto
          7 1 6 32 -34 hhcurveto
          -10 -24 -3 -36 -6 hvcurveto
          -3 -20 -1 -29 1 -35 rrcurveto
          -41 1 -28 -4 -26 vhcurveto
          -11 1 -19 117 callsubr
          30 8 6 22 hvcurveto
          4 1 26 7 20 2 -6 -30 -13 -34 -5 -14 -11 -33 -14 -40 -5 -28 175 callgsubr
          4 20 0 29 -1 35 rrcurveto
          41 0 28 3 26 vhcurveto
          11 -1 19 -4 18 -5 rrcurveto
          -6 18 28 -8 21 hhcurveto
          35 7 28 5 1 hvcurveto
          -76 -455 rmoveto
          17 3 -10 16 -21 hhcurveto
          -20 -17 -3 -8 -33 hvcurveto
          -27 -8 -7 -2 -23 -2 7 28 8 24 14 42 20 56 4 23 1 5 rrcurveto
          35 6 -21 4 -11 hhcurveto
          -30 -9 -25 -14 -2 hvcurveto
          -5 -29 1 -43 -34 vvcurveto
          2 -11 -1 -31 -3 -30 -22 2 -3 1 -38 11 rrcurveto
          9 -31 -17 0 -7 hhcurveto
          -25 -12 -20 -13 -2 hvcurveto
          -15 -3 7 -18 24 hhcurveto
          24 25 6 4 12 hvcurveto
          41 10 7 1 17 2 -7 -28 -8 -24 -14 -42 -20 -56 -4 -23 -1 -5 175 callgsubr
          5 29 -1 43 34 vvcurveto
          -1 11 0 31 3 30 23 -2 3 -1 38 -11 rrcurveto
          -9 31 18 0 5 hhcurveto
          24 13 18 15 3 hvcurveto
          endchar
        </CharString>
        <CharString name="dblbracketleft">
          378 -248 35 928 35 hstem
          192 35 120 35 vstem
          316 -248 rmoveto
          5 170 callsubr
          -246 hlineto
          -166 -998 rlineto
          122 178 callsubr
        </CharString>
        <CharString name="dblbracketright">
          378 -248 35 928 35 hstem
          78 35 120 35 vstem
          225 -248 rmoveto
          166 998 rlineto
          -245 hlineto
          -6 -35 rlineto
          93 hlineto
          -155 -928 rlineto
          -93 hlineto
          -5 -35 rlineto
          215 178 callsubr
        </CharString>
        <CharString name="dblgrave.ts1">
          470 536 130 callgsubr
          277 523 93 callsubr
          173 8 93 callsubr
          endchar
        </CharString>
        <CharString name="dblverticalbar">
          380 189 callsubr
          hstemhm
          83 40 62 40 -26 40 0 40 62 40 hintmask 11110110
          123 -217 rmoveto
          66 callgsubr
          -14 -3 118 callsubr
          3 hvcurveto
          102 hmoveto
          66 callgsubr
          hintmask 10001000
          -14 -3 -3 -19 20 hhcurveto
          hintmask 00010000
          20 3 19 14 3 hvcurveto
          endchar
        </CharString>
        <CharString name="dcaron">
          195 callgsubr
          70 -21 146 61 -37 26 -26 37 hstemhm
          69 64 hintmask 0110000100000000
          64 callgsubr
          hintmask 1001001010000000
          -5 callgsubr
          hintmask 0110000000000000
          78 callgsubr
          hintmask 1001000110000000
          -1 callsubr
          208 305 rmoveto
          25 4 5 46 -35 hhcurveto
          -17 -16 -11 -20 -3 hvcurveto
          hintmask 0000110000000000
          59 callsubr
        </CharString>
        <CharString name="dcroat">
          195 callgsubr
          98 26 95 26 -26 37 hstemhm
          69 64 160 64 92 51 -46 51 hintmask 0110100001000000
          479 89 callsubr
          76 456 rlineto
          68 hlineto
          5 26 rlineto
          hintmask 0000101000100000
          -68 hlineto
          22 132 rlineto
          hintmask 0000110010100000
          -121 -77 callsubr
          -7 -41 rlineto
          -156 139 callsubr
          hintmask 1001100111000000
          156 hlineto
          -27 -167 rlineto
          5 -4 -30 64 -81 hhcurveto
          -102 -114 -91 -132 -22 hvcurveto
          -131 -22 78 -92 98 hhcurveto
          85 55 66 7 6 hvcurveto
          -12 -73 rlineto
          hintmask 0110000000000000
          78 callgsubr
          hintmask 1001000100000000
          -1 callsubr
          endchar
        </CharString>
</ttFont>
